<svg viewBox="0 0 120 30" xmlns="http://www.w3.org/2000/svg"><g fill="none" fill-rule="evenodd"><path d="M35.987 12.226l2.715 16.839h2.695l-2.34-16.84h-3.07zM54.087 1L41.89 22.795l.499 3.688L57.205 1h-3.118z" fill="#44D62C"/><path d="M14.594 13.855a7.047 7.047 0 0 0-2.434-1.237 9.796 9.796 0 0 0-2.734-.392H3.87L1 29.065h6.087c1.423 0 2.739-.233 3.949-.7 1.209-.471 2.257-1.13 3.145-1.99.888-.855 1.58-1.884 2.077-3.09.5-1.204.746-2.547.746-4.021 0-1.253-.222-2.327-.666-3.224-.442-.896-1.023-1.623-1.744-2.185zm-.963 8.355a6.544 6.544 0 0 1-1.297 2.184 6.182 6.182 0 0 1-2.148 1.53c-.857.383-1.853.57-2.985.57H4.239l1.996-11.749h2.504c.916 0 1.711.13 2.375.39.667.264 1.22.615 1.655 1.058.435.444.761.966.976 1.567.214.603.32 1.235.32 1.901 0 .884-.145 1.736-.434 2.55zm6.12 6.857h10.907l.437-2.615h-8.13l.827-4.83h7.119l.434-2.476h-7.14l.735-4.352h7.487l.435-2.568H22.619l-2.868 16.84zm37.008-12.3a6.443 6.443 0 0 1 2.018-1.675c.786-.421 1.652-.629 2.592-.629.434 0 .826.053 1.18.164.352.108.667.25.95.42.287.17.528.358.72.568.198.208.353.407.47.593l2.178-1.698a4.454 4.454 0 0 0-.919-1.021 5.77 5.77 0 0 0-1.27-.792A7.698 7.698 0 0 0 61.46 12c-1.32 0-2.54.27-3.68.803a9.483 9.483 0 0 0-2.975 2.184c-.845.922-1.506 2.005-1.984 3.242-.48 1.24-.718 2.572-.718 3.998 0 1.055.173 2.013.515 2.883a6.5 6.5 0 0 0 1.45 2.23 6.453 6.453 0 0 0 2.232 1.443c.869.338 1.833.51 2.894.51.748 0 1.435-.078 2.064-.233a7.861 7.861 0 0 0 1.728-.64 7.192 7.192 0 0 0 1.414-.952 7.389 7.389 0 0 0 1.096-1.174l-1.77-1.625c-.569.728-1.212 1.26-1.932 1.604a5.22 5.22 0 0 1-2.263.508c-.732 0-1.385-.13-1.954-.393a4.133 4.133 0 0 1-1.425-1.057 4.709 4.709 0 0 1-.875-1.56 5.967 5.967 0 0 1-.302-1.918c0-.927.157-1.832.472-2.718a7.992 7.992 0 0 1 1.312-2.367zm27.271-2.849a6.826 6.826 0 0 0-2.368-1.418c-.916-.332-1.948-.5-3.084-.5-1.318 0-2.533.268-3.655.802a9.258 9.258 0 0 0-2.918 2.17c-.824.917-1.471 1.994-1.941 3.234a11.053 11.053 0 0 0-.706 3.95c0 1.1.179 2.091.538 2.977a6.255 6.255 0 0 0 1.536 2.253c.666.62 1.47 1.094 2.41 1.418.944.324 2 .487 3.168.487 1.318 0 2.525-.265 3.632-.803a9.076 9.076 0 0 0 2.873-2.17c.81-.917 1.44-1.99 1.897-3.23.454-1.241.682-2.559.682-3.954 0-1.1-.179-2.09-.538-2.974a6.156 6.156 0 0 0-1.526-2.242zm-1.2 8.192a7.694 7.694 0 0 1-1.213 2.373 6.084 6.084 0 0 1-1.947 1.671c-.773.421-1.66.627-2.66.627-.781 0-1.467-.13-2.063-.394a4.354 4.354 0 0 1-1.505-1.058 4.417 4.417 0 0 1-.92-1.558 5.693 5.693 0 0 1-.318-1.919c0-.927.15-1.833.441-2.718a7.972 7.972 0 0 1 1.243-2.368 6.154 6.154 0 0 1 1.967-1.675c.767-.42 1.63-.627 2.592-.627.776 0 1.465.132 2.064.395s1.098.615 1.502 1.057c.404.444.71.965.92 1.57.208.604.315 1.238.315 1.905a9.1 9.1 0 0 1-.417 2.719zm20.152-5.532c0-1.366-.487-2.431-1.457-3.199-.978-.77-2.355-1.153-4.144-1.153h-4.826l-2.87 16.839h2.778l1.194-7.186h2.159l3.077 7.186h3.193l-3.376-7.517c1.302-.3 2.339-.867 3.113-1.7.77-.833 1.159-1.925 1.159-3.27zm-3.927 2.28c-.674.414-1.63.621-2.87.621h-2.114l.825-4.783h2.047c.95 0 1.704.162 2.276.48.563.314.845.883.845 1.711 0 .9-.336 1.564-1.01 1.972zm19.55-4.065l.439-2.567H108.8l-2.87 16.839h10.909l.434-2.615h-8.128l.828-4.83h7.117l.435-2.475h-7.142l.734-4.352h7.489z" fill="#53565A"/></g></svg>