<svg viewBox="0 0 204 29" xmlns="http://www.w3.org/2000/svg"><g fill="none" fill-rule="evenodd"><path d="M37.113 11.391l2.728 16.545h2.71l-2.353-16.545h-3.085zM56.19.154L43.28 22.071l.528 3.709L59.491.154h-3.3z" fill="#44D62C"/><path d="M14.06 12.991a7.466 7.466 0 0 0-2.517-1.216 10.59 10.59 0 0 0-2.826-.384H2.969L0 27.936h6.297c1.472 0 2.833-.228 4.083-.688 1.25-.462 2.335-1.111 3.253-1.953a8.799 8.799 0 0 0 2.148-3.039c.517-1.182.772-2.502.772-3.95 0-1.23-.23-2.286-.687-3.169-.459-.88-1.06-1.594-1.806-2.146zm5.787 14.945h11.279l.452-2.57h-8.407l.855-4.743h7.362l.45-2.434h-7.384l.76-4.276h7.743l.45-2.522H22.812l-2.966 16.545zM59.02 15.762a6.771 6.771 0 0 1 2.136-1.685c.832-.423 1.749-.632 2.745-.632.457 0 .874.053 1.248.165.372.108.706.25 1.005.422.304.17.559.36.761.571.21.21.374.41.499.597l2.305-1.708a4.544 4.544 0 0 0-.974-1.027 6.144 6.144 0 0 0-1.343-.796 8.531 8.531 0 0 0-3.405-.702c-1.397 0-2.69.27-3.896.808a10.005 10.005 0 0 0-3.149 2.196 10.17 10.17 0 0 0-2.1 3.26c-.508 1.247-.76 2.588-.76 4.02 0 1.062.182 2.025.546 2.9.364.873.876 1.62 1.533 2.243.655.623 1.442 1.105 2.363 1.45.92.34 1.94.513 3.063.513.793 0 1.52-.078 2.184-.234a8.568 8.568 0 0 0 1.83-.644 7.637 7.637 0 0 0 2.657-2.137l-1.872-1.635c-.604.733-1.285 1.266-2.046 1.612a5.765 5.765 0 0 1-2.396.513c-.775 0-1.466-.132-2.068-.395a4.385 4.385 0 0 1-1.507-1.064 4.65 4.65 0 0 1-.927-1.568 5.728 5.728 0 0 1-.32-1.93c0-.932.165-1.842.499-2.733a7.947 7.947 0 0 1 1.39-2.38zm28.866-2.866c-.695-.615-1.53-1.09-2.506-1.425-.97-.334-2.062-.504-3.265-.504-1.394 0-2.681.27-3.87.808a9.765 9.765 0 0 0-3.088 2.182 10.125 10.125 0 0 0-2.054 3.253 10.604 10.604 0 0 0-.747 3.972c0 1.105.19 2.102.569 2.993a6.302 6.302 0 0 0 1.626 2.266c.704.624 1.556 1.1 2.552 1.426.998.325 2.115.49 3.352.49 1.395 0 2.673-.269 3.844-.807a9.577 9.577 0 0 0 3.042-2.183c.857-.922 1.524-2.002 2.008-3.249a10.98 10.98 0 0 0 .721-3.977c0-1.105-.189-2.101-.569-2.99a6.192 6.192 0 0 0-1.615-2.255zm19.738 2.771c0-1.341-.505-2.39-1.508-3.144-1.01-.757-2.435-1.132-4.287-1.132h-4.99l-2.967 16.544h2.872l1.235-7.06h2.233l3.181 7.06h3.302l-3.49-7.384c1.347-.296 2.418-.853 3.22-1.671.796-.82 1.199-1.891 1.199-3.213zm16.551-1.754l.453-2.523h-10.594l-2.968 16.545h11.281l.45-2.568h-8.407l.857-4.745h7.36l.45-2.433h-7.385l.758-4.276h7.745zm-111.11 7.289a6.383 6.383 0 0 1-1.341 2.146c-.594.629-1.336 1.133-2.222 1.503-.886.375-1.917.559-3.088.559H3.35l2.065-11.544h2.59c.947 0 1.77.128 2.456.384.69.258 1.262.603 1.712 1.038.45.438.787.949 1.01 1.54.22.593.33 1.213.33 1.868 0 .869-.149 1.706-.45 2.506zm90.496-3.294c-.696.408-1.686.61-2.967.61h-2.187l.855-4.7h2.115c.982 0 1.763.159 2.354.47.583.31.875.87.875 1.682 0 .886-.35 1.537-1.045 1.938zm-16.945 3.226a7.578 7.578 0 0 1-1.284 2.386 6.364 6.364 0 0 1-2.062 1.682c-.818.424-1.757.63-2.815.63-.826 0-1.553-.132-2.184-.395-.633-.265-1.168-.62-1.592-1.064a4.417 4.417 0 0 1-.973-1.568 5.46 5.46 0 0 1-.337-1.93c0-.932.158-1.842.467-2.734a7.864 7.864 0 0 1 1.315-2.38 6.41 6.41 0 0 1 2.082-1.684c.812-.423 1.725-.632 2.744-.632.82 0 1.55.134 2.184.398a4.655 4.655 0 0 1 1.59 1.064c.427.445.753.968.973 1.578.22.607.333 1.245.333 1.916 0 .934-.149 1.845-.44 2.733zm53.683-8.37c-.244-.312-.725-.544-1.178-.544-.526 0-1.134.249-1.134.865 0 .58.498.75 1.224.973.825.25 1.877.606 1.877 1.846 0 1.357-1.079 2.018-2.339 2.018-.834 0-1.695-.314-2.204-.902l.817-.75c.318.429.897.698 1.405.698.535 0 1.16-.26 1.16-.938 0-.66-.67-.847-1.477-1.099-.78-.24-1.624-.614-1.624-1.793 0-1.284 1.189-1.855 2.35-1.855.642 0 1.377.223 1.867.678l-.744.803zm3.014-1.32h4.253v.982h-3.11v1.605h2.947v.947h-2.946v1.784h3.273v1h-4.417zm11.246 1.48c-.335-.455-.944-.65-1.46-.65-1.325 0-2.221 1.008-2.221 2.31 0 1.374.852 2.33 2.177 2.33.688 0 1.232-.296 1.56-.733l.915.634c-.563.696-1.397 1.107-2.485 1.107-2.003 0-3.427-1.366-3.427-3.338 0-2.025 1.506-3.302 3.481-3.302.835 0 1.823.304 2.33.964l-.87.678zm7.874 2.516c0 1.527-1.115 2.481-2.584 2.481-1.47 0-2.583-.954-2.583-2.48v-3.997h1.142v3.952c0 .732.343 1.517 1.44 1.517 1.098 0 1.442-.785 1.442-1.517v-3.952h1.143v3.997zm4.519-1.276c.642 0 1.377-.151 1.377-.917 0-.69-.689-.858-1.278-.858h-1.034v1.775h.935zm-2.077-2.72h2.23c1.207 0 2.366.473 2.366 1.81 0 .91-.57 1.509-1.468 1.705l1.713 2.801h-1.377l-1.487-2.677h-.835v2.677h-1.142v-6.316zm6.785 6.316h1.143v-6.316h-1.143zm4.94-5.335h-1.969v-.982h5.078v.982h-1.966v5.336H176.6zm6.377 2.596l-2.412-3.578h1.397l1.614 2.66 1.63-2.66h1.326l-2.412 3.578v2.74h-1.143zM141.659 23.1c-.335-.456-.944-.651-1.46-.651-1.324 0-2.221 1.008-2.221 2.31 0 1.375.852 2.33 2.177 2.33.688 0 1.232-.295 1.56-.733l.914.634c-.562.696-1.396 1.107-2.484 1.107-2.003 0-3.427-1.366-3.427-3.337 0-2.026 1.506-3.302 3.481-3.302.835 0 1.823.304 2.33.964l-.87.677zm5.788 3.988c1.314 0 2.212-.982 2.212-2.328 0-1.303-.88-2.311-2.212-2.311-1.324 0-2.203 1.008-2.203 2.31 0 1.347.897 2.33 2.203 2.33m-.009-5.631c2.003 0 3.463 1.276 3.463 3.302 0 1.97-1.46 3.337-3.463 3.337-1.977 0-3.437-1.366-3.437-3.337 0-2.026 1.46-3.302 3.437-3.302m5.65.161h1.515l2.983 4.73h.017v-4.73h1.143v6.317h-1.451l-3.046-4.88h-.018v4.88h-1.143zm11.427 1.321c-.244-.313-.724-.545-1.178-.545-.526 0-1.134.249-1.134.865 0 .58.499.75 1.224.973.825.25 1.876.606 1.876 1.847 0 1.356-1.078 2.017-2.338 2.017-.833 0-1.695-.314-2.204-.902l.817-.749c.317.428.897.697 1.405.697.535 0 1.16-.26 1.16-.938 0-.66-.671-.847-1.478-1.097-.78-.24-1.622-.615-1.622-1.795 0-1.284 1.188-1.855 2.35-1.855.642 0 1.377.223 1.866.678l-.744.803zm8.128 2.677c0 1.525-1.115 2.48-2.584 2.48s-2.584-.955-2.584-2.48v-3.998h1.143v3.953c0 .731.344 1.516 1.441 1.516 1.098 0 1.441-.785 1.441-1.516v-3.953h1.143v3.998zm2.442-3.998h1.144v5.318h2.728v1h-3.872zm6.234.981h-1.969v-.982h5.078v.982h-1.966v5.336h-1.143zm4.935 5.337h1.142v-6.318h-1.142zm3.643-6.318h1.515l2.983 4.73h.019v-4.73h1.141v6.317h-1.45l-3.047-4.88h-.018v4.88h-1.143zm13.774 5.988c-.642.303-1.414.49-2.42.49-2.067 0-3.509-1.366-3.509-3.337 0-2.027 1.506-3.302 3.482-3.302 1.016 0 1.922.32 2.439.794l-.79.838c-.325-.357-.951-.642-1.64-.642-1.351 0-2.23 1.008-2.23 2.312 0 1.347.87 2.329 2.285 2.329.48 0 .906-.073 1.277-.224V25.26h-1.35v-.93h2.456v3.277z" fill="#53565A"/></g></svg>