<svg xmlns="http://www.w3.org/2000/svg" xmlns:xlink="http://www.w3.org/1999/xlink" width="364" height="124" viewBox="0 0 364 124">
  <defs>
    <rect id="seal-a" width="364" height="124"/>
    <rect id="seal-c" width="360" height="120" x="2" y="2"/>
    <polygon id="seal-d" points="0 18.013 0 .365 16.876 .365 16.876 18.013 0 18.013"/>
    <polygon id="seal-f" points="0 30.769 207.665 30.769 207.665 .687 0 .687"/>
    <polygon id="seal-h" points="0 30.769 207.665 30.769 207.665 .687 0 .687"/>
    <polygon id="seal-j" points="0 30.769 207.665 30.769 207.665 .687 0 .687"/>
    <polygon id="seal-l" points="0 30.769 207.665 30.769 207.665 .687 0 .687"/>
    <polygon id="seal-n" points="0 30.769 207.665 30.769 207.665 .687 0 .687"/>
    <polygon id="seal-p" points="0 30.769 207.665 30.769 207.665 .687 0 .687"/>
    <polygon id="seal-r" points="0 30.769 207.665 30.769 207.665 .687 0 .687"/>
    <polygon id="seal-t" points="0 30.769 207.665 30.769 207.665 .687 0 .687"/>
    <polygon id="seal-v" points="0 30.769 207.665 30.769 207.665 .687 0 .687"/>
    <polygon id="seal-x" points="0 30.769 207.665 30.769 207.665 .687 0 .687"/>
    <polygon id="seal-z" points="0 30.769 207.665 30.769 207.665 .687 0 .687"/>
    <polygon id="seal-B" points="0 30.769 207.665 30.769 207.665 .687 0 .687"/>
    <polygon id="seal-D" points="0 30.769 207.665 30.769 207.665 .687 0 .687"/>
  </defs>
  <g fill="none" fill-rule="evenodd">
    <rect width="360" height="120" fill="#FFF" transform="translate(2 2)"/>
    <mask id="seal-b" fill="#fff">
      <use xlink:href="#seal-a"/>
    </mask>
    <rect width="360" height="120" x="2" y="2" stroke="#000" stroke-opacity=".05" stroke-width="4" mask="url(#seal-b)"/>
    <g opacity=".653" transform="translate(8 80)">
      <polygon fill="#060200" fill-rule="nonzero" points="37.84 13.216 40.622 30.865 43.386 30.865 40.987 13.216"/>
      <polygon fill="#060200" fill-rule="nonzero" points="57.292 1.231 44.131 24.609 44.669 28.565 60.657 1.231"/>
      <g transform="translate(0 .544)">
        <g transform="translate(0 12.308)">
          <mask id="seal-e" fill="#fff">
            <use xlink:href="#seal-d"/>
          </mask>
          <path fill="#020000" fill-rule="nonzero" d="M13.3200092,10.8290462 C13.0127908,11.6844308 12.5585379,12.4438154 11.952469,13.1182769 C11.3475954,13.7902769 10.5909057,14.3281231 9.6871816,14.7219692 C8.78345748,15.1232 7.73269886,15.3188923 6.53849196,15.3188923 L3.41610114,15.3188923 L5.5212046,3.00504616 L8.16184828,3.00504616 C9.12773334,3.00504616 9.96571034,3.14043076 10.6662161,3.4148923 C11.3691126,3.69058462 11.952469,4.05858462 12.4115034,4.52135384 C12.8705379,4.98781538 13.2136184,5.53427692 13.4407448,6.16443076 C13.6666759,6.79704616 13.7778483,7.4592 13.7778483,8.15704616 C13.7778483,9.08258462 13.6260322,9.97735384 13.3200092,10.8290462 M14.3349057,2.07212308 C13.5782161,1.48135385 12.722308,1.04689231 11.7695724,0.774892308 C10.8168368,0.50043077 9.85812414,0.365046154 8.88745748,0.365046154 L3.0275954,0.365046154 L-0.00035862069,18.0130462 L6.41895172,18.0130462 C7.92037702,18.0130462 9.30823908,17.7705846 10.5825379,17.2795077 C11.8568368,16.7872 12.9637793,16.0942769 13.8997793,15.1945846 C14.8369747,14.2973538 15.5661701,13.2192 16.0897563,11.9552 C16.6169287,10.6936615 16.876331,9.28566154 16.876331,7.74104616 C16.876331,6.42904616 16.6420322,5.3028923 16.1758253,4.36135384 C15.708423,3.42227692 15.0951816,2.66043076 14.3349057,2.07212308" mask="url(#seal-e)"/>
        </g>
        <polygon fill="#020000" fill-rule="nonzero" points="20.236 30.321 31.736 30.321 32.197 27.58 23.625 27.58 24.497 22.519 32.004 22.519 32.462 19.924 24.933 19.924 25.708 15.363 33.603 15.363 34.061 12.673 23.261 12.673"/>
        <path fill="#020000" fill-rule="nonzero" d="M60.1765518 17.3337846C60.7826206 16.5830154 61.5094252 15.9860923 62.3545748 15.5380923 63.202115 15.0864 64.1369196 14.8636308 65.1530114 14.8636308 65.6192184 14.8636308 66.0435862 14.9202462 66.4249196 15.0384 66.8050574 15.1540923 67.1457472 15.3067077 67.4505748 15.4900923 67.760184 15.6710154 68.0195862 15.8728615 68.2263908 16.0993231 68.4403678 16.3220923 68.6077242 16.5362462 68.7344368 16.7344L71.0845978 14.9140923C70.8287816 14.5153231 70.4964598 14.1510154 70.0924138 13.8187077 69.6895632 13.4864 69.234115 13.2033231 68.7224828 12.9694769 68.2156322 12.7368615 67.668138 12.5534769 67.0764138 12.4193231 66.4882758 12.2888615 65.879816 12.2199385 65.2510344 12.2199385 63.826115 12.2199385 62.5075862 12.5091692 61.2787126 13.0814769 60.0522298 13.6550154 58.9811494 14.4365538 58.067862 15.4248615 57.1557702 16.4131692 56.442115 17.5737846 55.9257012 18.9017846 55.408092 20.2322462 55.1510804 21.6611692 55.1510804 23.1910154 55.1510804 24.3220924 55.3375632 25.3497846 55.708138 26.2827076 56.079908 27.2144 56.6011034 28.0107076 57.2717242 28.675323 57.9387586 29.3411692 58.742069 29.8544 59.6804598 30.2236308 60.6188506 30.585477 61.6588506 30.7688616 62.804046 30.7688616 63.612138 30.7688616 64.3532874 30.6864 65.0310804 30.5202462 65.7088736 30.3528616 66.3292874 30.1251692 66.8971034 29.833477 67.460138 29.545477 67.968184 29.2045538 68.4224368 28.8119384 68.8731034 28.4230154 69.2675862 28.0045538 69.605885 27.5528616L67.6968276 25.8100924C67.0811954 26.5904 66.3866666 27.1602462 65.6108506 27.529477 64.8350344 27.8950154 64.022161 28.0759384 63.1674482 28.0759384 62.3772874 28.0759384 61.6731954 27.9356308 61.0587586 27.6537846 60.4455172 27.3719384 59.933885 26.995323 59.5226666 26.5190154 59.1114482 26.0439384 58.7970574 25.4888616 58.5771034 24.8464 58.3607356 24.2088616 58.251954 23.523323 58.251954 22.7897846 58.251954 21.795323 58.4193104 20.8242462 58.76 19.8728615 59.0971034 18.9288615 59.5716782 18.0784 60.1765518 17.3337846M88.3134528 23.065723C88.0134068 24.0134154 87.5782804 24.8626462 87.0044874 25.6109538 86.433085 26.3568 85.7289932 26.9561846 84.9017748 27.4041846 84.067384 27.855877 83.1098666 28.0749538 82.0316138 28.0749538 81.1888552 28.0749538 80.4477058 27.935877 79.8045794 27.6540308 79.159062 27.3721846 78.6139586 26.9943384 78.181223 26.5192616 77.7425104 26.0441846 77.4137748 25.4891076 77.189039 24.8466462 76.9607172 24.2091076 76.8459586 23.5235692 76.8459586 22.7888 76.8459586 21.7955692 77.007338 20.8244924 77.3217288 19.8731077 77.6361196 18.9291077 78.0855908 18.0786462 78.6629702 17.3340308 79.245131 16.5820308 79.9516138 15.9863385 80.7860046 15.5371077 81.613223 15.0866462 82.5444414 14.8638769 83.583246 14.8638769 84.4200276 14.8638769 85.1635678 15.0066462 85.8102804 15.2884923 86.4557978 15.5703385 86.9949242 15.9469538 87.431246 16.4232615 87.8663724 16.8971077 88.1986942 17.4558769 88.4234298 18.1069538 88.6481656 18.7543385 88.7629242 19.4337231 88.7629242 20.1500308 88.7629242 21.1469538 88.611108 22.1180308 88.3134528 23.065723M89.6080736 14.2780308C88.8992 13.6220308 88.0480736 13.1149538 87.0534988 12.7580308 86.0637058 12.4011077 84.9507862 12.2201846 83.7243034 12.2201846 82.3029702 12.2201846 80.9904184 12.5081846 79.7782804 13.0817231 78.567338 13.6552615 77.5177748 14.4331077 76.6295908 15.4103385 75.7402114 16.3924923 75.0420966 17.5481846 74.535246 18.8786462 74.0272 20.2091076 73.7737748 21.6220308 73.7737748 23.1161846 73.7737748 24.2952616 73.9674298 25.3574154 74.3535448 26.3088 74.7396598 27.2552616 75.2967172 28.0614154 76.0115678 28.7260308 76.7300046 29.391877 77.5978666 29.8989538 78.6139586 30.2460308 79.631246 30.5943384 80.7704644 30.7691076 82.0316138 30.7691076 83.4541426 30.7691076 84.757131 30.4835692 85.951338 29.9088 87.1455448 29.3352616 88.1783724 28.559877 89.0522114 27.5801846 89.9260506 26.5968 90.6062344 25.4448 91.0999356 24.1143384 91.5900506 22.783877 91.835108 21.369723 91.835108 19.8731077 91.835108 18.6940308 91.6426482 17.6318769 91.255338 16.6829538 90.869223 15.7364923 90.3217288 14.9352615 89.6080736 14.2780308M105.59132 19.6235077C104.881251 20.0579692 103.872331 20.2733538 102.564561 20.2733538L100.335136 20.2733538 101.206584 15.2616615 103.364285 15.2616615C104.364837 15.2616615 105.160975 15.4302769 105.764653 15.7638154 106.358768 16.0924308 106.655228 16.6893538 106.655228 17.5570462 106.655228 18.5010462 106.300193 19.1964308 105.59132 19.6235077M109.733389 17.2333538C109.733389 15.8019692 109.219366 14.6856615 108.196101 13.8807385 107.165664 13.0733538 105.712055 12.6721231 103.82571 12.6721231L98.7380782 12.6721231 95.7113196 30.320123 98.6400552 30.320123 99.9000092 22.7890462 102.176055 22.7890462 105.420377 30.320123 108.78663 30.320123 105.226722 22.4419692C106.600239 22.1268924 107.694032 21.5336616 108.509297 20.6610462 109.323366 19.7872 109.733389 18.6438154 109.733389 17.2333538"/>
        <polygon fill="#020000" fill-rule="nonzero" points="126.609 15.363 127.07 12.672 116.269 12.672 113.243 30.32 124.745 30.32 125.204 27.58 116.632 27.58 117.506 22.518 125.011 22.518 125.47 19.924 117.939 19.924 118.712 15.363"/>
        <path fill="#020000" fill-rule="nonzero" d="M143.050326,14.1372308 C142.800487,13.8036923 142.311568,13.5563077 141.847752,13.5563077 C141.313407,13.5563077 140.691798,13.8221538 140.691798,14.4793846 C140.691798,15.0984615 141.201039,15.2793846 141.940993,15.5169231 C142.781361,15.784 143.853637,16.1630769 143.853637,17.4861538 C143.853637,18.9335385 142.753867,19.6387692 141.470005,19.6387692 C140.620074,19.6387692 139.740257,19.3052308 139.222648,18.6763077 L140.054648,17.8775385 C140.378602,18.3353846 140.970326,18.6196923 141.48674,18.6196923 C142.033039,18.6196923 142.671384,18.3427692 142.671384,17.6215385 C142.671384,16.9163077 141.986418,16.7156923 141.163982,16.4486154 C140.369039,16.1926154 139.509545,15.7926154 139.509545,14.536 C139.509545,13.1661538 140.721683,12.5569231 141.903936,12.5569231 C142.560211,12.5569231 143.309729,12.7944615 143.808211,13.2806154 L143.050326,14.1372308 Z"/>
        <polygon fill="#020000" fill-rule="nonzero" points="146.124 12.729 150.459 12.729 150.459 13.776 147.288 13.776 147.288 15.489 150.294 15.489 150.294 16.497 147.288 16.497 147.288 18.401 150.626 18.401 150.626 19.467 146.124 19.467"/>
        <path fill="#020000" fill-rule="nonzero" d="M157.589048 14.3079385C157.248359 13.8217846 156.627945 13.6137846 156.101968 13.6137846 154.751163 13.6137846 153.83668 14.6894769 153.83668 16.0790154 153.83668 17.5436308 154.705738 18.5627077 156.056543 18.5627077 156.758244 18.5627077 157.31291 18.2488615 157.645232 17.7824L158.578841 18.4580923C158.006244 19.2002462 157.156313 19.6396308 156.046979 19.6396308 154.002841 19.6396308 152.551623 18.1811692 152.551623 16.0790154 152.551623 13.9177846 154.08652 12.5565538 156.101968 12.5565538 156.953094 12.5565538 157.959623 12.8802462 158.477232 13.5854769L157.589048 14.3079385zM165.618326 16.9924923C165.618326 18.6195692 164.481499 19.6386462 162.982464 19.6386462 161.485821 19.6386462 160.348993 18.6195692 160.348993 16.9924923L160.348993 12.7291077 161.513315 12.7291077 161.513315 16.9444923C161.513315 17.7260308 161.864763 18.5617231 162.982464 18.5617231 164.101361 18.5617231 164.452809 17.7260308 164.452809 16.9444923L164.452809 12.7291077 165.618326 12.7291077 165.618326 16.9924923zM170.224809 15.6306462C170.881085 15.6306462 171.630602 15.4694154 171.630602 14.6509538 171.630602 13.9174154 170.927706 13.7377231 170.326418 13.7377231L169.272074 13.7377231 169.272074 15.6306462 170.224809 15.6306462zM168.107752 12.7284923L170.381407 12.7284923C171.611476 12.7284923 172.794924 13.2331077 172.794924 14.6608 172.794924 15.6306462 172.212763 16.2681846 171.297085 16.4786462L173.043568 19.4669538 171.640166 19.4669538 170.1232 16.6115692 169.272074 16.6115692 169.272074 19.4669538 168.107752 19.4669538 168.107752 12.7284923z"/>
        <mask id="seal-g" fill="#fff">
          <use xlink:href="#seal-f"/>
        </mask>
        <polygon fill="#020000" fill-rule="nonzero" points="175.025 19.467 176.19 19.467 176.19 12.729 175.025 12.729" mask="url(#seal-g)"/>
        <mask id="seal-i" fill="#fff">
          <use xlink:href="#seal-h"/>
        </mask>
        <polygon fill="#020000" fill-rule="nonzero" points="180.062 13.776 178.055 13.776 178.055 12.728 183.233 12.728 183.233 13.776 181.228 13.776 181.228 19.468 180.062 19.468" mask="url(#seal-i)"/>
        <mask id="seal-k" fill="#fff">
          <use xlink:href="#seal-j"/>
        </mask>
        <polygon fill="#020000" fill-rule="nonzero" points="186.565 16.544 184.106 12.729 185.531 12.729 187.175 15.566 188.838 12.729 190.188 12.729 187.73 16.544 187.73 19.467 186.565 19.467" mask="url(#seal-k)"/>
        <mask id="seal-m" fill="#fff">
          <use xlink:href="#seal-l"/>
        </mask>
        <path fill="#020000" fill-rule="nonzero" d="M144.436037,25.1619692 C144.095347,24.6758154 143.474933,24.4678154 142.948956,24.4678154 C141.598152,24.4678154 140.682474,25.5435076 140.682474,26.9318154 C140.682474,28.3976616 141.552726,29.4167384 142.902336,29.4167384 C143.605232,29.4167384 144.159899,29.1028924 144.492221,28.6352 L145.42583,29.312123 C144.853232,30.054277 144.003301,30.4924308 142.893968,30.4924308 C140.84983,30.4924308 139.398611,29.0352 139.398611,26.9318154 C139.398611,24.7718154 140.933508,23.4105846 142.948956,23.4105846 C143.800083,23.4105846 144.806611,23.734277 145.324221,24.438277 L144.436037,25.1619692 Z" mask="url(#seal-m)"/>
        <mask id="seal-o" fill="#fff">
          <use xlink:href="#seal-n"/>
        </mask>
        <path fill="#020000" fill-rule="nonzero" d="M150.338336,29.4167384 C151.677186,29.4167384 152.59406,28.3693538 152.59406,26.9318154 C152.59406,25.5435076 151.697508,24.4678154 150.338336,24.4678154 C148.987531,24.4678154 148.090979,25.5435076 148.090979,26.9318154 C148.090979,28.3693538 149.006657,29.4167384 150.338336,29.4167384 M150.328772,23.4105846 C152.37052,23.4105846 153.858795,24.7718154 153.858795,26.9318154 C153.858795,29.0352 152.37052,30.4924308 150.328772,30.4924308 C148.313324,30.4924308 146.825048,29.0352 146.825048,26.9318154 C146.825048,24.7718154 148.313324,23.4105846 150.328772,23.4105846" mask="url(#seal-o)"/>
        <g>
          <mask id="seal-q" fill="#fff">
            <use xlink:href="#seal-p"/>
          </mask>
          <polygon fill="#020000" fill-rule="nonzero" points="156.09 23.583 157.634 23.583 160.676 28.626 160.695 28.626 160.695 23.583 161.859 23.583 161.859 30.321 160.38 30.321 157.272 25.115 157.256 25.115 157.256 30.321 156.09 30.321" mask="url(#seal-q)"/>
        </g>
        <g>
          <mask id="seal-s" fill="#fff">
            <use xlink:href="#seal-r"/>
          </mask>
          <path fill="#020000" fill-rule="nonzero" d="M167.740524,24.9912616 C167.49188,24.657723 167.001766,24.4103384 166.539145,24.4103384 C166.003605,24.4103384 165.383191,24.6761846 165.383191,25.3334154 C165.383191,25.9512616 165.891237,26.1334154 166.631191,26.3709538 C167.471559,26.6380308 168.54503,27.0171076 168.54503,28.3414154 C168.54503,29.7875692 167.44526,30.4928 166.160202,30.4928 C165.310271,30.4928 164.431651,30.1580308 163.914041,29.5303384 L164.746041,28.7303384 C165.069995,29.1881846 165.66172,29.4749538 166.178133,29.4749538 C166.724432,29.4749538 167.362777,29.1980308 167.362777,28.4743384 C167.362777,27.7703384 166.676616,27.5709538 165.855375,27.303877 C165.060432,27.0466462 164.199743,26.647877 164.199743,25.3900308 C164.199743,24.0201846 165.41188,23.4109538 166.595329,23.4109538 C167.251605,23.4109538 167.999926,23.6484924 168.499605,24.1346462 L167.740524,24.9912616 Z" mask="url(#seal-s)"/>
        </g>
        <g>
          <mask id="seal-u" fill="#fff">
            <use xlink:href="#seal-t"/>
          </mask>
          <path fill="#020000" fill-rule="nonzero" d="M176.02789,27.8470154 C176.02789,29.4740924 174.892257,30.4919384 173.393223,30.4919384 C171.896579,30.4919384 170.759752,29.4740924 170.759752,27.8470154 L170.759752,23.5824 L171.924074,23.5824 L171.924074,27.7990154 C171.924074,28.579323 172.275522,29.4162462 173.393223,29.4162462 C174.51212,29.4162462 174.863568,28.579323 174.863568,27.7990154 L174.863568,23.5824 L176.02789,23.5824 L176.02789,27.8470154 Z" mask="url(#seal-u)"/>
        </g>
        <g>
          <mask id="seal-w" fill="#fff">
            <use xlink:href="#seal-v"/>
          </mask>
          <polygon fill="#020000" fill-rule="nonzero" points="178.518 23.583 179.683 23.583 179.683 29.255 182.466 29.255 182.466 30.321 178.518 30.321" mask="url(#seal-w)"/>
        </g>
        <g>
          <mask id="seal-y" fill="#fff">
            <use xlink:href="#seal-x"/>
          </mask>
          <polygon fill="#020000" fill-rule="nonzero" points="184.874 24.629 182.867 24.629 182.867 23.582 188.044 23.582 188.044 24.629 186.04 24.629 186.04 30.32 184.874 30.32" mask="url(#seal-y)"/>
        </g>
        <g>
          <mask id="seal-A" fill="#fff">
            <use xlink:href="#seal-z"/>
          </mask>
          <polygon fill="#020000" fill-rule="nonzero" points="189.906 30.321 191.072 30.321 191.072 23.583 189.906 23.583" mask="url(#seal-A)"/>
        </g>
        <g>
          <mask id="seal-C" fill="#fff">
            <use xlink:href="#seal-B"/>
          </mask>
          <polygon fill="#020000" fill-rule="nonzero" points="193.62 23.583 195.165 23.583 198.207 28.626 198.225 28.626 198.225 23.583 199.389 23.583 199.389 30.321 197.911 30.321 194.804 25.115 194.786 25.115 194.786 30.321 193.62 30.321" mask="url(#seal-C)"/>
        </g>
        <g>
          <mask id="seal-E" fill="#fff">
            <use xlink:href="#seal-D"/>
          </mask>
          <path fill="#020000" fill-rule="nonzero" d="M207.665168,29.9696 C207.008892,30.2932924 206.223512,30.492677 205.196662,30.492677 C203.089168,30.492677 201.618822,29.0354462 201.618822,26.9320616 C201.618822,24.7708308 203.154914,23.4108308 205.169168,23.4108308 C206.204386,23.4108308 207.129628,23.7529846 207.655604,24.2576 L206.851098,25.1523692 C206.518778,24.7708308 205.880432,24.4668308 205.178732,24.4668308 C203.801628,24.4668308 202.905076,25.542523 202.905076,26.9320616 C202.905076,28.3696 203.792064,29.4169846 205.234914,29.4169846 C205.723834,29.4169846 206.157766,29.3394462 206.537904,29.1782154 L206.537904,27.4662154 L205.159604,27.4662154 L205.159604,26.4754462 L207.665168,26.4754462 L207.665168,29.9696 Z" mask="url(#seal-E)"/>
        </g>
      </g>
    </g>
    <rect width="360" height="80" x="2" y="2" fill="#53565A" fill-rule="nonzero"/>
    <g fill-rule="nonzero" transform="translate(2 2)">
      <rect width="96" height="80" fill="#44D62C"/>
      <path fill="#FFF" d="M25.3333334,28.7994816 L33.4333352,28.7994816 L39.6122214,72 L32.4998778,72 L25.3333334,28.7994816 Z M73.1046984,0 L81.3333334,0 L42.229441,65.3767846 L40.9137746,55.915871 L73.1046984,0 Z"/>
    </g>
    <path fill="#44D62C" fill-rule="nonzero" d="M260.960938,99.9765624 L260.960938,100.011719 L263.445312,100.011719 L263.445312,99.9765624 C263.445312,98.171875 264.699218,96.953125 266.5625,96.953125 C268.308594,96.953125 269.632812,98.1132812 269.632812,99.6601562 C269.632812,100.902344 269.082032,101.792969 266.820312,104.148438 L261.101562,110.101562 L261.101562,112 L272.492188,112 L272.492188,109.644531 L264.757812,109.644531 L264.757812,109.445312 L268.519532,105.636719 C271.355468,102.765625 272.222656,101.300781 272.222656,99.5078124 C272.222656,96.71875 269.855468,94.6796876 266.644532,94.6796876 C263.316406,94.6796876 260.960938,96.859375 260.960938,99.9765624 Z M281.914062,112.410156 C277.964844,112.410156 275.65625,109.152344 275.65625,103.527344 C275.65625,97.9375 277.988282,94.6796876 281.914062,94.6796876 C285.816406,94.6796876 288.148438,97.9492188 288.148438,103.550781 C288.148438,109.164062 285.851562,112.410156 281.914062,112.410156 Z M281.914062,110.113281 C284.210938,110.113281 285.5,107.816406 285.5,103.527344 C285.5,99.2851562 284.1875,96.9765624 281.914062,96.9765624 C279.640624,96.9765624 278.304688,99.296875 278.304688,103.527344 C278.304688,107.804688 279.617188,110.113281 281.914062,110.113281 Z M295.578124,112 L298.203124,112 L298.203124,95.0898438 L295.589844,95.0898438 L291.136718,98.2304688 L291.136718,100.914062 L295.378906,97.9140624 L295.578124,97.9140624 L295.578124,112 Z M303.828124,112 L306.582032,112 L313.941406,97.46875 L313.941406,95.0898438 L302.421876,95.0898438 L302.421876,97.421875 L311.28125,97.421875 L311.28125,97.609375 L303.828124,112 Z M319.050782,112.199219 C320.046876,112.199219 320.773438,111.4375 320.773438,110.453125 C320.773438,109.46875 320.046876,108.707031 319.050782,108.707031 C318.066406,108.707031 317.328124,109.46875 317.328124,110.453125 C317.328124,111.4375 318.066406,112.199219 319.050782,112.199219 Z M330.628906,112.410156 C326.679688,112.410156 324.371094,109.152344 324.371094,103.527344 C324.371094,97.9375 326.703124,94.6796876 330.628906,94.6796876 C334.53125,94.6796876 336.863282,97.9492188 336.863282,103.550781 C336.863282,109.164062 334.566406,112.410156 330.628906,112.410156 Z M330.628906,110.113281 C332.925782,110.113281 334.214844,107.816406 334.214844,103.527344 C334.214844,99.2851562 332.902344,96.9765624 330.628906,96.9765624 C328.355468,96.9765624 327.019532,99.296875 327.019532,103.527344 C327.019532,107.804688 328.332032,110.113281 330.628906,110.113281 Z M344.292968,112 L346.917968,112 L346.917968,95.0898438 L344.304688,95.0898438 L339.851562,98.2304688 L339.851562,100.914062 L344.09375,97.9140624 L344.292968,97.9140624 L344.292968,112 Z"/>
    <path fill="#FFF" fill-rule="nonzero" d="M123.992188,19.0898438 L131.398438,19.0898438 C135.03125,19.0898438 137.492188,21.4570312 137.492188,25.0898438 C137.492188,28.6875 134.902344,31.0429688 131.140625,31.0429688 L128.292969,31.0429688 L128.292969,36 L123.992188,36 L123.992188,19.0898438 Z M128.292969,22.3945312 L128.292969,27.796875 L130.238281,27.796875 C132.066406,27.796875 133.144531,26.859375 133.144531,25.1015624 C133.144531,23.3203124 132.078125,22.3945312 130.261719,22.3945312 L128.292969,22.3945312 Z M146.140625,25.59375 C144.78125,25.59375 143.832031,26.5429688 143.726562,28.0195312 L148.460938,28.0195312 C148.390625,26.4960938 147.523438,25.59375 146.140625,25.59375 Z M148.613281,32.15625 L152.398438,32.15625 C151.941406,34.6992188 149.550781,36.3046876 146.175781,36.3046876 C142.015625,36.3046876 139.625,33.84375 139.625,29.5664062 C139.625,25.265625 142.074219,22.6523438 146.117188,22.6523438 C150.136719,22.6523438 152.480469,25.0898438 152.480469,29.25 L152.480469,30.3984376 L143.703125,30.3984376 L143.703125,30.609375 C143.738281,32.3085938 144.710938,33.3632812 146.292969,33.3632812 C147.5,33.3632812 148.332031,32.9179688 148.613281,32.15625 Z M155.058594,36 L159.195312,36 L159.195312,28.546875 C159.195312,27.046875 160.003906,26.0390624 161.351562,26.0390624 C162.757812,26.0390624 163.402344,26.9179688 163.402344,28.5 L163.402344,36 L167.550781,36 L167.550781,27.5742188 C167.550781,24.4453124 166.039062,22.6523438 163.132812,22.6523438 C161.246094,22.6523438 159.886719,23.6015624 159.3125,25.078125 L159.089844,25.078125 L159.089844,22.9570312 L155.058594,22.9570312 L155.058594,36 Z M176.539062,25.59375 C175.179688,25.59375 174.230469,26.5429688 174.125,28.0195312 L178.859375,28.0195312 C178.789062,26.4960938 177.921875,25.59375 176.539062,25.59375 Z M179.011719,32.15625 L182.796875,32.15625 C182.339844,34.6992188 179.949219,36.3046876 176.574219,36.3046876 C172.414062,36.3046876 170.023438,33.84375 170.023438,29.5664062 C170.023438,25.265625 172.472656,22.6523438 176.515625,22.6523438 C180.535156,22.6523438 182.878906,25.0898438 182.878906,29.25 L182.878906,30.3984376 L174.101562,30.3984376 L174.101562,30.609375 C174.136719,32.3085938 175.109375,33.3632812 176.691406,33.3632812 C177.898438,33.3632812 178.730469,32.9179688 179.011719,32.15625 Z M186.488281,19.96875 L186.488281,23.1328124 L184.484375,23.1328124 L184.484375,26.2148438 L186.488281,26.2148438 L186.488281,32.4257812 C186.488281,34.9804688 187.835938,36.0234376 191.269531,36.0234376 C192.054688,36.0234376 192.816406,35.953125 193.25,35.859375 L193.25,32.90625 C192.945312,32.9414062 192.6875,32.9648438 192.207031,32.9648438 C191.128906,32.9648438 190.625,32.484375 190.625,31.5 L190.625,26.2148438 L193.25,26.2148438 L193.25,23.1328124 L190.625,23.1328124 L190.625,19.96875 L186.488281,19.96875 Z M195.980469,36 L200.117188,36 L200.117188,29.0976562 C200.117188,27.28125 201.335938,26.25 203.164062,26.25 C203.796876,26.25 204.628906,26.3554688 204.945312,26.484375 L204.945312,22.9570312 C204.640624,22.828125 203.996094,22.7578124 203.445312,22.7578124 C201.816406,22.7578124 200.550782,23.7890624 200.234376,25.1015624 L200.011718,25.1015624 L200.011718,22.9570312 L195.980469,22.9570312 L195.980469,36 Z M212.175782,33.3046876 C213.488282,33.3046876 214.507812,32.4375 214.507812,31.3125 L214.507812,30.4570312 L212.316406,30.5976562 C211.085938,30.6914062 210.441406,31.171875 210.441406,31.9570312 C210.441406,32.7890624 211.132812,33.3046876 212.175782,33.3046876 Z M210.664062,36.1992188 C208.15625,36.1992188 206.445312,34.640625 206.445312,32.25 C206.445312,29.8710938 208.296876,28.4882812 211.660156,28.2890624 L214.507812,28.125 L214.507812,27.1054688 C214.507812,26.2265624 213.851562,25.6992188 212.703124,25.6992188 C211.613282,25.6992188 210.910156,26.0625 210.640624,26.7539062 L206.914062,26.7539062 C207.101562,24.2226562 209.410156,22.6523438 212.9375,22.6523438 C216.535156,22.6523438 218.585938,24.2929688 218.585938,27.1054688 L218.585938,36 L214.554688,36 L214.554688,34.3828124 L214.332032,34.3828124 C213.746094,35.4960938 212.316406,36.1992188 210.664062,36.1992188 Z M222.769532,19.96875 L222.769532,23.1328124 L220.765624,23.1328124 L220.765624,26.2148438 L222.769532,26.2148438 L222.769532,32.4257812 C222.769532,34.9804688 224.117188,36.0234376 227.550782,36.0234376 C228.335938,36.0234376 229.097656,35.953125 229.53125,35.859375 L229.53125,32.90625 C229.226562,32.9414062 228.96875,32.9648438 228.488282,32.9648438 C227.410156,32.9648438 226.90625,32.484375 226.90625,31.5 L226.90625,26.2148438 L229.53125,26.2148438 L229.53125,23.1328124 L226.90625,23.1328124 L226.90625,19.96875 L222.769532,19.96875 Z M232.261718,36 L236.410156,36 L236.410156,22.9570312 L232.261718,22.9570312 L232.261718,36 Z M234.335938,21.4453124 C235.800782,21.4453124 236.679688,20.7070312 236.679688,19.6054688 C236.679688,18.4921875 235.800782,17.7539062 234.335938,17.7539062 C232.882812,17.7539062 232.003906,18.4921875 232.003906,19.6054688 C232.003906,20.7070312 232.882812,21.4453124 234.335938,21.4453124 Z M245.65625,36.3046876 C241.484376,36.3046876 239.011718,33.7617188 239.011718,29.4726562 C239.011718,25.2539062 241.554688,22.6523438 245.65625,22.6523438 C249.78125,22.6523438 252.300782,25.2304688 252.300782,29.4726562 C252.300782,33.7734376 249.839844,36.3046876 245.65625,36.3046876 Z M245.65625,33.140625 C247.179688,33.140625 248.046876,31.7929688 248.046876,29.4726562 C248.046876,27.1992188 247.15625,25.8164062 245.65625,25.8164062 C244.15625,25.8164062 243.265624,27.1992188 243.265624,29.4726562 C243.265624,31.8046876 244.132812,33.140625 245.65625,33.140625 Z M254.890624,36 L259.027344,36 L259.027344,28.546875 C259.027344,27.046875 259.835938,26.0390624 261.183594,26.0390624 C262.589844,26.0390624 263.234376,26.9179688 263.234376,28.5 L263.234376,36 L267.382812,36 L267.382812,27.5742188 C267.382812,24.4453124 265.871094,22.6523438 262.964844,22.6523438 C261.078124,22.6523438 259.71875,23.6015624 259.144532,25.078125 L258.921876,25.078125 L258.921876,22.9570312 L254.890624,22.9570312 L254.890624,36 Z M284.996094,36 L284.996094,22.546875 L289.882812,22.546875 L289.882812,19.0898438 L275.832032,19.0898438 L275.832032,22.546875 L280.707032,22.546875 L280.707032,36 L284.996094,36 Z M296.4375,25.59375 C295.078124,25.59375 294.128906,26.5429688 294.023438,28.0195312 L298.757812,28.0195312 C298.6875,26.4960938 297.820312,25.59375 296.4375,25.59375 Z M298.910156,32.15625 L302.695312,32.15625 C302.238282,34.6992188 299.847656,36.3046876 296.472656,36.3046876 C292.3125,36.3046876 289.921876,33.84375 289.921876,29.5664062 C289.921876,25.265625 292.371094,22.6523438 296.414062,22.6523438 C300.433594,22.6523438 302.777344,25.0898438 302.777344,29.25 L302.777344,30.3984376 L294,30.3984376 L294,30.609375 C294.035156,32.3085938 295.007812,33.3632812 296.589844,33.3632812 C297.796876,33.3632812 298.628906,32.9179688 298.910156,32.15625 Z M305.0625,26.8828124 C305.0625,28.9335938 306.339844,30.2109376 308.929688,30.7617188 L311.355468,31.2773438 C312.398438,31.5 312.785156,31.7929688 312.785156,32.34375 C312.785156,33.046875 312.046876,33.5039062 310.910156,33.5039062 C309.691406,33.5039062 308.953124,33.0703124 308.742188,32.2617188 L304.746094,32.2617188 C304.980468,34.8867188 307.113282,36.3046876 310.851562,36.3046876 C314.496094,36.3046876 316.875,34.5703124 316.875,31.8632812 C316.875,29.8828124 315.761718,28.8164062 313.195312,28.2773438 L310.5,27.7265624 C309.46875,27.5039062 309,27.1757812 309,26.625 C309,25.921875 309.75,25.453125 310.828124,25.453125 C311.953124,25.453125 312.644532,25.9101562 312.761718,26.671875 L316.535156,26.671875 C316.382812,24.046875 314.402344,22.6523438 310.792968,22.6523438 C307.277344,22.6523438 305.0625,24.2929688 305.0625,26.8828124 Z M320.519532,19.96875 L320.519532,23.1328124 L318.515624,23.1328124 L318.515624,26.2148438 L320.519532,26.2148438 L320.519532,32.4257812 C320.519532,34.9804688 321.867188,36.0234376 325.300782,36.0234376 C326.085938,36.0234376 326.847656,35.953125 327.28125,35.859375 L327.28125,32.90625 C326.976562,32.9414062 326.71875,32.9648438 326.238282,32.9648438 C325.160156,32.9648438 324.65625,32.484375 324.65625,31.5 L324.65625,26.2148438 L327.28125,26.2148438 L327.28125,23.1328124 L324.65625,23.1328124 L324.65625,19.96875 L320.519532,19.96875 Z M131.375,64.4570312 C135.710938,64.4570312 138.851562,61.7265624 138.992188,57.859375 L134.867188,57.859375 C134.621094,59.6757812 133.238281,60.8710938 131.386719,60.8710938 C129.019531,60.8710938 127.578125,58.8320312 127.578125,55.5273438 C127.578125,52.234375 129.019531,50.21875 131.375,50.21875 C133.226562,50.21875 134.621094,51.4609376 134.84375,53.3007812 L138.980469,53.3007812 C138.851562,49.46875 135.628906,46.6328124 131.375,46.6328124 C126.300781,46.6328124 123.195312,50.0195312 123.195312,55.5390624 C123.195312,61.0585938 126.3125,64.4570312 131.375,64.4570312 Z M147.59375,53.59375 C146.234375,53.59375 145.285156,54.5429688 145.179688,56.0195312 L149.914062,56.0195312 C149.84375,54.4960938 148.976562,53.59375 147.59375,53.59375 Z M150.066406,60.15625 L153.851562,60.15625 C153.394531,62.6992188 151.003906,64.3046876 147.628906,64.3046876 C143.46875,64.3046876 141.078125,61.84375 141.078125,57.5664062 C141.078125,53.265625 143.527344,50.6523438 147.570312,50.6523438 C151.589844,50.6523438 153.933594,53.0898438 153.933594,57.25 L153.933594,58.3984376 L145.15625,58.3984376 L145.15625,58.609375 C145.191406,60.3085938 146.164062,61.3632812 147.746094,61.3632812 C148.953125,61.3632812 149.785156,60.9179688 150.066406,60.15625 Z M156.511719,64 L160.648438,64 L160.648438,57.0976562 C160.648438,55.28125 161.867188,54.25 163.695312,54.25 C164.328125,54.25 165.160156,54.3554688 165.476562,54.484375 L165.476562,50.9570312 C165.171875,50.828125 164.527344,50.7578124 163.976562,50.7578124 C162.347656,50.7578124 161.082031,51.7890624 160.765625,53.1015624 L160.542969,53.1015624 L160.542969,50.9570312 L156.511719,50.9570312 L156.511719,64 Z M168.675781,47.96875 L168.675781,51.1328124 L166.671875,51.1328124 L166.671875,54.2148438 L168.675781,54.2148438 L168.675781,60.4257812 C168.675781,62.9804688 170.023438,64.0234376 173.457031,64.0234376 C174.242188,64.0234376 175.003906,63.953125 175.4375,63.859375 L175.4375,60.90625 C175.132812,60.9414062 174.875,60.9648438 174.394531,60.9648438 C173.316406,60.9648438 172.8125,60.484375 172.8125,59.5 L172.8125,54.2148438 L175.4375,54.2148438 L175.4375,51.1328124 L172.8125,51.1328124 L172.8125,47.96875 L168.675781,47.96875 Z M178.167969,64 L182.316406,64 L182.316406,50.9570312 L178.167969,50.9570312 L178.167969,64 Z M180.242188,49.4453124 C181.707031,49.4453124 182.585938,48.7070312 182.585938,47.6054688 C182.585938,46.4921876 181.707031,45.7539062 180.242188,45.7539062 C178.789062,45.7539062 177.910156,46.4921876 177.910156,47.6054688 C177.910156,48.7070312 178.789062,49.4453124 180.242188,49.4453124 Z M186.628906,64 L190.765625,64 L190.765625,54.2148438 L193.320312,54.2148438 L193.320312,51.1328124 L190.660156,51.1328124 L190.660156,50.2773438 C190.660156,49.3632812 191.128906,48.953125 192.324219,48.953125 C192.828125,48.953125 193.226562,49 193.425781,49.0351562 L193.425781,46.3046876 C192.910156,46.2226562 192.464844,46.1640624 191.644531,46.1640624 C188.292969,46.1640624 186.628906,47.2421876 186.628906,49.8554688 L186.628906,51.1328124 L184.542969,51.1328124 L184.542969,54.2148438 L186.628906,54.2148438 L186.628906,64 Z M195.933594,64 L200.082032,64 L200.082032,50.9570312 L195.933594,50.9570312 L195.933594,64 Z M198.007812,49.4453124 C199.472656,49.4453124 200.351562,48.7070312 200.351562,47.6054688 C200.351562,46.4921876 199.472656,45.7539062 198.007812,45.7539062 C196.554688,45.7539062 195.675781,46.4921876 195.675781,47.6054688 C195.675781,48.7070312 196.554688,49.4453124 198.007812,49.4453124 Z M209.199218,53.59375 C207.839844,53.59375 206.890624,54.5429688 206.785156,56.0195312 L211.519532,56.0195312 C211.449218,54.4960938 210.582032,53.59375 209.199218,53.59375 Z M211.671876,60.15625 L215.457032,60.15625 C215,62.6992188 212.609376,64.3046876 209.234376,64.3046876 C205.074218,64.3046876 202.683594,61.84375 202.683594,57.5664062 C202.683594,53.265625 205.132812,50.6523438 209.175782,50.6523438 C213.195312,50.6523438 215.539062,53.0898438 215.539062,57.25 L215.539062,58.3984376 L206.761718,58.3984376 L206.761718,58.609375 C206.796876,60.3085938 207.769532,61.3632812 209.351562,61.3632812 C210.558594,61.3632812 211.390624,60.9179688 211.671876,60.15625 Z M222.710938,64.1992188 C219.441406,64.1992188 217.472656,61.6445312 217.472656,57.4492188 C217.472656,53.2890624 219.453124,50.7578124 222.710938,50.7578124 C224.457032,50.7578124 225.863282,51.6132812 226.507812,53.0546876 L226.730468,53.0546876 L226.730468,46.0703124 L230.878906,46.0703124 L230.878906,64 L226.835938,64 L226.835938,61.9609376 L226.613282,61.9609376 C225.96875,63.3671876 224.527344,64.1992188 222.710938,64.1992188 Z M224.234376,54.015625 C222.664062,54.015625 221.726562,55.328125 221.726562,57.4726562 C221.726562,59.640625 222.652344,60.9414062 224.234376,60.9414062 C225.816406,60.9414062 226.753906,59.640625 226.753906,57.484375 C226.753906,55.3398438 225.804688,54.015625 224.234376,54.015625 Z"/>
  </g>
</svg>
