<?xml version="1.0" encoding="UTF-8" standalone="no"?>
<svg width="120px" height="96px" viewBox="0 0 120 96" version="1.1" xmlns="http://www.w3.org/2000/svg" xmlns:xlink="http://www.w3.org/1999/xlink" xmlns:sketch="http://www.bohemiancoding.com/sketch/ns">
    <title>incident-response</title>
    <description>Created with Sketch (http://www.bohemiancoding.com/sketch)</description>
    <defs></defs>
    <g id="Page-1" stroke="none" stroke-width="1" fill="none" fill-rule="evenodd" sketch:type="MSPage">
        <g id="incident-response" sketch:type="MSLayerGroup" transform="translate(12.000000, 29.000000)" fill="#7D7D7D">
            <path d="M104.736586,14.2372414 L95.1356334,14.2372414 C94.9330373,14.2372414 94.7346509,14.2957809 94.5641544,14.4060041 L82.6088765,22.1501014 L72.9625052,22.1501014 C72.6225647,22.1501014 72.3031469,22.314645 72.1058129,22.5920487 L58.6718462,41.4465314 L13.154542,41.4876673 C12.5735909,41.4881947 12.1026206,41.9607302 12.1031469,42.5434888 C12.1036731,43.1251927 12.5746434,43.5972008 13.1555944,43.5972008 L36.8872343,43.5755781 L36.8872343,49.9258012 L25.0414108,49.9258012 L18.9845752,46.0479513 C18.4946608,45.735213 17.8442483,45.8781339 17.5306189,46.3696552 C17.218042,46.8601217 17.361701,47.5124949 17.8510892,47.826288 L24.1673531,51.8697363 C24.3367972,51.9778499 24.5330787,52.0353347 24.7335699,52.0353347 L67.1814108,52.0353347 C67.7623619,52.0353347 68.2338584,51.5627992 68.2338584,50.980568 C68.2338584,50.3978093 67.7623619,49.9258012 67.1814108,49.9258012 L54.2663007,49.9258012 L54.2663007,43.5597566 L59.2149091,43.5555375 C59.5543234,43.5550101 59.8726888,43.3904665 60.0700227,43.1135903 L73.5039895,24.2596349 L82.9193485,24.2596349 C83.1219446,24.2596349 83.320331,24.2010953 83.4903013,24.0908722 L95.4461055,16.3467748 L102.180717,16.3467748 L96.0349499,22.4559838 C95.8360373,22.6532252 95.7244779,22.9221907 95.7239516,23.2027586 C95.7228992,23.4827992 95.8339324,23.7522921 96.0317925,23.9505882 L100.909887,28.839432 L94.6104621,28.839432 L89.9465408,24.5380933 C89.5181946,24.1441379 88.8525216,24.1710345 88.4594324,24.5997972 C88.065817,25.0290872 88.0937069,25.6962272 88.5210006,26.0907099 L93.4875006,30.6705071 C93.6816772,30.8498174 93.9363695,30.9494929 94.2000076,30.9494929 L103.451022,30.9494929 C103.876737,30.9494929 104.260354,30.6921298 104.423483,30.2981744 C104.586086,29.9036917 104.496102,29.4506694 104.195102,29.1484787 L98.2677174,23.2080325 L105.477509,16.0408925 C105.780614,15.740284 105.872177,15.2851521 105.709574,14.890142 C105.547497,14.4951318 105.163354,14.2372414 104.736586,14.2372414 Z M52.1614056,49.9258012 L38.9921294,49.9258012 L38.9921294,43.5734686 L52.1614056,43.5618661 L52.1614056,49.9258012 L52.1614056,49.9258012 Z" id="Fill-4" sketch:type="MSShapeGroup"></path>
            <path d="M82.158792,2.12008114 L50.9258322,2.12008114 L50.9258322,1.08271805 C50.9258322,0.499959432 50.4543357,0.0279513185 49.8733846,0.0279513185 C49.2919073,0.0279513185 48.8209371,0.499959432 48.8209371,1.08271805 L48.8209371,2.12008114 L17.5869248,2.12008114 C17.0054476,2.12008114 16.5344773,2.59261663 16.5344773,3.17537525 C16.5344773,3.75760649 17.0054476,4.2296146 17.5869248,4.2296146 L48.8209371,4.2296146 L48.8209371,9.58782961 L35.9279283,9.58782961 C35.6490297,9.58782961 35.3811818,9.69910751 35.1838479,9.89687627 L27.5372902,17.5597566 L19.9707185,17.5597566 C19.724972,17.5597566 19.4865927,17.6462475 19.2976783,17.8039351 L0.548851399,33.4434888 C0.288896853,33.659716 0.148921329,33.9882759 0.172075175,34.3263286 C0.195229021,34.663854 0.378354895,34.9702637 0.665146853,35.1490467 L7.06402797,39.1476673 C7.23715559,39.2563083 7.4297535,39.3074645 7.61972028,39.3074645 C7.97123776,39.3074645 8.31433566,39.1313185 8.5143007,38.8111968 C8.82161538,38.3165112 8.67111538,37.6662475 8.17751748,37.3577282 L3.01473601,34.1311968 L20.3517045,19.6692901 L27.9735297,19.6692901 C28.2524283,19.6692901 28.5202762,19.5580122 28.7176101,19.3602434 L36.3641678,11.6973631 L60.4946853,11.6973631 L62.4385559,18.8819067 C62.563271,19.3412576 62.979514,19.6603245 63.4546941,19.6603245 L80.155458,19.6603245 C80.7369353,19.6603245 81.2079056,19.1883164 81.2079056,18.6055578 C81.2079056,18.0233266 80.7369353,17.5507911 80.155458,17.5507911 L64.2592902,17.5507911 L62.3154196,10.3662475 C62.1912308,9.90689655 61.7749878,9.58782961 61.2998077,9.58782961 L50.9258322,9.58782961 L50.9258322,4.2296146 L82.158792,4.2296146 C82.739743,4.2296146 83.2112395,3.75760649 83.2112395,3.17537525 C83.2112395,2.59261663 82.739743,2.12008114 82.158792,2.12008114" id="Fill-6" sketch:type="MSShapeGroup"></path>
            <path d="M50.0922937,38.5591075 L42.6183374,38.5591075 C42.0373864,38.5591075 41.5658899,38.0870994 41.5658899,37.5043408 L41.5658899,31.2980933 L35.3732885,31.2980933 C34.7923374,31.2980933 34.3208409,30.8255578 34.3208409,30.2433266 L34.3208409,22.7523732 C34.3208409,22.1696146 34.7923374,21.6976065 35.3732885,21.6976065 L41.5658899,21.6976065 L41.5658899,15.4918864 C41.5658899,14.9091278 42.0373864,14.4371197 42.6183374,14.4371197 L50.0922937,14.4371197 C50.673771,14.4371197 51.1447413,14.9091278 51.1447413,15.4918864 L51.1447413,21.6976065 L57.3373427,21.6976065 C57.9188199,21.6976065 58.3897902,22.1696146 58.3897902,22.7523732 L58.3897902,30.2433266 C58.3897902,30.8255578 57.9188199,31.2980933 57.3373427,31.2980933 L51.1447413,31.2980933 L51.1447413,37.5043408 C51.1447413,38.0870994 50.673771,38.5591075 50.0922937,38.5591075 Z M43.670785,36.449574 L49.0398462,36.449574 L49.0398462,30.2433266 C49.0398462,29.660568 49.5113427,29.1885598 50.0922937,29.1885598 L56.2848951,29.1885598 L56.2848951,23.80714 L50.0922937,23.80714 C49.5113427,23.80714 49.0398462,23.3346045 49.0398462,22.7523732 L49.0398462,16.5466531 L43.670785,16.5466531 L43.670785,22.7523732 C43.670785,23.3346045 43.1998147,23.80714 42.6183374,23.80714 L36.425736,23.80714 L36.425736,29.1885598 L42.6183374,29.1885598 C43.1998147,29.1885598 43.670785,29.660568 43.670785,30.2433266 L43.670785,36.449574 Z" id="Fill-8" sketch:type="MSShapeGroup"></path>
        </g>
    </g>
</svg>