<?xml version="1.0" encoding="utf-8"?>
<!-- Generator: Adobe Illustrator 16.0.0, SVG Export Plug-In . SVG Version: 6.00 Build 0)  -->
<!DOCTYPE svg PUBLIC "-//W3C//DTD SVG 1.1//EN" "http://www.w3.org/Graphics/SVG/1.1/DTD/svg11.dtd">
<svg version="1.1" id="Layer_1" xmlns:sketch="http://www.bohemiancoding.com/sketch/ns"
	 xmlns="http://www.w3.org/2000/svg" xmlns:xlink="http://www.w3.org/1999/xlink" x="0px" y="0px" width="60px" height="48px"
	 viewBox="30 24 60 48" enable-background="new 30 24 60 48" xml:space="preserve">
<title>incident-response</title>
<description>Created with Sketch (http://www.bohemiancoding.com/sketch)</description>
<g id="Page-1" sketch:type="MSPage">
	<g id="incident-response" transform="translate(12.000000, 29.000000)" sketch:type="MSLayerGroup">
		<path id="Fill-4" sketch:type="MSShapeGroup" fill="#7D7D7D" d="M76.474,16.135h-4.8c-0.101,0-0.2,0.029-0.286,0.084l-5.977,3.872
			h-4.824c-0.17,0-0.33,0.082-0.428,0.221l-6.717,9.427L30.683,29.76c-0.291,0-0.526,0.236-0.526,0.527
			c0,0.291,0.236,0.527,0.526,0.527l11.866-0.011v3.175h-5.923l-3.029-1.939c-0.245-0.156-0.57-0.084-0.727,0.161
			c-0.156,0.245-0.084,0.571,0.16,0.729l3.158,2.021c0.085,0.055,0.183,0.083,0.283,0.083h21.224c0.291,0,0.527-0.236,0.527-0.527
			s-0.236-0.527-0.527-0.527h-6.457v-3.184l2.475-0.002c0.17,0,0.328-0.082,0.428-0.221l6.717-9.427h4.707
			c0.102,0,0.201-0.029,0.285-0.085l5.979-3.871h3.367l-3.072,3.055c-0.1,0.098-0.156,0.232-0.156,0.373
			c0,0.14,0.055,0.274,0.154,0.374l2.439,2.444h-3.15l-2.332-2.15c-0.215-0.197-0.547-0.184-0.744,0.03
			c-0.195,0.215-0.182,0.548,0.031,0.745l2.483,2.29c0.097,0.09,0.225,0.14,0.356,0.14h4.625c0.213,0,0.404-0.129,0.486-0.325
			c0.082-0.197,0.037-0.424-0.113-0.575l-2.965-2.971l3.605-3.583c0.152-0.15,0.197-0.378,0.115-0.575
			C76.88,16.264,76.688,16.135,76.474,16.135z M50.187,33.979h-6.584v-3.176l6.584-0.006V33.979L50.187,33.979z"/>
		<path id="Fill-6" sketch:type="MSShapeGroup" fill="#7D7D7D" d="M65.185,10.076H49.569V9.557c0-0.291-0.236-0.527-0.527-0.527
			c-0.29,0-0.525,0.236-0.525,0.527v0.519H32.899c-0.291,0-0.526,0.236-0.526,0.528c0,0.291,0.235,0.527,0.526,0.527h15.617v2.679
			H42.07c-0.139,0-0.273,0.056-0.372,0.154l-3.823,3.831h-3.783c-0.123,0-0.242,0.044-0.336,0.123l-9.375,7.819
			c-0.13,0.108-0.2,0.272-0.188,0.441c0.012,0.169,0.103,0.322,0.247,0.411l3.199,2c0.087,0.054,0.183,0.08,0.278,0.08
			c0.176,0,0.347-0.089,0.447-0.249c0.153-0.247,0.078-0.572-0.168-0.727l-2.582-1.613l8.668-7.23h3.811
			c0.14,0,0.273-0.056,0.372-0.155l3.823-3.831h12.064l0.973,3.593c0.062,0.229,0.271,0.389,0.508,0.389h8.351
			c0.29,0,0.526-0.236,0.526-0.527s-0.236-0.527-0.526-0.527h-7.948l-0.972-3.592c-0.062-0.23-0.271-0.389-0.508-0.389h-5.187V11.13
			h15.615c0.291,0,0.527-0.236,0.527-0.527C65.712,10.312,65.476,10.076,65.185,10.076"/>
		<path id="Fill-8" sketch:type="MSShapeGroup" fill="#7D7D7D" d="M49.151,28.295h-3.736c-0.29,0-0.526-0.236-0.526-0.527v-3.104
			h-3.096c-0.291,0-0.526-0.235-0.526-0.527v-3.745c0-0.291,0.235-0.527,0.526-0.527h3.096v-3.103c0-0.291,0.236-0.527,0.526-0.527
			h3.736c0.291,0,0.527,0.236,0.527,0.527v3.103h3.096c0.291,0,0.526,0.236,0.526,0.527v3.745c0,0.292-0.235,0.527-0.526,0.527
			h-3.096v3.104C49.679,28.059,49.442,28.295,49.151,28.295z M45.941,27.24h2.685v-3.104c0-0.291,0.236-0.527,0.525-0.527h3.098
			v-2.69h-3.098c-0.289,0-0.525-0.236-0.525-0.527v-3.103h-2.685v3.103c0,0.291-0.235,0.527-0.526,0.527h-3.096v2.69h3.096
			c0.291,0,0.526,0.236,0.526,0.527V27.24z"/>
	</g>
</g>
</svg>
