<?xml version="1.0" encoding="utf-8"?>
<!-- Generator: Adobe Illustrator 16.0.0, SVG Export Plug-In . SVG Version: 6.00 Build 0)  -->
<!DOCTYPE svg PUBLIC "-//W3C//DTD SVG 1.1//EN" "http://www.w3.org/Graphics/SVG/1.1/DTD/svg11.dtd">
<svg version="1.1" id="Layer_1" xmlns:sketch="http://www.bohemiancoding.com/sketch/ns"
	 xmlns="http://www.w3.org/2000/svg" xmlns:xlink="http://www.w3.org/1999/xlink" x="0px" y="0px" width="60px" height="48px"
	 viewBox="30 24 60 48" enable-background="new 30 24 60 48" xml:space="preserve">
<title>security-training</title>
<description>Created with Sketch (http://www.bohemiancoding.com/sketch)</description>
<g id="Page-1" sketch:type="MSPage">
	<g id="security-training" transform="translate(27.000000, 13.000000)" sketch:type="MSLayerGroup">
		<path id="Fill-1" sketch:type="MSShapeGroup" fill="#7D7D7D" d="M29.27,52.357c-0.292,0-0.529-0.231-0.533-0.52l-0.038-2.84
			c-0.57,0.053-1.492,0.119-2.51,0.119c-2.87,0-4.578-0.505-5.223-1.543c-0.985-1.585-1.493-5.729-1.645-7.18
			c-0.091,0.002-0.19,0.004-0.296,0.004c-1.907,0-2.875-0.361-3.047-1.135c-0.214-0.959,1.555-5.212,2.376-7.112
			c-0.042-4.274,1.361-7.966,4.06-10.682c2.663-2.679,6.383-4.154,10.477-4.154c8.175,0,14.58,6.083,14.58,13.85
			c0,3.506-1.277,6.871-3.604,9.504l-0.189,11.162c-0.006,0.289-0.242,0.52-0.533,0.52L29.27,52.357L29.27,52.357z M29.224,47.885
			c0.128,0,0.252,0.045,0.35,0.129c0.114,0.1,0.181,0.241,0.183,0.391l0.039,2.898l12.826-0.006L42.803,40.6
			c-0.033-0.164,0.002-0.337,0.115-0.461c2.25-2.464,3.488-5.65,3.488-8.973c0-3.533-1.402-6.786-3.947-9.159
			c-2.516-2.345-5.913-3.636-9.568-3.636c-3.805,0-7.256,1.363-9.717,3.839c-2.519,2.534-3.816,6.005-3.753,10.039
			c0.001,0.074-0.014,0.148-0.043,0.217c-1.169,2.692-2.39,5.933-2.359,6.558c0.101,0.1,0.616,0.32,2.007,0.32
			c0.423,0,0.736-0.021,0.739-0.022c0.289-0.017,0.543,0.193,0.568,0.481c0.134,1.533,0.672,5.822,1.54,7.219
			c0.411,0.662,1.984,1.041,4.316,1.041c1.575,0,2.954-0.172,2.967-0.174C29.179,47.887,29.202,47.885,29.224,47.885z"/>
		<path id="Fill-9" sketch:type="MSShapeGroup" fill="#7D7D7D" d="M35.84,25.462c-0.1-0.099-0.234-0.155-0.375-0.155h-3.924
			c-0.213-0.532-0.736-0.909-1.348-0.909c-0.799,0-1.45,0.644-1.45,1.437c0,0.792,0.651,1.436,1.45,1.436
			c0.612,0,1.135-0.377,1.348-0.909h3.704l2.062,2.043c0.1,0.099,0.235,0.155,0.377,0.155l3.027-0.017
			c0.215,0.529,0.736,0.904,1.346,0.904c0.8,0,1.451-0.645,1.451-1.436c0-0.792-0.651-1.436-1.451-1.436
			c-0.615,0-1.141,0.381-1.352,0.917l-2.803,0.012L35.84,25.462z M29.808,25.835c0-0.211,0.173-0.382,0.385-0.382
			s0.385,0.171,0.385,0.382c0,0.21-0.173,0.381-0.385,0.381S29.808,26.045,29.808,25.835z M42.441,28.011
			c0,0.21-0.172,0.381-0.385,0.381s-0.385-0.171-0.385-0.381s0.172-0.381,0.385-0.381S42.441,27.801,42.441,28.011z"/>
		<path id="Fill-10" sketch:type="MSShapeGroup" fill="#7D7D7D" d="M43.709,31.003h-6.968l-0.954-0.816
			c0.078-0.177,0.123-0.372,0.123-0.578c0-0.792-0.65-1.436-1.449-1.436c-0.688,0-1.263,0.475-1.412,1.111h-3.913l-3.555-3.52
			l3.633-3.598h6.937l2.061,2.108c-0.086,0.184-0.136,0.388-0.136,0.604c0,0.792,0.651,1.436,1.45,1.436
			c0.801,0,1.451-0.644,1.451-1.436s-0.65-1.437-1.451-1.437c-0.191,0-0.375,0.038-0.543,0.105l-2.223-2.275
			c-0.102-0.103-0.239-0.161-0.383-0.161h-7.384c-0.141,0-0.276,0.056-0.376,0.155l-4.166,4.125c-0.1,0.099-0.156,0.233-0.156,0.373
			s0.056,0.274,0.156,0.373l4.087,4.047c0.1,0.099,0.235,0.155,0.377,0.155h4.298c0.253,0.422,0.716,0.706,1.248,0.706
			c0.201,0,0.393-0.041,0.566-0.114l1.168,0.999c0.096,0.083,0.221,0.128,0.348,0.128h5.88l-2.247,2.226H35.08l-2.235-2.255
			c-0.1-0.101-0.237-0.158-0.38-0.158l-5.567,0.021l-2.695-2.709c0.084-0.183,0.133-0.384,0.133-0.598
			c0-0.792-0.65-1.437-1.45-1.437c-0.799,0-1.45,0.645-1.45,1.437c0,0.792,0.651,1.437,1.45,1.437c0.194,0,0.38-0.039,0.55-0.108
			l2.862,2.876c0.1,0.101,0.236,0.157,0.379,0.157l5.566-0.021l2.233,2.254c0.101,0.102,0.237,0.158,0.38,0.158h2.069v4.719
			c-0.546,0.206-0.935,0.729-0.935,1.34c0,0.793,0.65,1.438,1.449,1.438c0.801,0,1.451-0.645,1.451-1.438
			c0-0.6-0.373-1.113-0.9-1.328v-4.731h2.406c0.141,0,0.276-0.056,0.377-0.154l3.311-3.28c0.152-0.151,0.199-0.378,0.116-0.575
			S43.924,31.003,43.709,31.003z M39.91,24.878c0,0.21-0.172,0.381-0.385,0.381s-0.385-0.171-0.385-0.381
			c0-0.211,0.172-0.382,0.385-0.382S39.91,24.667,39.91,24.878z M34.074,29.609c0-0.21,0.174-0.381,0.387-0.381
			c0.212,0,0.385,0.171,0.385,0.381s-0.173,0.381-0.385,0.381C34.248,29.99,34.074,29.819,34.074,29.609z M22.5,28.584
			c0-0.21,0.173-0.382,0.385-0.382c0.213,0,0.385,0.172,0.385,0.382c0,0.211-0.172,0.382-0.385,0.382
			C22.673,28.966,22.5,28.795,22.5,28.584z M37.055,41.396c0-0.209,0.173-0.381,0.385-0.381c0.213,0,0.387,0.172,0.387,0.381
			c0,0.211-0.174,0.383-0.387,0.383C37.228,41.779,37.055,41.607,37.055,41.396z"/>
	</g>
</g>
</svg>
