<?xml version="1.0" encoding="UTF-8" standalone="no"?>
<svg width="120px" height="96px" viewBox="0 0 120 96" version="1.1" xmlns="http://www.w3.org/2000/svg" xmlns:xlink="http://www.w3.org/1999/xlink" xmlns:sketch="http://www.bohemiancoding.com/sketch/ns">
    <title>security-training</title>
    <description>Created with Sketch (http://www.bohemiancoding.com/sketch)</description>
    <defs></defs>
    <g id="Page-1" stroke="none" stroke-width="1" fill="none" fill-rule="evenodd" sketch:type="MSPage">
        <g id="security-training" sketch:type="MSLayerGroup" transform="translate(27.000000, 13.000000)" fill="#7D7D7D">
            <path d="M26.8225575,69.8793509 C26.2400025,69.8793509 25.765545,69.4152535 25.7575575,68.8382961 L25.682475,63.1589047 C24.5423925,63.263854 22.6978125,63.3972819 20.66313,63.3972819 C14.923845,63.3972819 11.5067925,62.3878702 10.216545,60.3115619 C8.246295,57.1414604 7.230285,48.8536308 6.92676,45.9535497 C6.74571,45.9572414 6.546555,45.9593509 6.33462,45.9593509 C2.520855,45.9593509 0.584685,45.2389452 0.24069,43.6916024 C-0.186375,41.771927 3.3499575,33.2657606 4.993785,29.4670183 C4.9101825,20.9186613 7.71486,13.5347667 13.113345,8.10377282 C18.43941,2.74608519 25.880565,-0.204624746 34.066155,-0.204624746 C50.4171,-0.204624746 63.225855,11.9626369 63.225855,27.4951318 C63.225855,34.5061663 60.669855,41.2361055 56.0184675,46.5020284 L55.638795,68.8288032 C55.62921,69.4041785 55.1558175,69.8656389 54.5743275,69.8661663 L26.82309,69.8793509 C26.82309,69.8793509 26.82309,69.8793509 26.8225575,69.8793509 Z M26.7320325,60.9322921 C26.9871,60.9322921 27.2357775,61.0235294 27.4306725,61.1907099 C27.6596475,61.3879513 27.7927725,61.6727383 27.7970325,61.9733469 L27.8737125,67.7692901 L53.5269,67.7571602 L53.8905975,46.3622718 C53.82297,46.0352941 53.8948575,45.6882759 54.12117,45.4404057 C58.6191975,40.5125355 61.095855,34.1396349 61.095855,27.4951318 C61.095855,20.4287221 58.2922425,13.9234483 53.202075,9.17752535 C48.1715475,4.48803245 41.3757825,1.90490872 34.066155,1.90490872 C26.4561975,1.90490872 19.5539325,4.63200811 14.6315025,9.58413793 C9.594585,14.6512373 6.99918,21.593712 7.1264475,29.6610953 C7.12911,29.8098174 7.09929,29.9574848 7.0401825,30.0940771 C4.7025075,35.4791886 2.260995,41.9591481 2.320635,43.2085193 C2.522985,43.4083976 3.55284,43.8498174 6.33462,43.8498174 C7.18023,43.8498174 7.807515,43.8060446 7.8133725,43.8055172 C8.3906025,43.7738742 8.900205,44.1926166 8.9507925,44.7674645 C9.21864,47.8357809 10.2948225,56.4126166 12.0307725,59.2066937 C12.8529525,60.5288438 15.9989625,61.2877485 20.66313,61.2877485 C23.8139325,61.2877485 26.5701525,60.9444219 26.59731,60.9412576 C26.64204,60.934929 26.6873025,60.9322921 26.7320325,60.9322921 Z" id="Fill-1" sketch:type="MSShapeGroup"></path>
            <path d="M39.96519,16.0862475 C39.7655025,15.8884787 39.49446,15.7772008 39.212235,15.7772008 L31.365315,15.7772008 C30.939315,14.7139959 29.8929525,13.9598377 28.6698,13.9598377 C27.0707025,13.9598377 25.7692725,15.2482353 25.7692725,16.8324949 C25.7692725,18.4162272 27.0707025,19.7046247 28.6698,19.7046247 C29.893485,19.7046247 30.9398475,18.9499391 31.365315,17.8867343 L38.7707925,17.8867343 L42.8976675,21.9739554 C43.097355,22.1717241 43.3683975,22.283002 43.6506225,22.283002 L49.7062125,22.2497769 C50.1343425,23.3077079 51.178575,24.0576471 52.3974675,24.0576471 C53.9970975,24.0576471 55.2985275,22.7692495 55.2985275,21.1855172 C55.2985275,19.6012576 53.9970975,18.31286 52.3974675,18.31286 C51.167925,18.31286 50.11677,19.0759838 49.6955625,20.1481542 L44.089935,20.171359 L39.96519,16.0862475 Z M27.8992725,16.8324949 C27.8992725,16.411643 28.2453975,16.0693712 28.6698,16.0693712 C29.094735,16.0693712 29.44086,16.411643 29.44086,16.8324949 C29.44086,17.2533469 29.094735,17.5950913 28.6698,17.5950913 C28.2453975,17.5950913 27.8992725,17.2533469 27.8992725,16.8324949 Z M53.1685275,21.1855172 C53.1685275,21.6063692 52.8224025,21.9481136 52.3974675,21.9481136 C51.973065,21.9481136 51.62694,21.6063692 51.62694,21.1855172 C51.62694,20.7646653 51.973065,20.4223935 52.3974675,20.4223935 C52.8224025,20.4223935 53.1685275,20.7646653 53.1685275,21.1855172 Z" id="Fill-9" sketch:type="MSShapeGroup"></path>
            <path d="M55.700565,27.1686815 L41.7666375,27.1686815 L39.85869,25.53643 C40.01631,25.1825558 40.10577,24.7922921 40.10577,24.3809331 C40.10577,22.7972008 38.80434,21.5082759 37.2052425,21.5082759 C35.831925,21.5082759 34.68066,22.4591481 34.3819275,23.7306694 L26.5552425,23.7306694 L19.4463675,16.6901014 L26.7117975,9.49448276 L40.5855525,9.49448276 L44.7071025,13.7109128 C44.53404,14.078499 44.4344625,14.4866937 44.4344625,14.9186207 C44.4344625,16.5023529 45.7358925,17.7907505 47.3355225,17.7907505 C48.9351525,17.7907505 50.23605,16.5023529 50.23605,14.9186207 C50.23605,13.3343611 48.9351525,12.0459635 47.3355225,12.0459635 C46.9510575,12.0459635 46.58523,12.1219067 46.2492225,12.2563895 L41.802315,7.70612576 C41.6015625,7.50097363 41.325195,7.38494929 41.0371125,7.38494929 L26.2708875,7.38494929 C25.98813,7.38494929 25.7170875,7.49622718 25.5174,7.69399594 L17.18697,15.9443813 C16.9872825,16.1421501 16.874925,16.4105882 16.874925,16.6901014 C16.874925,16.970142 16.9872825,17.2380527 17.18697,17.4358215 L25.360845,25.5311562 C25.5605325,25.7289249 25.831575,25.8402028 26.1143325,25.8402028 L34.71048,25.8402028 C35.216355,26.6845436 36.14397,27.2535903 37.2052425,27.2535903 C37.60728,27.2535903 37.99068,27.1713185 38.3394675,27.0241785 L40.67448,29.0213793 C40.8677775,29.1869777 41.1148575,29.278215 41.3704575,29.278215 L53.129655,29.278215 L48.6358875,33.7288032 L38.4427725,33.7288032 L33.9750975,29.2186207 C33.7748775,29.0161055 33.5011725,28.9027181 33.2146875,28.9027181 L22.08171,28.9449087 L16.6901475,23.5260446 C16.8594825,23.1616227 16.9563975,22.7581744 16.9563975,22.3315213 C16.9563975,20.7472617 15.6549675,19.4583367 14.05587,19.4583367 C12.4567725,19.4583367 11.1553425,20.7472617 11.1553425,22.3315213 C11.1553425,23.9157809 12.4567725,25.2041785 14.05587,25.2041785 C14.444595,25.2041785 14.8157475,25.1266531 15.15495,24.9884787 L20.879325,30.7417039 C21.079545,30.9426369 21.3527175,31.0560243 21.637605,31.0560243 L32.7695175,31.0138337 L37.235595,35.5219067 C37.435815,35.7244219 37.70952,35.8383367 37.996005,35.8383367 L42.13353,35.8383367 L42.13353,45.2753347 C41.0424375,45.6882759 40.2639225,46.7330223 40.2639225,47.9570791 C40.2639225,49.5408114 41.5653525,50.8297363 43.16445,50.8297363 C44.76408,50.8297363 46.0649775,49.5408114 46.0649775,47.9570791 C46.0649775,46.7583367 45.3194775,45.7299391 44.26353,45.3001217 L44.26353,35.8383367 L49.0767975,35.8383367 C49.3590225,35.8383367 49.630065,35.7270588 49.8297525,35.5292901 L56.45352,28.9691684 C56.75811,28.6669777 56.8491675,28.2139554 56.684625,27.8194726 C56.51955,27.4255172 56.1313575,27.1686815 55.700565,27.1686815 Z M48.10605,14.9186207 C48.10605,15.3394726 47.7604575,15.681217 47.3355225,15.681217 C46.9105875,15.681217 46.5644625,15.3394726 46.5644625,14.9186207 C46.5644625,14.4977688 46.9105875,14.155497 47.3355225,14.155497 C47.7604575,14.155497 48.10605,14.4977688 48.10605,14.9186207 Z M36.4341825,24.3809331 C36.4341825,23.9606085 36.779775,23.6178093 37.2052425,23.6178093 C37.629645,23.6178093 37.97577,23.9606085 37.97577,24.3809331 C37.97577,24.801785 37.629645,25.1440568 37.2052425,25.1440568 C36.779775,25.1440568 36.4341825,24.801785 36.4341825,24.3809331 Z M13.2853425,22.3315213 C13.2853425,21.9106694 13.630935,21.5678702 14.05587,21.5678702 C14.480805,21.5678702 14.8263975,21.9106694 14.8263975,22.3315213 C14.8263975,22.7523732 14.480805,23.094645 14.05587,23.094645 C13.630935,23.094645 13.2853425,22.7523732 13.2853425,22.3315213 Z M42.3939225,47.9570791 C42.3939225,47.5367546 42.739515,47.1939554 43.16445,47.1939554 C43.589385,47.1939554 43.9349775,47.5367546 43.9349775,47.9570791 C43.9349775,48.377931 43.589385,48.7202028 43.16445,48.7202028 C42.739515,48.7202028 42.3939225,48.377931 42.3939225,47.9570791 Z" id="Fill-10" sketch:type="MSShapeGroup"></path>
        </g>
    </g>
</svg>