<?xml version="1.0" encoding="utf-8"?>
<!-- Generator: Adobe Illustrator 16.0.0, SVG Export Plug-In . SVG Version: 6.00 Build 0)  -->
<!DOCTYPE svg PUBLIC "-//W3C//DTD SVG 1.1//EN" "http://www.w3.org/Graphics/SVG/1.1/DTD/svg11.dtd">
<svg version="1.1" id="Layer_1" xmlns:sketch="http://www.bohemiancoding.com/sketch/ns"
	 xmlns="http://www.w3.org/2000/svg" xmlns:xlink="http://www.w3.org/1999/xlink" x="0px" y="0px" width="60px" height="48px"
	 viewBox="30 24 60 48" enable-background="new 30 24 60 48" xml:space="preserve">
<title>security-consulting</title>
<description>Created with Sketch (http://www.bohemiancoding.com/sketch)</description>
<g id="Page-1" sketch:type="MSPage">
	<g id="security-consulting" transform="translate(24.000000, 11.000000)" sketch:type="MSLayerGroup">
		<path id="Path" sketch:type="MSShapeGroup" fill="#7D7D7D" d="M33.871,42.4c0.462,1.01,1.432,1.652,2.356,1.652
			c0.831,0,1.985-0.643,2.355-1.652l0.786,0.137c0.276-3.58-0.924-5.6-3.142-5.6c-2.31,0-3.558,2.02-3.188,5.6L33.871,42.4z
			 M38.075,39.416c0.37,2.295-0.647,3.719-1.848,3.719c-1.294,0-2.125-1.193-1.987-2.984C35.118,40.15,37.244,39.92,38.075,39.416z
			 M40.107,48.23c-0.277,0-0.461,0.183-0.461,0.504l0.281,4.691h1.041l-0.354-4.736C40.615,48.413,40.432,48.23,40.107,48.23z
			 M30.822,46.807c0.046-0.688,0.37-0.918,1.063-1.102l2.032-0.505c-0.369,0.274-0.6,0.643-0.6,1.056
			c0,1.006,0.643,2.242,2.572,5.529h0.982c1-2.166,2.268-4.225,2.268-5.529c0-0.414-0.232-0.781-0.51-1.056l1.987,0.505
			c0.647,0.184,0.97,0.414,1.017,1.102l0.529,5.754h1.023l-0.582-6.029c-0.094-1.01-0.602-1.424-1.525-1.652l-3.326-0.781
			l-0.324,1.01c0.416,0.23,0.693,0.734,0.693,1.148c0,0.598-0.369,1.285-0.601,1.698h-2.587c-0.23-0.413-0.554-1.102-0.554-1.698
			c0-0.414,0.277-0.918,0.693-1.148l-0.369-1.01l-3.327,0.781c-0.97,0.229-1.386,0.688-1.479,1.652l-0.64,6.135h0.997L30.822,46.807
			z M32.346,48.23c-0.231,0-0.461,0.229-0.461,0.459l-0.363,4.605h1.023l0.31-4.652C32.854,48.413,32.624,48.23,32.346,48.23z"/>
		<path id="Shape" sketch:type="MSShapeGroup" fill="#7D7D7D" d="M45.225,40.533c1.848,0,3.002-2.066,3.002-3.995
			c0-1.698-1.154-3.076-3.002-3.076c-1.756,0-2.957,1.377-2.957,3.076C42.268,38.467,43.469,40.533,45.225,40.533z M46.52,35.529
			c0.091,0.321,0.553,0.872,0.83,1.009c-0.045,2.065-1.016,3.077-2.125,3.077c-1.016,0-2.08-1.057-2.033-3.352
			C43.654,36.263,45.964,35.804,46.52,35.529z M51.287,45.762c0.025-0.031,0.047-0.066,0.07-0.099l0.012-0.632
			c0-0.459-0.186-0.689-0.555-0.689c-0.322,0-0.507,0.23-0.507,0.689l-0.024,1.787C50.63,46.482,50.98,46.148,51.287,45.762z
			 M45.584,51.268c0.084-0.049,0.168-0.1,0.254-0.148c0.174-2.486,0.781-4.825,2.389-9.209l3.143,0.825
			c0.748,0.22,0.908,0.438,0.923,1.21c0.177-0.42,0.339-0.844,0.511-1.255c0-0.002,0-0.003,0-0.005c0.001,0,0.002,0,0.002,0
			c0.031-0.076,0.062-0.151,0.094-0.227c-0.215-0.221-0.537-0.389-1.021-0.549l-4.25-1.148c-0.416,0.965-1.016,2.479-1.34,3.765
			c-0.186-0.321-0.369-0.827-0.738-0.964c0.369-0.275,0.6-1.057,0.6-1.424c0-0.32-0.369-0.597-0.924-0.734
			c-0.555,0.138-0.924,0.414-0.924,0.734c0,0.367,0.23,1.148,0.601,1.424c-0.369,0.137-0.554,0.643-0.739,0.964
			c-0.323-1.286-0.924-2.8-1.34-3.765l-2.757,0.746c-0.007,0.263-0.026,0.926-0.033,0.99l2.19-0.588
			c1.727,4.707,2.301,7.059,2.422,9.764C44.949,51.52,45.264,51.384,45.584,51.268z"/>
		<path id="Shape_1_" sketch:type="MSShapeGroup" fill="#7D7D7D" d="M26.503,38.613c1.461,0,2.401-1.624,2.401-3.11
			c0-1.349-0.939-2.455-2.401-2.455c-1.391,0-2.331,1.106-2.331,2.455C24.173,36.989,25.112,38.613,26.503,38.613z M27.373,34.949
			c0.104,0.242,0.349,0.484,0.522,0.623c-0.035,1.383-0.696,2.04-1.392,2.04c-0.626,0-1.322-0.657-1.322-2.143
			C25.599,35.434,26.816,35.157,27.373,34.949z M30.539,44.297v-1.846c0-0.449-0.209-0.656-0.591-0.656
			c-0.348,0-0.557,0.207-0.557,0.656l-0.001,2.702C29.564,44.801,29.905,44.491,30.539,44.297z M32.661,42.52
			c0-1.832-0.521-2.661-2.122-3.111l-2.366-0.656c-0.174,0.623-0.591,1.867-0.939,2.938l-0.278,1.245l0.069-1.245l-0.069-0.933
			c0.174-0.209,0.278-0.623,0.278-0.865s-0.278-0.414-0.696-0.553c-0.417,0.139-0.696,0.311-0.696,0.553s0.104,0.656,0.278,0.865
			l-0.07,0.933l0.07,1.245l-0.278-1.245c-0.348-1.071-0.765-2.315-0.939-2.938l-2.366,0.656c-1.6,0.45-2.087,1.279-2.122,3.111
			l-0.022,2.03c0.147,0.095,0.269,0.239,0.347,0.435c0.25,0.348,0.503,0.693,0.759,1.036l0.029-3.673
			c0-1.211,0.348-1.729,1.287-1.971l1.426-0.381c0.696,2.144,1.74,3.492,1.74,5.186v4.355c0,0.475-0.068,0.853-0.211,1.141
			c0.428,0.305,0.849,0.612,1.246,0.932c0.045,0.037,0.083,0.076,0.119,0.117c0.266,0.004,0.532,0.004,0.798,0.01
			c0.002-0.156,0.002-0.311,0.005-0.469c-0.58-0.243-0.843-0.797-0.843-1.73v-4.355c0-1.693,1.043-3.043,1.739-5.186l1.426,0.381
			c0.939,0.242,1.287,0.691,1.287,1.971l0.012,1.598c0.362-0.086,0.736-0.139,1.115-0.172L32.661,42.52z M23.661,48.797l0.024-6.346
			c0-0.449-0.208-0.656-0.557-0.656c-0.382,0-0.591,0.207-0.591,0.656v4.926C22.909,47.853,23.284,48.326,23.661,48.797z"/>
		<path id="Shape_2_" sketch:type="MSShapeGroup" fill="#7D7D7D" d="M36.584,54.359c-10.089,0-18.296-8.154-18.296-18.179
			c0-10.023,8.207-18.179,18.296-18.179c10.087,0,18.294,8.155,18.294,18.179C54.879,46.205,46.672,54.359,36.584,54.359z
			 M36.584,18.976c-9.548,0-17.316,7.718-17.316,17.205s7.768,17.206,17.316,17.206c9.547,0,17.314-7.719,17.314-17.206
			S46.131,18.976,36.584,18.976z"/>
		<path id="Shape_3_" sketch:type="MSShapeGroup" fill="#7D7D7D" d="M34.288,26.599H33.08l0.938,5.836l0.823-1.529L34.288,26.599z
			 M40.547,22.091l-6.399,11.148h1.061l6.629-11.148H40.547z"/>
	</g>
</g>
</svg>
