<?xml version="1.0" encoding="UTF-8" standalone="no"?>
<svg width="120px" height="96px" viewBox="0 0 120 96" version="1.1" xmlns="http://www.w3.org/2000/svg" xmlns:xlink="http://www.w3.org/1999/xlink" xmlns:sketch="http://www.bohemiancoding.com/sketch/ns">
    <title>security-consulting</title>
    <description>Created with Sketch (http://www.bohemiancoding.com/sketch)</description>
    <defs></defs>
    <g id="Page-1" stroke="none" stroke-width="1" fill="none" fill-rule="evenodd" sketch:type="MSPage">
        <g id="security-consulting" sketch:type="MSLayerGroup" transform="translate(24.000000, 11.000000)" fill="#7D7D7D">
            <path d="M31.1587517,48.6187424 C32.0827651,50.6390264 34.0228993,51.9242191 35.8714161,51.9242191 C37.5347383,51.9242191 39.8442819,50.6390264 40.5831007,48.6187424 L42.1538255,48.8937931 C42.7079396,41.7327383 40.3062886,37.6936308 35.8709262,37.6936308 C31.2508591,37.6936308 28.7556309,41.7327383 29.4949396,48.8937931 L31.1587517,48.6187424 Z M39.5674698,42.651359 C40.3067785,47.2420284 38.273557,50.0874645 35.8714161,50.0874645 C33.2840805,50.0879513 31.6212483,47.7010953 31.8980604,44.120568 C33.6539799,44.120568 37.9041477,43.6605274 39.5674698,42.651359 Z M43.632443,60.279432 C43.0783289,60.279432 42.7084295,60.6455172 42.7084295,61.2881136 L43.2738121,70.6724544 L45.355047,70.6724544 L44.6490537,61.1965923 C44.6490537,60.6455172 44.2791544,60.279432 43.632443,60.279432 Z M25.060557,57.4325355 C25.1531544,56.0563083 25.7998658,55.5957809 27.1863758,55.2296957 L31.251349,54.2195538 C30.5120403,54.7696552 30.0505235,55.5047465 30.0505235,56.3308722 C30.0505235,58.3443408 31.3375772,60.8168763 35.1948188,67.3888844 L37.1574899,67.3888844 C39.1608255,63.0581744 41.6927987,58.9387424 41.6927987,56.3308722 C41.6927987,55.5042596 41.230302,54.7691684 40.6761879,54.2195538 L44.6495436,55.2296957 C45.9429664,55.5957809 46.5896779,56.0563083 46.6822752,57.4325355 L47.7424899,68.9418256 L49.7894295,68.9418256 L48.6224094,56.8824341 C48.4381946,54.8621501 47.4215839,54.0355375 45.574047,53.5769574 L38.9212483,52.0152535 L38.273557,54.0355375 C39.1054631,54.4941176 39.6600671,55.5042596 39.6600671,56.3308722 C39.6600671,57.5250304 38.9207584,58.9012576 38.4582617,59.7273834 L33.2840805,59.7273834 C32.8225638,58.9007708 32.1758523,57.5245436 32.1758523,56.3308722 C32.1758523,55.5042596 32.7299664,54.4941176 33.5618725,54.0355375 L32.8225638,52.0152535 L26.1697651,53.5769574 C24.2296309,54.0355375 23.3982148,54.9531846 23.2130201,56.8824341 L21.9328255,69.151643 L23.9263624,69.151643 L25.060557,57.4325355 Z M28.1094094,60.279432 C27.6478926,60.279432 27.1858859,60.7380122 27.1858859,61.1970791 L26.4593154,70.4105477 L28.506255,70.4105477 L29.1260201,61.1060446 C29.1260201,60.6455172 28.6645034,60.279432 28.1094094,60.279432 Z" id="Path" sketch:type="MSShapeGroup"></path>
            <path d="M53.8661611,44.8843813 C57.5627047,44.8843813 59.8712685,40.7522921 59.8712685,36.8952535 C59.8712685,33.4987424 57.5627047,30.7443408 53.8661611,30.7443408 C50.3543221,30.7443408 47.9526711,33.4982556 47.9526711,36.8952535 C47.9526711,40.7527789 50.3548121,44.8843813 53.8661611,44.8843813 Z M56.4544765,34.8769168 C56.6377114,35.5195132 57.5627047,36.6206897 58.1177987,36.8957404 C58.0247114,41.0278296 56.0845772,43.0481136 53.8661611,43.0481136 C51.8344094,43.0481136 49.7076107,40.9367951 49.8011879,36.3456389 C50.7247114,36.3456389 55.3447785,35.4265314 56.4544765,34.8769168 Z M65.9900403,55.3421501 C66.0405034,55.2788641 66.0841074,55.2102231 66.1331007,55.1454767 L66.1556376,53.8807302 C66.1556376,52.9630832 65.7857383,52.504503 65.0474094,52.504503 C64.400698,52.504503 64.0322685,52.9630832 64.0322685,53.8807302 L63.9818054,57.4573631 C64.6765302,56.785071 65.3766443,56.1147262 65.9900403,55.3421501 Z M54.5844027,66.3553753 C54.7529396,66.2555781 54.9219664,66.1562677 55.0914832,66.057931 C55.4393356,61.086572 56.6568188,56.4073022 59.8717584,47.638783 L66.1551477,49.2900609 C67.6504228,49.7281947 67.9727987,50.1668154 68.0007248,51.7100203 C68.3539664,50.8712373 68.6792819,50.0207708 69.021255,49.2 C69.0222349,49.1961055 69.0232148,49.1926978 69.0237047,49.1888032 C69.0241946,49.1892901 69.0246846,49.1892901 69.0256644,49.1897769 C69.0883758,49.0388641 69.1510872,48.8879513 69.2152685,48.7389858 C68.7846174,48.2945233 68.1393758,47.9591075 67.1717584,47.638783 L58.6714228,45.3434483 C57.8395168,47.2712373 56.6382013,50.3002028 55.9914899,52.8720487 C55.6215906,52.2279919 55.2531611,51.2193103 54.5148322,50.9427992 C55.2531611,50.3926978 55.7151678,48.8314807 55.7151678,48.0973631 C55.7151678,47.4547667 54.9753691,46.9032049 53.866651,46.6281542 C52.7584228,46.9032049 52.0181342,47.4547667 52.0181342,48.0973631 C52.0181342,48.8309939 52.4811208,50.3926978 53.2199396,50.9427992 C52.4816107,51.2193103 52.1117114,52.2279919 51.7413221,52.8720487 C51.0946107,50.3002028 49.8942752,47.2712373 49.0613893,45.3434483 L43.5476846,46.8360243 C43.5344564,47.3603245 43.4937919,48.6878702 43.4815436,48.8159026 L47.8610537,47.638783 C51.3150805,57.0552535 52.4629933,61.75643 52.7045302,67.1668966 C53.3164564,66.8572819 53.9430805,66.5870994 54.5844027,66.3553753 Z" id="Shape" sketch:type="MSShapeGroup"></path>
            <path d="M16.4240201,41.0468154 C19.3464698,41.0468154 21.2248725,37.7978093 21.2248725,34.8248276 C21.2248725,32.128357 19.3464698,29.9162677 16.4240201,29.9162677 C13.6412013,29.9162677 11.7623087,32.128357 11.7623087,34.8248276 C11.7627987,37.7973225 13.6412013,41.0468154 16.4240201,41.0468154 Z M18.1637718,33.7182961 C18.3724832,34.2021907 18.8599664,34.686572 19.2073289,34.9630832 C19.1377584,37.7281947 17.8159195,39.0421095 16.4245101,39.0421095 C15.1722416,39.0421095 13.7803423,37.7286815 13.7803423,34.7556998 C14.6151879,34.686572 17.0501544,34.1335497 18.1637718,33.7182961 Z M24.4951745,52.4124949 L24.4951745,48.7209736 C24.4951745,47.8218256 24.0777517,47.4075456 23.3124765,47.4075456 C22.6162819,47.4075456 22.199349,47.8223124 22.199349,48.7209736 L22.1973893,54.1260852 C22.5452416,53.4206897 23.2267383,52.8019473 24.4951745,52.4124949 Z M28.7394631,48.8592292 C28.7394631,45.1949696 27.695906,43.5359026 24.4951745,42.6372414 L19.7638926,41.3238134 C19.4160403,42.5681136 18.5811946,45.0572008 17.885,47.2001623 L17.3284362,49.6892495 L17.4675772,47.2001623 L17.3284362,45.333712 C17.6762886,44.9184584 17.885,44.0889249 17.885,43.6050304 C17.885,43.1211359 17.3284362,42.775497 16.4935906,42.4989858 C15.658745,42.7750101 15.1016913,43.1211359 15.1016913,43.6050304 C15.1016913,44.0889249 15.3104027,44.9184584 15.658255,45.333712 L15.5191141,47.2001623 L15.658255,49.6892495 L15.1016913,47.2001623 C14.4059866,45.0572008 13.5711409,42.5681136 13.2227987,41.3238134 L8.49151678,42.6372414 C5.29127517,43.5363895 4.31679866,45.1949696 4.24722819,48.8592292 L4.20313423,52.918783 C4.49758389,53.1091278 4.74010067,53.3973225 4.89687919,53.7872617 C5.3975906,54.4829209 5.90271141,55.1746856 6.41616107,55.8601217 L6.47397315,48.5131034 C6.47397315,46.0936308 7.16967785,45.056714 9.04808054,44.5728195 L11.9004698,43.8124138 C13.2923691,48.0988235 15.3794832,50.7948073 15.3794832,54.1825558 L15.3794832,62.8936308 C15.3794832,63.8438945 15.2437718,64.5984584 14.9571611,65.1738742 C15.8135638,65.7848276 16.6547785,66.3991886 17.4479799,67.0388641 C17.5391074,67.1123732 17.615047,67.1912373 17.6865772,67.2710751 C18.2186443,67.2788641 18.7507114,67.2803245 19.2827785,67.2924949 C19.2857181,66.9789858 19.2871879,66.6703448 19.2920872,66.3529412 C18.1324161,65.868073 17.6057383,64.7591075 17.6057383,62.8936308 L17.6057383,54.1825558 C17.6057383,50.7948073 19.6928523,48.0983367 21.0847517,43.8124138 L23.9376309,44.5728195 C25.8165235,45.056714 26.5117383,45.9553753 26.5117383,48.5131034 L26.5367248,51.7105071 C27.2598658,51.5396349 28.0084832,51.4310751 28.7654295,51.3663286 L28.7394631,48.8592292 Z M10.7388389,61.4141988 L10.7883221,48.7209736 C10.7883221,47.8218256 10.3708993,47.4075456 9.67519463,47.4075456 C8.90991946,47.4075456 8.49249664,47.8223124 8.49249664,48.7209736 L8.49249664,58.5716836 C9.23425503,59.5243813 9.98483221,60.4707505 10.7388389,61.4141988 Z" id="Shape" sketch:type="MSShapeGroup"></path>
            <path d="M36.5832886,72.537931 C16.4078523,72.537931 -0.00636912752,56.2281542 -0.00636912752,36.1810953 C-0.00636912752,16.1335497 16.4078523,-0.176227181 36.5832886,-0.176227181 C56.7587248,-0.176227181 73.1729463,16.1335497 73.1729463,36.1810953 C73.1734362,56.2281542 56.7592148,72.537931 36.5832886,72.537931 Z M36.5832886,1.7715213 C17.4881544,1.7715213 1.95336242,17.2079513 1.95336242,36.1815822 C1.95336242,55.155213 17.4881544,70.5911562 36.5832886,70.5911562 C55.6784228,70.5911562 71.2132148,55.155213 71.2132148,36.1815822 C71.2132148,17.2079513 55.6789128,1.7715213 36.5832886,1.7715213 Z" id="Shape" sketch:type="MSShapeGroup"></path>
            <path d="M31.9931074,17.0166329 L29.5767584,17.0166329 L31.4541812,28.6885193 L33.0993758,25.6308316 L31.9931074,17.0166329 Z M44.5094228,8.00032454 L31.7128658,30.297931 L33.8337852,30.297931 L47.0928389,8.00032454 L44.5094228,8.00032454 Z" id="Shape" sketch:type="MSShapeGroup"></path>
        </g>
    </g>
</svg>