<svg id="圖層_1" data-name="圖層 1" xmlns="http://www.w3.org/2000/svg" xmlns:xlink="http://www.w3.org/1999/xlink" viewBox="0 0 364 124"><defs><style>.cls-1{fill:#fff;}.cls-2{mask:url(#mask);}.cls-3{fill:none;stroke:#000;stroke-opacity:0.05;stroke-width:4px;}.cls-4{opacity:0.65;}.cls-5{fill:#060200;}.cls-6{mask:url(#mask-2);}.cls-7{fill:#020000;}.cls-8{mask:url(#mask-3);}.cls-9{fill:#53565a;}.cls-10,.cls-11{fill:#44d62c;}.cls-11{font-size:24px;font-family:HackerArgot, Hacker Argot;}</style><mask id="mask" x="0" y="0" width="364" height="124" maskUnits="userSpaceOnUse"><g id="seal-b"><rect id="seal-a" class="cls-1" width="364" height="124"/></g></mask><mask id="mask-2" x="8" y="93.22" width="16.88" height="17.65" maskUnits="userSpaceOnUse"><g id="seal-e"><polygon id="seal-d" class="cls-1" points="8 110.86 8 93.22 24.88 93.22 24.88 110.86 8 110.86"/></g></mask><mask id="mask-3" x="8" y="81.23" width="207.66" height="30.08" maskUnits="userSpaceOnUse"><g id="seal-g"><polygon id="seal-f" class="cls-1" points="8 111.31 215.66 111.31 215.66 81.23 8 81.23 8 111.31"/></g></mask></defs><title>工作區域 1</title><rect class="cls-1" x="2" y="2" width="360" height="120"/><g class="cls-2"><rect class="cls-3" x="2" y="2" width="360" height="120"/></g><g class="cls-4"><polygon class="cls-5" points="45.84 93.22 48.62 110.86 51.39 110.86 48.99 93.22 45.84 93.22"/><polygon class="cls-5" points="65.29 81.23 52.13 104.61 52.67 108.56 68.66 81.23 65.29 81.23"/><g class="cls-6"><path class="cls-7" d="M21.32,103.68A6.85,6.85,0,0,1,20,106a6.5,6.5,0,0,1-2.27,1.6,7.7,7.7,0,0,1-3.15.6H11.42l2.11-12.31h2.64a6.87,6.87,0,0,1,2.5.41,5,5,0,0,1,1.75,1.11,4.47,4.47,0,0,1,1,1.64,5.87,5.87,0,0,1,.34,2,7.86,7.86,0,0,1-.46,2.67m1-8.76a7.46,7.46,0,0,0-2.57-1.3,10.35,10.35,0,0,0-2.88-.41H11L8,110.87h6.42a11.48,11.48,0,0,0,4.16-.73A9.84,9.84,0,0,0,21.9,108a9.4,9.4,0,0,0,2.19-3.24,10.84,10.84,0,0,0,.79-4.21,7.54,7.54,0,0,0-.7-3.38,6.5,6.5,0,0,0-1.84-2.29"/></g><polygon class="cls-7" points="28.24 110.86 39.74 110.86 40.2 108.12 31.63 108.12 32.5 103.06 40 103.06 40.46 100.47 32.93 100.47 33.71 95.91 41.6 95.91 42.06 93.22 31.26 93.22 28.24 110.86"/><path class="cls-7" d="M68.18,97.88a7,7,0,0,1,2.18-1.8,5.86,5.86,0,0,1,2.8-.67,4.29,4.29,0,0,1,1.27.17,4.55,4.55,0,0,1,1,.45,3.28,3.28,0,0,1,.78.61,4.17,4.17,0,0,1,.51.64l2.35-1.82a4.74,4.74,0,0,0-1-1.1,6.17,6.17,0,0,0-1.37-.85,8.37,8.37,0,0,0-3.47-.75,9.28,9.28,0,0,0-4,.86A10.23,10.23,0,0,0,66.07,96a10.89,10.89,0,0,0-2.14,3.48,11.72,11.72,0,0,0-.77,4.29,8.29,8.29,0,0,0,.56,3.09,6.85,6.85,0,0,0,4,3.94,8.61,8.61,0,0,0,3.12.55,9.34,9.34,0,0,0,2.23-.25,8.55,8.55,0,0,0,1.87-.69,7.65,7.65,0,0,0,1.53-1,8,8,0,0,0,1.18-1.26l-1.91-1.74a5.88,5.88,0,0,1-2.09,1.72,5.66,5.66,0,0,1-2.44.55,5,5,0,0,1-2.11-.42,4.45,4.45,0,0,1-1.54-1.13,5,5,0,0,1-.95-1.67,6.36,6.36,0,0,1-.33-2.06,8.76,8.76,0,0,1,1.92-5.46m28.14,5.73A8.22,8.22,0,0,1,95,106.15a6.56,6.56,0,0,1-2.1,1.79,5.93,5.93,0,0,1-2.87.67,5.5,5.5,0,0,1-2.23-.42,4.65,4.65,0,0,1-2.62-2.81,6.06,6.06,0,0,1-.34-2.06,9.24,9.24,0,0,1,.48-2.92,8.5,8.5,0,0,1,1.34-2.54,6.62,6.62,0,0,1,2.12-1.8,5.75,5.75,0,0,1,2.8-.67,5.53,5.53,0,0,1,2.23.42,4.63,4.63,0,0,1,2.61,2.82,6.18,6.18,0,0,1,.34,2,9.67,9.67,0,0,1-.45,2.92m1.29-8.79a7.38,7.38,0,0,0-2.55-1.52,9.78,9.78,0,0,0-3.33-.54,9.1,9.1,0,0,0-3.95.86A10,10,0,0,0,84.63,96a10.87,10.87,0,0,0-2.09,3.47,11.78,11.78,0,0,0-.76,4.24,8.41,8.41,0,0,0,.58,3.19A6.73,6.73,0,0,0,84,109.27a7.19,7.19,0,0,0,2.6,1.52,10.51,10.51,0,0,0,3.42.52,8.91,8.91,0,0,0,3.92-.86,9.79,9.79,0,0,0,3.1-2.33,10.81,10.81,0,0,0,2-3.47,12.17,12.17,0,0,0,.74-4.24,8.37,8.37,0,0,0-.58-3.19,6.61,6.61,0,0,0-1.65-2.4m16,5.35a5.83,5.83,0,0,1-3,.65h-2.23l.87-5h2.16a5,5,0,0,1,2.4.5,1.87,1.87,0,0,1,.89,1.79,2.24,2.24,0,0,1-1.06,2.07m4.14-2.39a4,4,0,0,0-1.54-3.35,6.93,6.93,0,0,0-4.37-1.21h-5.09l-3,17.65h2.93l1.26-7.53h2.28l3.24,7.53h3.37L113.23,103a6.28,6.28,0,0,0,3.28-1.78,4.83,4.83,0,0,0,1.22-3.43"/><polygon class="cls-7" points="134.61 95.91 135.07 93.22 124.27 93.22 121.24 110.86 132.75 110.86 133.2 108.12 124.63 108.12 125.51 103.06 133.01 103.06 133.47 100.47 125.94 100.47 126.71 95.91 134.61 95.91"/><path class="cls-7" d="M151.05,94.68a1.58,1.58,0,0,0-1.2-.58c-.53,0-1.16.27-1.16.92s.51.8,1.25,1,1.91.65,1.91,2a2.14,2.14,0,0,1-2.38,2.15,2.94,2.94,0,0,1-2.25-1l.83-.8a1.84,1.84,0,0,0,1.43.74,1.05,1.05,0,0,0,1.18-1c0-.71-.68-.91-1.51-1.17s-1.65-.66-1.65-1.91,1.21-2,2.39-2a2.81,2.81,0,0,1,1.9.72Z"/><polygon class="cls-7" points="154.12 93.27 158.46 93.27 158.46 94.32 155.29 94.32 155.29 96.03 158.29 96.03 158.29 97.04 155.29 97.04 155.29 98.94 158.63 98.94 158.63 100.01 154.12 100.01 154.12 93.27"/><path class="cls-7" d="M165.59,94.85a1.83,1.83,0,0,0-1.49-.69,2.29,2.29,0,0,0-2.27,2.47,2.23,2.23,0,0,0,2.22,2.48,1.9,1.9,0,0,0,1.59-.78l.93.68a3.06,3.06,0,0,1-2.53,1.18,3.54,3.54,0,0,1,.05-7.08,3,3,0,0,1,2.38,1Zm8,2.68a2.63,2.63,0,1,1-5.27,0V93.27h1.16v4.22a1.48,1.48,0,1,0,2.94,0V93.27h1.17Zm4.61-1.36c.66,0,1.41-.16,1.41-1s-.7-.91-1.3-.91h-1.05v1.89Zm-2.12-2.9h2.27c1.23,0,2.41.5,2.41,1.93A1.78,1.78,0,0,1,179.3,97l1.75,3h-1.4l-1.52-2.86h-.85V100h-1.16Z"/><g class="cls-8"><polygon class="cls-7" points="183.03 100.01 184.19 100.01 184.19 93.27 183.03 93.27 183.03 100.01"/></g><g class="cls-8"><polygon class="cls-7" points="188.06 94.32 186.06 94.32 186.06 93.27 191.23 93.27 191.23 94.32 189.23 94.32 189.23 100.01 188.06 100.01 188.06 94.32"/></g><g class="cls-8"><polygon class="cls-7" points="194.56 97.09 192.11 93.27 193.53 93.27 195.18 96.11 196.84 93.27 198.19 93.27 195.73 97.09 195.73 100.01 194.56 100.01 194.56 97.09"/></g><g class="cls-8"><path class="cls-7" d="M152.44,105.71a1.83,1.83,0,0,0-1.49-.69,2.29,2.29,0,0,0-2.27,2.46A2.24,2.24,0,0,0,150.9,110a1.9,1.9,0,0,0,1.59-.78l.93.68a3.06,3.06,0,0,1-2.53,1.18,3.54,3.54,0,0,1,.05-7.08,3,3,0,0,1,2.38,1Z"/></g><g class="cls-8"><path class="cls-7" d="M158.34,110a2.49,2.49,0,1,0-2.25-2.48,2.28,2.28,0,0,0,2.25,2.48m0-6a3.35,3.35,0,0,1,3.53,3.52,3.52,3.52,0,1,1-7,0,3.34,3.34,0,0,1,3.5-3.52"/></g><g class="cls-8"><polygon class="cls-7" points="164.09 104.13 165.63 104.13 168.68 109.17 168.69 109.17 168.69 104.13 169.86 104.13 169.86 110.86 168.38 110.86 165.27 105.66 165.26 105.66 165.26 110.86 164.09 110.86 164.09 104.13"/></g><g class="cls-8"><path class="cls-7" d="M175.74,105.54a1.58,1.58,0,0,0-1.2-.58c-.54,0-1.16.27-1.16.92s.51.8,1.25,1,1.91.65,1.91,2a2.14,2.14,0,0,1-2.38,2.15,2.94,2.94,0,0,1-2.25-1l.83-.8a1.85,1.85,0,0,0,1.43.74,1.05,1.05,0,0,0,1.18-1c0-.7-.69-.9-1.51-1.17s-1.66-.66-1.66-1.91,1.21-2,2.4-2a2.81,2.81,0,0,1,1.9.72Z"/></g><g class="cls-8"><path class="cls-7" d="M184,108.39a2.63,2.63,0,1,1-5.27,0v-4.26h1.16v4.22a1.48,1.48,0,1,0,2.94,0v-4.22H184Z"/></g><g class="cls-8"><polygon class="cls-7" points="186.52 104.13 187.68 104.13 187.68 109.8 190.47 109.8 190.47 110.86 186.52 110.86 186.52 104.13"/></g><g class="cls-8"><polygon class="cls-7" points="192.87 105.17 190.87 105.17 190.87 104.13 196.04 104.13 196.04 105.17 194.04 105.17 194.04 110.86 192.87 110.86 192.87 105.17"/></g><g class="cls-8"><polygon class="cls-7" points="197.91 110.86 199.07 110.86 199.07 104.13 197.91 104.13 197.91 110.86"/></g><g class="cls-8"><polygon class="cls-7" points="201.62 104.13 203.16 104.13 206.21 109.17 206.22 109.17 206.22 104.13 207.39 104.13 207.39 110.86 205.91 110.86 202.8 105.66 202.79 105.66 202.79 110.86 201.62 110.86 201.62 104.13"/></g><g class="cls-8"><path class="cls-7" d="M215.67,110.51a5.43,5.43,0,0,1-2.47.52,3.41,3.41,0,0,1-3.58-3.56,3.38,3.38,0,0,1,3.55-3.52,3.68,3.68,0,0,1,2.49.85l-.8.89a2.41,2.41,0,1,0-1.62,4.26,3.31,3.31,0,0,0,1.3-.24V108h-1.38v-1h2.51Z"/></g></g><rect class="cls-9" x="2" y="2" width="360" height="80"/><rect class="cls-10" x="2" y="2" width="96" height="80"/><path class="cls-1" d="M27.33,30.8h8.1L41.61,74H34.5ZM75.1,2h8.23L44.23,67.38l-1.32-9.46Z"/><path class="cls-1" d="M124,19.09h7.41a5.71,5.71,0,0,1,6.09,6c0,3.6-2.59,6-6.35,6h-2.85v5H124Zm4.3,3.3v5.4h1.95c1.83,0,2.91-.94,2.91-2.7s-1.07-2.71-2.88-2.71Zm17.85,3.2A2.38,2.38,0,0,0,143.73,28h4.73A2.25,2.25,0,0,0,146.14,25.59Zm2.47,6.56h3.79c-.46,2.54-2.85,4.15-6.22,4.15-4.16,0-6.55-2.46-6.55-6.74s2.45-6.91,6.49-6.91,6.36,2.44,6.36,6.6V30.4H143.7v.21a2.51,2.51,0,0,0,2.59,2.75A2.24,2.24,0,0,0,148.61,32.16ZM155.06,36h4.14V28.55c0-1.5.81-2.51,2.16-2.51s2.05.88,2.05,2.46V36h4.15V27.57c0-3.13-1.51-4.92-4.42-4.92a3.86,3.86,0,0,0-3.82,2.43h-.22V23h-4Zm21.48-10.41A2.38,2.38,0,0,0,174.13,28h4.73A2.25,2.25,0,0,0,176.54,25.59ZM179,32.16h3.79c-.46,2.54-2.85,4.15-6.22,4.15-4.16,0-6.55-2.46-6.55-6.74s2.45-6.91,6.49-6.91,6.36,2.44,6.36,6.6V30.4H174.1v.21a2.51,2.51,0,0,0,2.59,2.75A2.24,2.24,0,0,0,179,32.16ZM186.49,20v3.16h-2v3.08h2v6.21c0,2.55,1.35,3.6,4.78,3.6a10.59,10.59,0,0,0,2-.16v-3a8,8,0,0,1-1,.06c-1.08,0-1.58-.48-1.58-1.46V26.21h2.63V23.13h-2.62V20ZM196,36h4.14V29.1a2.73,2.73,0,0,1,3-2.85,6.3,6.3,0,0,1,1.78.23V23a4.74,4.74,0,0,0-1.5-.2,3.21,3.21,0,0,0-3.21,2.34H200V23h-4Zm16.2-2.7a2.15,2.15,0,0,0,2.33-2v-.86l-2.19.14c-1.23.09-1.87.57-1.87,1.36S211.13,33.3,212.18,33.3Zm-1.51,2.89c-2.51,0-4.22-1.56-4.22-3.95s1.85-3.76,5.21-4l2.85-.16v-1c0-.88-.66-1.41-1.8-1.41s-1.79.36-2.06,1.05h-3.73c.19-2.53,2.5-4.1,6-4.1s5.65,1.64,5.65,4.45V36h-4V34.38h-.22A4,4,0,0,1,210.66,36.2ZM222.77,20v3.16h-2v3.08h2v6.21c0,2.55,1.35,3.6,4.78,3.6a10.59,10.59,0,0,0,2-.16v-3a8,8,0,0,1-1,.06c-1.08,0-1.58-.48-1.58-1.46V26.21h2.63V23.13h-2.62V20Zm9.49,16h4.15V23h-4.15Zm2.07-14.55c1.46,0,2.34-.74,2.34-1.84s-.88-1.85-2.34-1.85-2.33.74-2.33,1.85S232.88,21.45,234.34,21.45ZM245.66,36.3c-4.17,0-6.64-2.54-6.64-6.83s2.54-6.82,6.64-6.82,6.64,2.58,6.64,6.82S249.84,36.3,245.66,36.3Zm0-3.16c1.52,0,2.39-1.35,2.39-3.67s-.89-3.66-2.39-3.66-2.39,1.38-2.39,3.66S244.13,33.14,245.66,33.14ZM254.89,36H259V28.55c0-1.5.81-2.51,2.16-2.51s2.05.88,2.05,2.46V36h4.15V27.57c0-3.13-1.51-4.92-4.42-4.92a3.86,3.86,0,0,0-3.82,2.43h-.22V23h-4ZM285,36V22.55h4.89V19.09H275.83v3.46h4.88V36Zm11.44-10.41A2.38,2.38,0,0,0,294,28h4.73A2.25,2.25,0,0,0,296.44,25.59Zm2.47,6.56h3.79c-.46,2.54-2.85,4.15-6.22,4.15-4.16,0-6.55-2.46-6.55-6.74s2.45-6.91,6.49-6.91,6.36,2.44,6.36,6.6V30.4H294v.21a2.51,2.51,0,0,0,2.59,2.75A2.24,2.24,0,0,0,298.91,32.16Zm6.15-5.27c0,2.05,1.28,3.33,3.87,3.88l2.43.52c1,.22,1.43.52,1.43,1.07,0,.7-.74,1.16-1.87,1.16s-2-.43-2.17-1.24h-4c.23,2.63,2.37,4,6.11,4s6-1.73,6-4.44c0-2-1.11-3-3.68-3.59l-2.7-.55c-1-.22-1.5-.55-1.5-1.1,0-.7.75-1.17,1.83-1.17s1.82.46,1.93,1.22h3.77c-.15-2.62-2.13-4-5.74-4S305.06,24.29,305.06,26.88ZM320.52,20v3.16h-2v3.08h2v6.21c0,2.55,1.35,3.6,4.78,3.6a10.59,10.59,0,0,0,2-.16v-3a8,8,0,0,1-1,.06c-1.08,0-1.58-.48-1.58-1.46V26.21h2.63V23.13h-2.62V20ZM131.38,64.46c4.34,0,7.48-2.73,7.62-6.6h-4.12a3.37,3.37,0,0,1-3.48,3c-2.37,0-3.81-2-3.81-5.34s1.44-5.31,3.8-5.31a3.38,3.38,0,0,1,3.47,3.08H139c-.13-3.83-3.35-6.67-7.61-6.67-5.07,0-8.18,3.39-8.18,8.91S126.31,64.46,131.38,64.46Zm16.22-10.86A2.38,2.38,0,0,0,145.18,56h4.73A2.25,2.25,0,0,0,147.59,53.59Zm2.47,6.56h3.79c-.46,2.54-2.85,4.15-6.22,4.15-4.16,0-6.55-2.46-6.55-6.74s2.45-6.91,6.49-6.91,6.36,2.44,6.36,6.6V58.4h-8.78v.21a2.51,2.51,0,0,0,2.59,2.75A2.24,2.24,0,0,0,150.07,60.16ZM156.51,64h4.14V57.1a2.73,2.73,0,0,1,3-2.85,6.3,6.3,0,0,1,1.78.23V51a4.74,4.74,0,0,0-1.5-.2,3.21,3.21,0,0,0-3.21,2.34h-.22V51h-4Zm12.16-16v3.16h-2v3.08h2v6.21c0,2.55,1.35,3.6,4.78,3.6a10.59,10.59,0,0,0,2-.16v-3a8,8,0,0,1-1,.06c-1.08,0-1.58-.48-1.58-1.46V54.21h2.63V51.13h-2.62V48Zm9.49,16h4.15V51h-4.15Zm2.07-14.55c1.46,0,2.34-.74,2.34-1.84s-.88-1.85-2.34-1.85-2.33.74-2.33,1.85S178.79,49.45,180.24,49.45ZM186.63,64h4.14V54.21h2.55V51.13h-2.66v-.86c0-.91.47-1.32,1.66-1.32a6.77,6.77,0,0,1,1.1.08V46.3a9.93,9.93,0,0,0-1.78-.14c-3.35,0-5,1.08-5,3.69v1.28h-2.09v3.08h2.09Zm9.3,0h4.15V51h-4.15ZM198,49.45c1.46,0,2.34-.74,2.34-1.84s-.88-1.85-2.34-1.85-2.33.74-2.33,1.85S196.55,49.45,198,49.45Zm11.19,4.15A2.38,2.38,0,0,0,206.79,56h4.73A2.25,2.25,0,0,0,209.2,53.59Zm2.47,6.56h3.79c-.46,2.54-2.85,4.15-6.22,4.15-4.16,0-6.55-2.46-6.55-6.74s2.45-6.91,6.49-6.91,6.36,2.44,6.36,6.6V58.4h-8.78v.21a2.51,2.51,0,0,0,2.59,2.75A2.24,2.24,0,0,0,211.67,60.16Zm11,4c-3.27,0-5.24-2.55-5.24-6.75s2-6.69,5.24-6.69a4,4,0,0,1,3.8,2.3h.22v-7h4.15V64h-4V62h-.22A4.07,4.07,0,0,1,222.71,64.2ZM224.23,54c-1.57,0-2.51,1.31-2.51,3.46s.93,3.47,2.51,3.47,2.52-1.3,2.52-3.46S225.8,54,224.23,54Z"/><text class="cls-11" transform="translate(259.96 112.41)">2014.05</text></svg>