<svg width="24" height="24" viewBox="0 0 24 24" fill="none" xmlns="http://www.w3.org/2000/svg">
<path d="M20 12C20 13.0506 19.7931 14.0909 19.391 15.0615C18.989 16.0321 18.3997 16.914 17.6569 17.6569C16.914 18.3997 16.0321 18.989 15.0615 19.391C14.0909 19.7931 13.0506 20 12 20C10.9494 20 9.90914 19.7931 8.93853 19.391C7.96793 18.989 7.08601 18.3997 6.34315 17.6569C5.60028 16.914 5.011 16.0321 4.60896 15.0615C4.20693 14.0909 4 13.0506 4 12C4 9.87827 4.84285 7.84344 6.34315 6.34315C7.84344 4.84285 9.87827 4 12 4C14.1217 4 16.1566 4.84285 17.6569 6.34315C19.1571 7.84344 20 9.87827 20 12Z" stroke="#53565A" stroke-width="1.4" stroke-linecap="round" stroke-linejoin="round"/>
<path d="M17 12L22 12" stroke="#53565A" stroke-width="1.4" stroke-linecap="round" stroke-linejoin="round"/>
<path d="M2 12H7" stroke="#53565A" stroke-width="1.4" stroke-linecap="round" stroke-linejoin="round"/>
<path d="M12 7L12 2" stroke="#53565A" stroke-width="1.4" stroke-linecap="round" stroke-linejoin="round"/>
<path d="M12 22L12 17" stroke="#53565A" stroke-width="1.4" stroke-linecap="round" stroke-linejoin="round"/>
<path d="M14 12C14 12.2626 13.9483 12.5227 13.8478 12.7654C13.7472 13.008 13.5999 13.2285 13.4142 13.4142C13.2285 13.5999 13.008 13.7472 12.7654 13.8478C12.5227 13.9483 12.2626 14 12 14C11.7374 14 11.4773 13.9483 11.2346 13.8478C10.992 13.7472 10.7715 13.5999 10.5858 13.4142C10.4001 13.2285 10.2528 13.008 10.1522 12.7654C10.0517 12.5227 10 12.2626 10 12C10 11.4696 10.2107 10.9609 10.5858 10.5858C10.9609 10.2107 11.4696 10 12 10C12.5304 10 13.0391 10.2107 13.4142 10.5858C13.7893 10.9609 14 11.4696 14 12Z" fill="#53565A"/>
</svg>
