<svg width="41" height="40" viewBox="0 0 41 40" fill="none" xmlns="http://www.w3.org/2000/svg">
<path d="M28.9998 15V11.6667C28.9998 9.82576 27.5075 8.33337 25.6665 8.33337H8.99984C7.15889 8.33337 5.6665 9.82576 5.6665 11.6667V21.6667C5.6665 23.5077 7.15889 25 8.99984 25H12.3332M15.6665 31.6667H32.3332C34.1741 31.6667 35.6665 30.1743 35.6665 28.3334V18.3334C35.6665 16.4924 34.1741 15 32.3332 15H15.6665C13.8256 15 12.3332 16.4924 12.3332 18.3334V28.3334C12.3332 30.1743 13.8256 31.6667 15.6665 31.6667ZM27.3332 23.3334C27.3332 25.1743 25.8408 26.6667 23.9998 26.6667C22.1589 26.6667 20.6665 25.1743 20.6665 23.3334C20.6665 21.4924 22.1589 20 23.9998 20C25.8408 20 27.3332 21.4924 27.3332 23.3334Z" stroke="#44D62C" stroke-width="2" stroke-linecap="round" stroke-linejoin="round"/>
</svg>
