<svg width="24" height="24" viewBox="0 0 24 24" fill="none" xmlns="http://www.w3.org/2000/svg">
<path d="M17.4318 13.6294C17.4318 14.3426 17.2913 15.0489 17.0184 15.7078C16.7454 16.3668 16.3453 16.9655 15.841 17.4698C15.3367 17.9742 14.7379 18.3743 14.079 18.6472C13.42 18.9201 12.7138 19.0606 12.0005 19.0606C11.2873 19.0606 10.581 18.9201 9.92208 18.6472C9.26313 18.3743 8.66439 17.9742 8.16005 17.4698C7.65571 16.9655 7.25565 16.3668 6.9827 15.7078C6.70976 15.0489 6.56927 14.3426 6.56927 13.6294C6.56927 12.1889 7.14149 10.8075 8.16005 9.7889C9.17861 8.77034 10.5601 8.19812 12.0005 8.19812C13.441 8.19812 14.8224 8.77034 15.841 9.7889C16.8596 10.8075 17.4318 12.1889 17.4318 13.6294Z" stroke="#53565A" stroke-width="1.4" stroke-linecap="round" stroke-linejoin="round"/>
<path d="M19.664 20.1469C20.3636 18.0159 20.9154 16.0083 20.9154 16.0083C19.7885 15.598 18.6253 15.2634 17.4318 15.0105M4.33704 20.1469C3.64945 18.0569 3.08459 16.0083 3.08459 16.0083C4.28506 15.5714 5.29402 15.2685 6.56928 15.0105M16.0675 9.28763C16.1787 8.44774 16.0273 7.59398 15.634 6.84357M7.99227 9.28763C7.87742 8.44649 8.02939 7.59051 8.42677 6.84031M8.42677 6.84031C7.96408 6.53219 7.54249 6.16753 7.17215 5.75297C7.24819 5.06863 7.46544 4.42557 7.79566 3.85529M8.42677 6.84031C8.77257 6.18415 9.29096 5.63594 9.92602 5.25277C10.5611 4.8696 11.2887 4.66709 12.0304 4.66709C12.7721 4.66709 13.4997 4.8696 14.1348 5.25277C14.7699 5.63594 15.2882 6.18524 15.634 6.84139C16.0979 6.53399 16.5193 6.16792 16.8887 5.75623C16.815 5.08535 16.6022 4.4372 16.2641 3.85312M4.31097 7.11186C4.08585 8.3005 3.94357 9.50334 3.88516 10.7117C4.94294 11.0579 5.68937 11.2472 6.80185 11.4569M19.6912 7.11186C19.9139 8.28501 20.0573 9.48749 20.117 10.7117C19.0498 11.0608 18.5339 11.249 17.4318 11.4569" stroke="#53565A" stroke-width="1.4" stroke-linecap="round" stroke-linejoin="round"/>
</svg>
