<svg width="40" height="40" viewBox="0 0 40 40" fill="none" xmlns="http://www.w3.org/2000/svg">
<path d="M15.707 22.6262C15.3165 22.2357 14.6833 22.2357 14.2928 22.6262C13.9023 23.0168 13.9023 23.6499 14.2928 24.0404L15.707 22.6262ZM18.3333 26.6667L17.6261 27.3738C18.0167 27.7643 18.6498 27.7643 19.0404 27.3738L18.3333 26.6667ZM25.707 20.7071C26.0975 20.3166 26.0975 19.6834 25.707 19.2929C25.3165 18.9024 24.6833 18.9024 24.2928 19.2929L25.707 20.7071ZM30.6666 11.6667V31.6667H32.6666V11.6667H30.6666ZM28.3333 34H11.6666V36H28.3333V34ZM9.33325 31.6667V11.6667H7.33325V31.6667H9.33325ZM11.6666 9.33333H14.9999V7.33333H11.6666V9.33333ZM24.9999 9.33333H28.3333V7.33333H24.9999V9.33333ZM11.6666 34C10.3779 34 9.33325 32.9553 9.33325 31.6667H7.33325C7.33325 34.0599 9.27335 36 11.6666 36V34ZM30.6666 31.6667C30.6666 32.9553 29.6219 34 28.3333 34V36C30.7265 36 32.6666 34.0599 32.6666 31.6667H30.6666ZM32.6666 11.6667C32.6666 9.27343 30.7265 7.33333 28.3333 7.33333V9.33333C29.6219 9.33333 30.6666 10.378 30.6666 11.6667H32.6666ZM9.33325 11.6667C9.33325 10.378 10.3779 9.33333 11.6666 9.33333V7.33333C9.27335 7.33333 7.33325 9.27343 7.33325 11.6667H9.33325ZM14.2928 24.0404L17.6261 27.3738L19.0404 25.9596L15.707 22.6262L14.2928 24.0404ZM19.0404 27.3738L25.707 20.7071L24.2928 19.2929L17.6261 25.9596L19.0404 27.3738ZM18.3333 6H21.6666V4H18.3333V6ZM21.6666 10.6667H18.3333V12.6667H21.6666V10.6667ZM18.3333 10.6667C17.0446 10.6667 15.9999 9.622 15.9999 8.33333H13.9999C13.9999 10.7266 15.94 12.6667 18.3333 12.6667V10.6667ZM23.9999 8.33333C23.9999 9.622 22.9552 10.6667 21.6666 10.6667V12.6667C24.0598 12.6667 25.9999 10.7266 25.9999 8.33333H23.9999ZM21.6666 6C22.9552 6 23.9999 7.04467 23.9999 8.33333H25.9999C25.9999 5.9401 24.0598 4 21.6666 4V6ZM18.3333 4C15.94 4 13.9999 5.9401 13.9999 8.33333H15.9999C15.9999 7.04467 17.0446 6 18.3333 6V4Z" fill="#44D62C"/>
</svg>
