<svg width="40" height="40" viewBox="0 0 40 40" fill="none" xmlns="http://www.w3.org/2000/svg">
<path d="M20 5L22.4283 9.92015L27.858 10.7091L23.929 14.5389L24.8565 19.9467L20 17.3935L15.1435 19.9467L16.071 14.5389L12.1421 10.7091L17.5718 9.92015L20 5Z" stroke="#44D62C" stroke-width="1.8" stroke-linejoin="round"/>
<path d="M11.7377 21.1475L13.6263 24.9743L17.8494 25.5879L14.7935 28.5666L15.5149 32.7727L11.7377 30.7869L7.9604 32.7727L8.6818 28.5666L5.62593 25.5879L9.84903 24.9743L11.7377 21.1475Z" stroke="#44D62C" stroke-width="1.8" stroke-linejoin="round"/>
<path d="M28.2623 21.1475L30.151 24.9743L34.3741 25.5879L31.3182 28.5666L32.0396 32.7727L28.2623 30.7869L24.4851 32.7727L25.2065 28.5666L22.1506 25.5879L26.3737 24.9743L28.2623 21.1475Z" stroke="#44D62C" stroke-width="1.8" stroke-linejoin="round"/>
</svg>
