<svg width="40" height="40" viewBox="0 0 40 40" fill="none" xmlns="http://www.w3.org/2000/svg">
<path d="M29.4282 31.0947C24.2212 36.3017 15.779 36.3017 10.572 31.0947C7.9685 28.4912 6.66675 25.079 6.66675 21.6667C6.66674 18.2544 7.96849 14.8421 10.572 12.2386C10.572 12.2386 11.6668 14.9999 15.0002 16.6666C15.0002 13.3333 15.8335 8.33326 19.9766 5C23.3334 8.33333 26.8187 9.62908 29.4282 12.2386C32.0317 14.8421 33.3334 18.2544 33.3334 21.6667C33.3334 25.079 32.0317 28.4912 29.4282 31.0947Z" stroke="#44D62C" stroke-width="2" stroke-linecap="round" stroke-linejoin="round"/>
<path d="M16.4645 26.8688C18.4172 28.8214 21.583 28.8214 23.5356 26.8688C24.5119 25.8925 25.0001 24.6129 25.0001 23.3333C25.0001 22.0537 24.5119 20.774 23.5356 19.7977C22.5655 18.8276 21.2959 18.3394 20.0244 18.3333L18.3333 23.3332L15.0001 23.3333C15.0001 24.6129 15.4883 25.8925 16.4645 26.8688Z" stroke="#44D62C" stroke-width="2" stroke-linecap="round" stroke-linejoin="round"/>
</svg>
