<svg width="80" height="80" viewBox="0 0 80 80" fill="none" xmlns="http://www.w3.org/2000/svg">
<path d="M20 40.5L38.5542 50.7048C39.4545 51.2 40.5455 51.2 41.4457 50.7048L60 40.5V49.3C60 55.5 50.2 61.3 40 61.3C29.8 61.3 20 55.5 20 49.3V40.5Z" fill="#44D62C"/>
<path d="M70 31.5C70 30.9477 70.4477 30.5 71 30.5C71.5523 30.5 72 30.9477 72 31.5V58.5C72 59.0523 71.5523 59.5 71 59.5C70.4477 59.5 70 59.0523 70 58.5V31.5Z" fill="#44D62C"/>
<path d="M71.3905 31.8779L41.4365 48.2164C40.5411 48.7048 39.4589 48.7048 38.5634 48.2164L8.60947 31.8779C7.9146 31.4989 7.9146 30.5011 8.60947 30.1221L38.5634 13.7836C39.4589 13.2952 40.5411 13.2952 41.4366 13.7836L71.3905 30.1221C72.0854 30.5011 72.0854 31.4989 71.3905 31.8779Z" fill="#44D62C"/>
</svg>
