<svg width="40" height="40" viewBox="0 0 40 40" fill="none" xmlns="http://www.w3.org/2000/svg">
<path fill-rule="evenodd" clip-rule="evenodd" d="M24.8818 6.72873H15.1183C12.3482 6.72871 10.1773 6.7287 8.48356 6.95642C6.74987 7.18951 5.38184 7.67592 4.30807 8.74969C3.2343 9.82346 2.74789 11.1915 2.51481 12.9252C2.28708 14.619 2.28709 16.7898 2.28711 19.5599V20.4402C2.28709 23.2102 2.28708 25.3811 2.51481 27.0749C2.74789 28.8086 3.2343 30.1766 4.30807 31.2504C5.38184 32.3241 6.74987 32.8105 8.48356 33.0436C10.1773 33.2713 12.3482 33.2713 15.1182 33.2713H15.1183H24.8818H24.8818C27.6519 33.2713 29.8227 33.2713 31.5165 33.0436C33.2502 32.8105 34.6182 32.3241 35.692 31.2504C36.7657 30.1766 37.2521 28.8086 37.4852 27.0749C37.7129 25.3811 37.7129 23.2102 37.7129 20.4402V19.5599C37.7129 16.7898 37.7129 14.619 37.4852 12.9252C37.2521 11.1915 36.7657 9.82346 35.692 8.74969C34.6182 7.67592 33.2502 7.18951 31.5165 6.95642C29.8227 6.7287 27.6518 6.72871 24.8818 6.72873ZM5.58087 10.0225C6.26445 9.3389 7.18932 8.94663 8.7234 8.74037C10.2834 8.53064 12.3332 8.52873 15.1871 8.52873H24.8129C27.6668 8.52873 29.7166 8.53064 31.2766 8.74037C32.8107 8.94663 33.7356 9.3389 34.4192 10.0225C35.1027 10.7061 35.495 11.6309 35.7013 13.165C35.911 14.725 35.9129 16.7749 35.9129 19.6287V20.3713C35.9129 23.2252 35.911 25.2751 35.7013 26.835C35.495 28.3691 35.1027 29.294 34.4192 29.9776C33.7356 30.6611 32.8107 31.0534 31.2766 31.2597C29.7166 31.4694 27.6668 31.4713 24.8129 31.4713H15.1871C12.3332 31.4713 10.2834 31.4694 8.7234 31.2597C7.18932 31.0534 6.26445 30.6611 5.58087 29.9776C4.89728 29.294 4.50501 28.3691 4.29875 26.835C4.08902 25.2751 4.08711 23.2252 4.08711 20.3713V19.6287C4.08711 16.7749 4.08902 14.725 4.29875 13.165C4.50501 11.6309 4.89728 10.7061 5.58087 10.0225ZM19.5722 19.8595L17.3002 18.2199C16.7614 17.8217 16.4569 17.4703 16.4569 16.6505V14.5893C16.4569 13.7461 16.8551 13.3479 17.6983 13.3479H18.0263C18.8695 13.3479 19.2677 13.7461 19.2677 14.5893V16.6974C19.2677 17.2019 19.6767 17.6109 20.1812 17.6109C20.6857 17.6109 21.0947 17.2019 21.0947 16.6974V14.6596C21.0947 12.6686 20.1109 11.6614 18.0965 11.6614H17.6281C15.5903 11.6614 14.5831 12.6686 14.5831 14.7064V16.6739C14.5831 18.0091 14.9344 18.8523 16.1524 19.7189L18.4479 21.382C18.9866 21.7802 19.2677 22.1315 19.2677 22.9513V25.4107C19.2677 26.254 18.8695 26.6522 18.0263 26.6522H17.6515C16.8083 26.6522 16.4101 26.254 16.4101 25.4107V22.8108C16.4101 22.3063 16.0011 21.8973 15.4966 21.8973C14.9921 21.8973 14.5831 22.3063 14.5831 22.8108V25.3405C14.5831 27.3314 15.5668 28.3386 17.5812 28.3386H18.0965C20.1343 28.3386 21.1415 27.3314 21.1415 25.2936V22.9045C21.1415 21.4991 20.7668 20.7261 19.5722 19.8595ZM11.6739 12.7389C11.6739 12.2214 11.2544 11.8019 10.7369 11.8019C10.2195 11.8019 9.80002 12.2214 9.80002 12.7389V27.2612C9.80002 27.7786 10.2195 28.1981 10.7369 28.1981C11.2544 28.1981 11.6739 27.7786 11.6739 27.2612V12.7389ZM30.7135 14.7064V25.2936C30.7135 27.3314 29.7063 28.3386 27.6685 28.3386H26.9658C24.928 28.3386 23.9208 27.3314 23.9208 25.2936V14.7064C23.9208 12.6686 24.928 11.6614 26.9658 11.6614H27.6685C29.7063 11.6614 30.7135 12.6686 30.7135 14.7064ZM28.8397 25.3873V14.6127C28.8397 13.7695 28.4415 13.3713 27.5982 13.3713H27.0361C26.1929 13.3713 25.7947 13.7695 25.7947 14.6127V25.3873C25.7947 26.2305 26.1929 26.6287 27.0361 26.6287H27.5982C28.4415 26.6287 28.8397 26.2305 28.8397 25.3873Z" fill="#44D62C"/>
</svg>
