<svg width="139" height="32" viewBox="0 0 139 32" fill="none" xmlns="http://www.w3.org/2000/svg">
<path fill-rule="evenodd" clip-rule="evenodd" d="M41.2368 12.99L44.2679 31.3733H47.279L44.6646 12.99H41.2368ZM62.4335 0.504456L48.089 24.8567L48.6757 28.9778L66.1013 0.504456H62.4346H62.4335Z" fill="#44D62C"/>
<path fill-rule="evenodd" clip-rule="evenodd" d="M15.6222 14.7678C14.7834 14.1453 13.8345 13.6869 12.8256 13.4167C11.8029 13.1335 10.7467 12.99 9.68556 12.99H3.29889L0 31.3733H6.99667C8.63222 31.3733 10.1444 31.12 11.5333 30.6089C12.9222 30.0955 14.1278 29.3744 15.1478 28.4389C16.175 27.4964 16.9887 26.3451 17.5344 25.0622C18.1089 23.7489 18.3922 22.2822 18.3922 20.6733C18.3922 19.3067 18.1367 18.1333 17.6289 17.1522C17.1189 16.1744 16.4511 15.3811 15.6222 14.7678ZM22.0522 31.3733H34.5844L35.0867 28.5178H25.7456L26.6956 23.2478H34.8756L35.3756 20.5433H27.1711L28.0156 15.7922H36.6189L37.1189 12.99H25.3467L22.0522 31.3733ZM65.5778 17.8467C66.2341 17.0684 67.0415 16.4315 67.9511 15.9744C68.8756 15.5044 69.8944 15.2722 71.0011 15.2722C71.5089 15.2722 71.9722 15.3311 72.3878 15.4555C72.8011 15.5755 73.1722 15.7333 73.5044 15.9244C73.8422 16.1133 74.1256 16.3244 74.35 16.5589C74.5833 16.7922 74.7656 17.0144 74.9044 17.2222L77.4656 15.3244C77.1666 14.8899 76.8015 14.5048 76.3833 14.1833C75.9256 13.8263 75.4241 13.529 74.8911 13.2989C73.6969 12.7819 72.4091 12.5164 71.1078 12.5189C69.5556 12.5189 68.1189 12.8189 66.7789 13.4167C65.466 13.9965 64.2779 14.8251 63.28 15.8567C62.2771 16.9032 61.4849 18.133 60.9467 19.4789C60.3822 20.8644 60.1022 22.3544 60.1022 23.9455C60.1022 25.1255 60.3044 26.1955 60.7089 27.1678C61.1133 28.1378 61.6822 28.9678 62.4122 29.66C63.14 30.3522 64.0145 30.8878 65.0378 31.2711C66.06 31.6489 67.1933 31.8411 68.4411 31.8411C69.3222 31.8411 70.13 31.7544 70.8678 31.5811C71.5705 31.4203 72.2526 31.1803 72.9011 30.8655C74.0516 30.3067 75.0608 29.495 75.8533 28.4911L73.7733 26.6744C73.1022 27.4889 72.3456 28.0811 71.5 28.4655C70.6637 28.8441 69.7558 29.0385 68.8378 29.0355C67.9767 29.0355 67.2089 28.8889 66.54 28.5967C65.9043 28.3258 65.3336 27.9228 64.8656 27.4144C64.4107 26.9073 64.0607 26.3152 63.8356 25.6722C63.5949 24.9831 63.4747 24.2577 63.48 23.5278C63.48 22.4922 63.6633 21.4811 64.0344 20.4911C64.3913 19.5264 64.9129 18.6315 65.5778 17.8467ZM97.6511 14.6622C96.8789 13.9789 95.9511 13.4511 94.8667 13.0789C93.7889 12.7078 92.5756 12.5189 91.2389 12.5189C89.69 12.5189 88.26 12.8189 86.9389 13.4167C85.6482 13.9935 84.4826 14.8171 83.5078 15.8411C82.523 16.889 81.7483 18.1159 81.2256 19.4555C80.6685 20.8598 80.3867 22.3582 80.3956 23.8689C80.3956 25.0967 80.6067 26.2044 81.0278 27.1944C81.4344 28.1581 82.0517 29.0184 82.8344 29.7122C83.6167 30.4055 84.5633 30.9344 85.67 31.2967C86.7789 31.6578 88.02 31.8411 89.3944 31.8411C90.9445 31.8411 92.3645 31.5422 93.6656 30.9444C94.9408 30.3662 96.0895 29.5419 97.0456 28.5189C97.9978 27.4944 98.7389 26.2944 99.2767 24.9089C99.8148 23.4982 100.086 21.9998 100.078 20.49C100.078 19.2622 99.8678 18.1555 99.4456 17.1678C99.0446 16.2076 98.431 15.351 97.6511 14.6622ZM119.582 17.7411C119.582 16.2511 119.021 15.0855 117.907 14.2478C116.784 13.4067 115.201 12.99 113.143 12.99H107.599L104.302 31.3722H107.493L108.866 23.5278H111.347L114.881 31.3722H118.55L114.672 23.1678C116.169 22.8389 117.359 22.22 118.25 21.3111C119.134 20.4 119.582 19.21 119.582 17.7411ZM137.972 15.7922L138.476 12.9889H126.704L123.407 31.3722H135.941L136.441 28.5189H127.1L128.052 23.2467H136.23L136.73 20.5433H128.524L129.367 15.7922H137.972ZM14.5167 23.8911C14.1841 24.7774 13.6775 25.5881 13.0267 26.2755C12.3667 26.9744 11.5422 27.5344 10.5578 27.9455C9.57333 28.3622 8.42778 28.5667 7.12667 28.5667H3.72222L6.01667 15.74H8.89445C9.94667 15.74 10.8611 15.8822 11.6233 16.1667C12.39 16.4533 13.0256 16.8367 13.5256 17.32C14.0256 17.8067 14.4 18.3744 14.6478 19.0311C14.8922 19.69 15.0144 20.3789 15.0144 21.1067C15.0144 22.0722 14.8489 23.0022 14.5144 23.8911H14.5167ZM115.068 20.2311C114.294 20.6844 113.194 20.9089 111.771 20.9089H109.341L110.291 15.6867H112.641C113.732 15.6867 114.6 15.8633 115.257 16.2089C115.904 16.5533 116.229 17.1755 116.229 18.0778C116.229 19.0622 115.84 19.7855 115.068 20.2311ZM96.24 23.8155C95.9276 24.7778 95.4443 25.6758 94.8133 26.4667C94.1899 27.2441 93.4091 27.881 92.5222 28.3355C91.6133 28.8067 90.57 29.0355 89.3944 29.0355C88.4767 29.0355 87.6689 28.8889 86.9678 28.5967C86.2645 28.3022 85.67 27.9078 85.1989 27.4144C84.7199 26.9163 84.3515 26.3226 84.1178 25.6722C83.8647 24.9858 83.7378 24.2593 83.7433 23.5278C83.7433 22.4922 83.9189 21.4811 84.2622 20.49C84.592 19.5304 85.0864 18.6355 85.7233 17.8455C86.3541 17.0659 87.1424 16.4283 88.0367 15.9744C88.9389 15.5044 89.9533 15.2722 91.0856 15.2722C91.9967 15.2722 92.8078 15.4211 93.5122 15.7144C94.1766 15.9819 94.7782 16.3845 95.2789 16.8967C95.7533 17.3911 96.1156 17.9722 96.36 18.65C96.6044 19.3244 96.73 20.0333 96.73 20.7789C96.73 21.8167 96.5633 22.8289 96.24 23.8155Z" fill="#53565A"/>
</svg>
