<svg width="32" height="32" viewBox="0 0 32 32" fill="none" xmlns="http://www.w3.org/2000/svg">
<path d="M25.3333 26.6666H6.66667C5.19391 26.6666 4 25.4727 4 24L4 7.99998C4 6.52722 5.19391 5.33331 6.66667 5.33331L20 5.33331C21.4728 5.33331 22.6667 6.52722 22.6667 7.99998V9.33331M25.3333 26.6666C23.8606 26.6666 22.6667 25.4727 22.6667 24L22.6667 9.33331M25.3333 26.6666C26.8061 26.6666 28 25.4727 28 24V12C28 10.5272 26.8061 9.33331 25.3333 9.33331L22.6667 9.33331M17.3333 5.33331L12 5.33331M9.33333 21.3333H17.3333M9.33333 10.6666H17.3333V16H9.33333V10.6666Z" stroke="#44D62C" stroke-width="2" stroke-linecap="round" stroke-linejoin="round"/>
</svg>
