<svg width="35" height="34" viewBox="0 0 35 34" fill="none" xmlns="http://www.w3.org/2000/svg">
<path fill-rule="evenodd" clip-rule="evenodd" d="M18.9108 15.7378C18.9108 19.2516 19.1705 22.7653 19.6712 26.242L20.7561 33.7318C19.7825 33.8983 18.7903 34 17.7702 34C16.7502 34 15.758 33.9075 14.7843 33.7318L15.8693 26.242C16.37 22.7653 16.6297 19.2516 16.6297 15.7378V0.0462333C17.0099 0.0184933 17.3808 0 17.7702 0C18.1597 0 18.5399 0.0184933 18.9108 0.0462333V15.7378ZM7.44945 30.5233L11.8912 21.9238C12.225 21.2766 12.4012 20.5553 12.4012 19.8249V0.869187C5.62268 3.11613 0.726562 9.48708 0.726562 16.9954C0.726562 22.5156 3.36935 27.4164 7.44945 30.5233ZM23.1393 19.8249C23.1393 20.5553 23.3155 21.2766 23.6493 21.9238L28.0818 30.5233C32.1711 27.4164 34.8046 22.5156 34.8046 16.9954C34.8046 9.47783 29.9085 3.10688 23.13 0.869187V19.8249H23.1393Z" fill="url(#paint0_linear_184_51)"/>
<defs>
<linearGradient id="paint0_linear_184_51" x1="17.7702" y1="6.34321" x2="17.7702" y2="38.124" gradientUnits="userSpaceOnUse">
<stop stop-color="#00BFCB"/>
<stop offset="1" stop-color="#6619D0"/>
</linearGradient>
</defs>
</svg>
