<svg width="40" height="40" viewBox="0 0 40 40" fill="none" xmlns="http://www.w3.org/2000/svg">
<rect x="4.91507" y="12.9289" width="11.3333" height="31.3333" rx="5.66667" transform="rotate(-45 4.91507 12.9289)" stroke="#44D62C" stroke-width="2"/>
<circle cx="12.6343" cy="12.6343" r="1.25" transform="rotate(-45 12.6343 12.6343)" fill="#44D62C"/>
<circle cx="16.7591" cy="19.7053" r="1.25" transform="rotate(-45 16.7591 19.7053)" fill="#44D62C"/>
<circle cx="19.7054" cy="16.7591" r="1.25" transform="rotate(-45 19.7054 16.7591)" fill="#44D62C"/>
<circle cx="23.2409" cy="20.2946" r="1.25" transform="rotate(-45 23.2409 20.2946)" fill="#44D62C"/>
<circle cx="20.2946" cy="23.2409" r="1.25" transform="rotate(-45 20.2946 23.2409)" fill="#44D62C"/>
<circle cx="27.3657" cy="27.3657" r="1.25" transform="rotate(-45 27.3657 27.3657)" fill="#44D62C"/>
<line x1="11.0433" y1="20.4713" x2="20.4714" y2="11.0432" stroke="#44D62C" stroke-width="2"/>
<line x1="19.8821" y1="29.3102" x2="29.3102" y2="19.8821" stroke="#44D62C" stroke-width="2"/>
<path d="M30.7834 17.3483C32.9312 15.2005 32.9312 11.7181 30.7834 9.57017C28.6355 7.42229 25.1531 7.42229 23.0052 9.57017" stroke="#44D62C" stroke-width="2" stroke-linecap="round"/>
<path d="M9.57018 23.0052C7.4223 25.1531 7.42229 28.6355 9.57018 30.7834C11.7181 32.9313 15.2005 32.9313 17.3484 30.7834" stroke="#44D62C" stroke-width="2" stroke-linecap="round"/>
</svg>
