<svg width="40" height="40" viewBox="0 0 40 40" fill="none" xmlns="http://www.w3.org/2000/svg">
<path d="M32.5 20C32.5 17.9467 32.4233 15.9117 32.27 13.8967C32.1521 12.3002 31.4645 10.7993 30.3326 9.6674C29.2007 8.53548 27.6998 7.84792 26.1033 7.72999C22.0402 7.42346 17.9598 7.42346 13.8967 7.72999C12.3002 7.84792 10.7993 8.53548 9.66741 9.6674C8.53549 10.7993 7.84793 12.3002 7.73 13.8967C7.70167 14.2633 7.67667 14.6317 7.65333 15M32.5 20L37.5 15M32.5 20L27.5 15M7.5 20C7.5 22.0533 7.57667 24.0883 7.73 26.1033C7.84793 27.6997 8.53549 29.2007 9.66741 30.3326C10.7993 31.4645 12.3002 32.1521 13.8967 32.27C17.9598 32.5767 22.0402 32.5767 26.1033 32.27C27.6998 32.1521 29.2007 31.4645 30.3326 30.3326C31.4645 29.2007 32.1521 27.6997 32.27 26.1033C32.2983 25.7367 32.3233 25.3683 32.3467 25M7.5 20L12.5 25M7.5 20L2.5 25" stroke="#44D62C" stroke-width="2" stroke-linecap="round" stroke-linejoin="round"/>
</svg>
