<svg width="80" height="80" viewBox="0 0 80 80" fill="none" xmlns="http://www.w3.org/2000/svg">
<path d="M7 16C7 13.7909 8.79086 12 11 12C13.2091 12 15 13.7909 15 16V24H7V16Z" fill="#44D62C"/>
<path fill-rule="evenodd" clip-rule="evenodd" d="M59 12H15.4722C16.4223 13.0615 17 14.4633 17 16L17 64C17 66.2091 18.7909 68 21 68C23.2091 68 25 66.2091 25 64V54H63V16C63 13.7909 61.2091 12 59 12ZM30 32C33.866 32 37 28.866 37 25C37 21.134 33.866 18 30 18C26.134 18 23 21.134 23 25C23 28.866 26.134 32 30 32ZM30 35C31.8214 35 33.5291 34.513 35 33.6622V48L30 43L25 48V33.6622C26.4709 34.513 28.1786 35 30 35ZM58 20H42V23H58V20ZM58 28H42V31H58V28ZM42 36H58V39H42V36ZM58 44H42V47H58V44Z" fill="#44D62C"/>
<path d="M68 68H25.4722C26.4223 66.9385 27 65.5367 27 64V56H72V64C72 66.2091 70.2091 68 68 68Z" fill="#44D62C"/>
</svg>
