<svg width="24" height="24" viewBox="0 0 24 24" fill="none" xmlns="http://www.w3.org/2000/svg">
<path fill-rule="evenodd" clip-rule="evenodd" d="M9.60002 4.80002C6.94906 4.80002 4.80002 6.94906 4.80002 9.60002C4.80002 12.251 6.94906 14.4 9.60002 14.4C12.251 14.4 14.4 12.251 14.4 9.60002C14.4 6.94906 12.251 4.80002 9.60002 4.80002ZM2.40002 9.60002C2.40002 5.62357 5.62357 2.40002 9.60002 2.40002C13.5765 2.40002 16.8 5.62357 16.8 9.60002C16.8 11.155 16.3071 12.5949 15.4689 13.7719L21.2486 19.5515C21.7172 20.0201 21.7172 20.7799 21.2486 21.2486C20.7799 21.7172 20.0201 21.7172 19.5515 21.2486L13.7719 15.4689C12.5949 16.3071 11.155 16.8 9.60002 16.8C5.62357 16.8 2.40002 13.5765 2.40002 9.60002Z" fill="#53565A"/>
</svg>
