<svg width="40" height="40" viewBox="0 0 40 40" fill="none" xmlns="http://www.w3.org/2000/svg">
<path d="M14.4731 22.2366C14.8103 21.5636 15 20.8039 15 20C15 19.1961 14.8103 18.4364 14.4731 17.7634M14.4731 22.2366C13.6522 23.8751 11.9575 25 10 25C7.23858 25 5 22.7614 5 20C5 17.2386 7.23858 15 10 15C11.9575 15 13.6522 16.1249 14.4731 17.7634M14.4731 22.2366L25.5269 27.7634M14.4731 17.7634L25.5269 12.2366M25.5269 12.2366C26.3478 13.8751 28.0425 15 30 15C32.7614 15 35 12.7614 35 10C35 7.23858 32.7614 5 30 5C27.2386 5 25 7.23858 25 10C25 10.8039 25.1897 11.5636 25.5269 12.2366ZM25.5269 27.7634C25.1897 28.4364 25 29.1961 25 30C25 32.7614 27.2386 35 30 35C32.7614 35 35 32.7614 35 30C35 27.2386 32.7614 25 30 25C28.0425 25 26.3478 26.1249 25.5269 27.7634Z" stroke="#44D62C" stroke-width="2" stroke-linecap="round" stroke-linejoin="round"/>
</svg>
