<svg width="479" height="104" viewBox="0 0 479 104" fill="none" xmlns="http://www.w3.org/2000/svg">
<path d="M133.135 10.904H153.535V12.92H133.135V10.904ZM133.135 5.48H153.535V7.448H133.135V5.48ZM127.615 1.784V16.616H159.295V1.784H127.615ZM121.951 18.344V22.952H164.863V18.344H121.951ZM143.935 24.728V29.144H159.631V24.728H143.935ZM129.295 24.872V28.856H140.239V24.872H129.295ZM129.295 30.872V34.856H140.239V30.872H129.295ZM149.839 28.712L145.231 30.008C148.495 37.496 154.207 42.872 162.511 45.272C163.231 43.928 164.719 41.816 165.919 40.808C158.191 38.984 152.527 34.568 149.839 28.712ZM157.951 24.728V25.544C155.839 32.936 149.647 38.456 142.207 40.808C143.263 41.864 144.703 43.928 145.327 45.272C153.871 42.056 160.639 35.912 163.471 25.88L159.919 24.536L158.959 24.728H157.951ZM121.519 37.88L121.903 42.824C126.943 42.392 133.663 41.768 140.095 41.144V36.488C133.375 37.064 126.319 37.592 121.519 37.88ZM137.263 19.832V45.32H142.783V19.832H137.263ZM125.695 19.976V39.56H130.975V19.976H125.695ZM189.151 2.648V7.976H208.639V2.648H189.151ZM187.519 19.352V24.776H214.015V19.352H187.519ZM197.647 13.736V38.84C197.647 39.512 197.407 39.704 196.639 39.752C195.823 39.8 193.327 39.752 190.879 39.656C191.647 41.192 192.607 43.688 192.895 45.272C196.447 45.32 199.087 45.128 201.007 44.264C202.879 43.352 203.455 41.816 203.455 38.936V13.736H197.647ZM206.575 2.648V3.896C205.135 6.776 201.823 11.528 198.991 14.264C199.903 15.032 201.487 16.616 202.255 17.624C205.999 14.456 210.079 9.368 212.911 5.192L209.167 2.36L207.967 2.648H206.575ZM169.231 9.8V15.128H184.735V9.8H169.231ZM175.663 0.247998C174.175 9.8 171.583 22.472 169.519 30.056L174.223 32.552C176.479 23.912 179.263 11.048 181.087 0.823999L175.663 0.247998ZM172.015 29.24C177.055 32.552 183.151 37.592 185.839 41.24L189.295 36.584C186.511 32.984 180.175 28.328 175.183 25.208L172.015 29.24ZM182.767 9.8V10.856C181.807 26.024 177.535 36.632 169.375 40.904C170.527 42.008 172.063 44.072 172.831 45.464C182.335 39.56 186.991 28.952 188.095 10.232L184.687 9.656L183.679 9.8H182.767ZM222.319 8.024V13.064H231.823V35.288H222.319V40.376H237.055V8.024H222.319ZM218.959 8.024V43.928H224.191V8.024H218.959ZM222.079 20.84V25.832H234.367V20.84H222.079ZM225.775 0.199999C225.535 2.84 224.863 6.536 224.191 9.032L228.799 10.04C229.759 7.784 230.959 4.376 232.063 1.112L225.775 0.199999ZM243.391 7.688V12.92H257.407V7.688H243.391ZM255.439 7.688V8.792C254.911 28.808 254.287 37.064 252.751 38.696C252.127 39.368 251.599 39.56 250.639 39.56C249.439 39.56 246.559 39.512 243.439 39.272C244.495 40.808 245.263 43.256 245.359 44.84C248.143 44.984 251.071 45.032 252.895 44.744C254.863 44.456 256.207 43.928 257.551 42.056C259.519 39.512 260.095 31.88 260.719 10.28C260.767 9.56 260.767 7.688 260.767 7.688H255.439ZM243.535 0.247998C241.999 6.632 239.263 13.16 236.047 17.192C237.391 17.96 239.743 19.592 240.799 20.552C244.063 15.944 247.183 8.648 249.055 1.544L243.535 0.247998ZM241.183 21.512C243.487 25.064 246.511 29.768 247.807 32.696L252.703 29.72C251.215 26.888 248.047 22.28 245.695 18.968L241.183 21.512ZM282.031 7.928V13.304H309.535V7.928H282.031ZM291.727 19.016V24.248H303.583V19.016H291.727ZM292.735 0.199999V9.8H298.447V0.199999H292.735ZM301.567 19.016V20.024C301.231 33.08 300.751 37.976 299.839 39.08C299.359 39.608 298.927 39.752 298.159 39.752C297.199 39.752 295.231 39.704 293.119 39.512C294.079 41.096 294.751 43.496 294.799 45.224C297.295 45.272 299.647 45.32 301.039 45.032C302.671 44.792 303.775 44.312 304.879 42.872C306.367 41.048 306.799 35.48 307.279 21.416C307.279 20.648 307.327 19.016 307.327 19.016H301.567ZM288.655 10.808C288.415 24.536 288.319 34.952 277.279 40.76C278.575 41.768 280.255 43.784 280.975 45.176C293.215 38.408 294.031 26.12 294.367 10.808H288.655ZM266.911 2.312V45.368H272.287V7.448H278.959V2.312H266.911ZM277.375 2.312V4.04C276.655 7.112 275.023 14.024 273.631 18.344C276.463 21.656 277.135 24.68 277.135 26.936C277.135 28.328 276.847 29.288 276.271 29.72C275.887 30.008 275.407 30.152 274.879 30.152C274.255 30.152 273.583 30.152 272.719 30.104C273.535 31.544 273.919 33.752 273.967 35.24C275.119 35.24 276.367 35.24 277.279 35.144C278.335 34.952 279.295 34.616 280.063 34.04C281.647 32.936 282.319 30.872 282.319 27.704C282.319 24.872 281.743 21.512 278.671 17.72C280.111 13.928 281.791 8.552 283.087 4.328L279.151 2.072L278.335 2.312H277.375ZM341.551 38.36C345.247 40.088 350.239 42.728 352.687 44.504L356.767 41C354.079 39.224 348.991 36.776 345.391 35.24L341.551 38.36ZM318.847 26.024V29.912H351.871V26.024H318.847ZM313.711 31.592V35.576H357.247V31.592H313.711ZM332.527 32.504V40.088C332.527 40.664 332.335 40.808 331.711 40.808C331.135 40.856 328.927 40.856 327.055 40.76C327.679 42.056 328.447 43.928 328.783 45.368C331.903 45.368 334.255 45.32 336.031 44.696C337.903 43.928 338.383 42.776 338.383 40.328V32.504H332.527ZM323.215 35.336C320.863 37.448 316.831 39.56 313.087 40.856C314.287 41.72 316.351 43.688 317.263 44.744C321.007 43.016 325.567 40.136 328.447 37.256L323.215 35.336ZM328.495 0.199999C327.583 2.456 326.143 4.856 324.367 6.584C325.471 7.016 327.391 7.784 328.351 8.408C329.887 6.632 331.663 3.8 332.719 1.208L328.495 0.199999ZM329.791 2.84L328.063 6.248H341.647V2.84H329.791ZM332.239 5.096V21.848L336.655 21.224V5.096H332.239ZM325.759 8.6V12.104H342.271V8.6H325.759ZM334.783 14.216V17.624H341.647V14.216H334.783ZM326.671 14.024V22.232L330.319 21.8V14.024H326.671ZM324.559 20.84L324.847 24.632C329.695 24.296 336.127 23.816 342.415 23.288L342.463 19.832C335.791 20.264 329.119 20.6 324.559 20.84ZM343.519 1.976V25.112H348.223V6.488H354.175V1.976H343.519ZM351.391 1.976V17.48C351.391 17.912 351.295 18.008 350.911 18.008C350.575 18.008 349.567 18.008 348.559 17.96C349.135 19.112 349.759 20.888 349.951 22.136C351.967 22.136 353.455 22.088 354.655 21.368C355.855 20.648 356.143 19.496 356.143 17.528V1.976H351.391ZM320.287 0.247998C318.655 2.168 315.583 4.52 312.943 5.96C313.807 6.776 315.199 8.36 315.871 9.32C318.799 7.592 322.351 4.712 324.751 2.072L320.287 0.247998ZM321.055 6.824C319.327 9.608 315.727 12.872 312.415 14.744C313.279 15.752 314.527 17.624 315.103 18.728C319.039 16.376 323.215 12.392 325.855 8.552L321.055 6.824ZM318.079 13.592V25.112H322.735V10.52L321.487 10.184L318.079 13.592Z" fill="white"/>
<path d="M10.3506 58.248V66.552H16.2066V58.248H10.3506ZM1.47059 63.72V68.904H24.9426V63.72H1.47059ZM24.6066 70.152V75.624H45.8226V70.152H24.6066ZM9.00659 76.344H17.4066V80.424H9.00659V76.344ZM3.72659 71.592V85.176H22.9746V71.592H3.72659ZM10.7346 83.208V97.416C10.7346 97.896 10.5426 98.04 10.0146 98.088C9.48659 98.088 7.71059 98.088 6.07859 98.04C6.79859 99.432 7.61459 101.64 7.80659 103.224C10.5906 103.224 12.6546 103.128 14.2386 102.312C15.8226 101.4 16.2546 99.96 16.2546 97.512V83.208H10.7346ZM4.11059 87C3.39059 90.792 2.04659 94.68 0.22259 97.224C1.42259 97.944 3.53459 99.528 4.44659 100.44C6.55859 97.416 8.33459 92.664 9.29459 88.104L4.11059 87ZM17.2146 88.104C18.3666 90.696 19.5666 94.248 20.0466 96.504L24.7506 94.728C24.2706 92.472 23.0226 89.112 21.7266 86.52L17.2146 88.104ZM36.3666 61.272C38.3826 63.672 40.3026 66.984 41.0226 69.24L45.7746 66.936C44.9586 64.68 42.9906 61.512 40.8306 59.256L36.3666 61.272ZM29.9826 58.2V70.488C29.9826 78.984 29.1666 91.848 20.1906 100.008C21.6306 100.728 23.9826 102.36 25.0386 103.416C34.4946 94.392 35.5986 80.328 35.5986 70.488V58.2H29.9826ZM33.8706 77.64V96.744C33.8706 99.816 34.0626 100.68 34.9746 101.64C35.8386 102.504 37.1346 102.84 38.4306 102.84C39.1506 102.84 40.4466 102.84 41.2626 102.84C42.3666 102.84 43.4706 102.552 44.1906 102.072C45.0066 101.448 45.5346 100.632 45.8706 99.432C46.1586 98.232 46.3986 95.4 46.4946 92.808C45.1506 92.376 43.3266 91.416 42.3186 90.504C42.3666 92.952 42.3186 95.064 42.2226 95.928C42.1266 96.408 41.9826 96.888 41.7906 97.08C41.5986 97.272 41.2626 97.368 40.9746 97.368C40.6386 97.368 40.2546 97.368 40.0146 97.368C39.7266 97.368 39.4386 97.272 39.2946 97.032C39.1506 96.936 39.1026 96.6 39.1026 96.312V77.64H33.8706ZM50.2386 78.744V83.832H92.7666V78.744H50.2386ZM71.7426 87.432V92.376H89.6946V87.432H71.7426ZM69.0546 81.336V99.096H74.8626V81.336H69.0546ZM61.6146 89.016L56.8626 90.552C60.7986 100.584 67.3746 102.552 78.4146 102.552H92.1426C92.4306 100.872 93.2946 98.328 94.1106 97.08C90.6546 97.176 81.3906 97.224 78.7506 97.176C70.3506 97.128 64.2546 96.024 61.6146 89.016ZM57.4386 84.84C56.3346 91.272 53.4066 96.36 48.5106 99.384C49.7586 100.248 51.9666 102.36 52.8306 103.416C58.1586 99.624 61.6146 93.576 63.1986 85.656L57.4386 84.84ZM60.2706 70.152H82.3026V72.552H60.2706V70.152ZM60.2706 63.96H82.3026V66.36H60.2706V63.96ZM54.7026 59.88V76.632H88.1586V59.88H54.7026ZM117.295 60.648V66.024H141.007V60.648H117.295ZM116.047 77.832V83.304H141.967V77.832H116.047ZM131.455 63V103.32H136.927V63H131.455ZM120.655 63.096V79.368C120.655 85.896 120.031 94.824 114.943 100.344C116.239 101.064 118.351 102.696 119.311 103.656C125.215 97.464 126.079 87.336 126.079 79.416V63.096H120.655ZM97.5186 60.504V65.736H115.039V60.504H97.5186ZM102.895 75.336V80.424H109.519V92.424H102.895V97.512H114.463V75.336H102.895ZM103.087 63.048C101.935 70.344 99.8706 77.304 96.4626 81.816C97.2786 83.496 98.2866 87.144 98.5266 88.68C103.471 82.728 106.495 73.368 108.319 64.248L103.087 63.048ZM100.447 75.336V101.064H105.199V75.336H100.447ZM148.831 83.64V88.968H176.863V83.64H148.831ZM173.647 83.64V95.688C173.647 101.304 175.135 102.984 179.839 102.984C180.799 102.984 183.151 102.984 184.159 102.984C188.335 102.984 189.823 100.872 190.399 92.904C188.815 92.472 186.127 91.512 184.927 90.456C184.783 96.456 184.591 97.368 183.487 97.368C183.007 97.368 181.327 97.368 180.943 97.368C179.887 97.368 179.743 97.176 179.743 95.592V83.64H173.647ZM164.575 58.2V65.784H170.479V58.2H164.575ZM158.719 66.312C158.095 72.168 156.655 75.48 145.903 77.208C147.007 78.312 148.351 80.472 148.831 81.912C161.503 79.368 163.903 74.472 164.815 66.312H158.719ZM169.999 66.504V74.088C169.999 78.888 171.151 80.472 176.431 80.472C177.487 80.472 180.703 80.472 181.807 80.472C185.647 80.472 187.135 79.176 187.711 74.136C186.223 73.8 183.823 72.936 182.719 72.12C182.575 75 182.335 75.432 181.183 75.432C180.463 75.432 177.919 75.432 177.295 75.432C175.903 75.432 175.711 75.288 175.711 73.992V66.504H169.999ZM146.863 62.376V72.216H152.623V67.512H182.431V71.784H188.527V62.376H146.863ZM161.455 78.36V84.504C161.455 89.304 159.391 95.304 145.135 98.808C146.431 100.104 148.159 102.12 148.975 103.56C164.767 99.48 167.263 91.416 167.263 84.648V78.36H161.455ZM220.015 74.136V79.464H237.919V74.136H220.015ZM193.999 63V67.704H215.599V63H193.999ZM193.519 82.104V86.952H215.551V82.104H193.519ZM193.375 73.704V78.456H215.983V73.704H193.375ZM227.791 76.44V103.08H233.359V76.44H227.791ZM202.015 58.632V65.112H207.631V58.632H202.015ZM202.015 78.168V103.272H207.631V78.168H202.015ZM217.423 62.04V78.792C217.423 85.368 216.895 93.576 211.327 99.48C212.623 100.2 214.735 102.168 215.455 103.416C221.983 96.648 222.895 86.04 222.895 78.888V64.776C223.759 64.632 224.095 64.392 224.143 63.912L217.423 62.04ZM233.119 58.728C229.711 60.552 224.047 62.28 218.911 63.432C219.583 64.536 220.399 66.552 220.687 67.8C226.303 66.744 232.831 65.112 237.727 62.904L233.119 58.728ZM207.199 87.144L204.127 89.64C205.903 91.224 209.551 94.824 211.135 96.744L214.447 92.616C213.295 91.656 208.687 88.056 207.199 87.144ZM196.399 68.424C197.167 70.248 197.791 72.696 197.887 74.28L202.591 73.032C202.351 71.448 201.679 69.096 200.815 67.368L196.399 68.424ZM208.351 67.272C207.919 68.952 207.103 71.4 206.431 73.032L210.991 73.992C211.711 72.504 212.527 70.44 213.439 68.232L208.351 67.272ZM202.063 84.936C199.951 89.16 195.967 93.816 192.175 96.264C193.375 97.176 195.055 99.096 195.967 100.344C199.807 97.224 203.791 91.704 206.143 86.424L202.063 84.936ZM246.319 66.024V71.064H255.823V93.288H246.319V98.376H261.055V66.024H246.319ZM242.959 66.024V101.928H248.191V66.024H242.959ZM246.079 78.84V83.832H258.367V78.84H246.079ZM249.775 58.2C249.535 60.84 248.863 64.536 248.191 67.032L252.799 68.04C253.759 65.784 254.959 62.376 256.063 59.112L249.775 58.2ZM267.391 65.688V70.92H281.407V65.688H267.391ZM279.439 65.688V66.792C278.911 86.808 278.287 95.064 276.751 96.696C276.127 97.368 275.599 97.56 274.639 97.56C273.439 97.56 270.559 97.512 267.439 97.272C268.495 98.808 269.263 101.256 269.359 102.84C272.143 102.984 275.071 103.032 276.895 102.744C278.863 102.456 280.207 101.928 281.551 100.056C283.519 97.512 284.095 89.88 284.719 68.28C284.767 67.56 284.767 65.688 284.767 65.688H279.439ZM267.535 58.248C265.999 64.632 263.263 71.16 260.047 75.192C261.391 75.96 263.743 77.592 264.799 78.552C268.063 73.944 271.183 66.648 273.055 59.544L267.535 58.248ZM265.183 79.512C267.487 83.064 270.511 87.768 271.807 90.696L276.703 87.72C275.215 84.888 272.047 80.28 269.695 76.968L265.183 79.512ZM289.375 63.96V69.48H307.663V63.96H289.375ZM295.519 66.408V90.36H301.231V66.408H295.519ZM288.559 89.496L289.951 95.448C295.231 94.056 302.239 92.136 308.815 90.264L308.191 85.128C300.991 86.808 293.359 88.536 288.559 89.496ZM311.839 66.792V72.264H333.823V66.792H311.839ZM313.039 58.152C311.215 66.312 307.951 74.328 303.583 79.176C304.975 79.896 307.471 81.672 308.527 82.584C312.847 77.064 316.495 68.328 318.751 59.304L313.039 58.152ZM324.607 70.392C322.111 85.512 315.679 93.912 301.855 98.04C302.863 99.336 304.447 101.976 304.927 103.368C319.951 98.136 327.247 88.44 330.511 71.256L324.607 70.392ZM314.527 71.016L309.199 71.976C312.463 87.192 318.127 98.184 330.655 103.368C331.519 101.736 333.295 99.336 334.639 98.184C322.975 94.008 317.167 83.928 314.527 71.016ZM341.119 87.864V91.368H378.175V87.864H341.119ZM337.999 92.952V96.6H381.055V92.952H337.999ZM356.623 83.928V98.232C356.623 98.904 356.335 99.096 355.567 99.096C354.847 99.144 351.967 99.144 349.711 99.048C350.383 100.248 351.199 102.024 351.487 103.32C355.231 103.32 357.823 103.32 359.743 102.696C361.663 102.024 362.335 100.968 362.335 98.376V83.928H356.623ZM370.927 82.008C364.447 83.016 352.447 83.4 342.415 83.352C342.751 84.168 343.231 85.656 343.327 86.52C353.599 86.664 366.031 86.28 374.287 84.888L370.927 82.008ZM338.239 60.408V63.288H359.263V60.408H338.239ZM337.471 73.752V76.536H359.407V73.752H337.471ZM343.231 69.432H354.127V70.632H343.231V69.432ZM343.231 66.408H354.127V67.56H343.231V66.408ZM339.487 64.44V72.6H358.015V64.44H339.487ZM346.351 58.296V81.72H350.767V58.296H346.351ZM360.127 70.008V73.608H376.639V70.008H360.127ZM365.071 59.592V63.432H373.615V59.592H365.071ZM374.767 70.008V70.44C372.655 75.768 366.703 78.12 358.975 78.936C359.743 79.8 360.607 81.48 360.943 82.632C369.871 81.24 376.447 78.216 379.183 70.632L376.543 69.912L375.679 70.008H374.767ZM366.223 73.128L362.047 74.376C365.455 79.512 371.503 82.776 379.231 84.072C379.855 82.872 381.151 81.048 382.159 80.088C374.959 79.272 369.007 76.872 366.223 73.128ZM362.335 59.592V62.424C362.335 64.152 361.903 65.88 358.735 67.368C359.695 67.992 361.711 69.816 362.383 70.776C366.223 68.712 367.039 65.496 367.039 62.568V59.592H362.335ZM371.023 59.592V63.912C371.023 66.456 371.311 67.416 372.079 68.136C372.751 68.856 374.047 69.192 375.103 69.192C375.727 69.192 376.687 69.192 377.311 69.192C378.031 69.192 378.991 69.096 379.567 68.808C380.239 68.568 380.767 68.088 381.103 67.464C381.391 66.888 381.631 65.448 381.727 64.152C380.575 63.816 379.135 63.048 378.319 62.328C378.271 63.336 378.223 64.152 378.127 64.488C378.031 64.872 377.887 65.016 377.743 65.064C377.647 65.112 377.407 65.16 377.215 65.16C376.975 65.16 376.639 65.16 376.447 65.16C376.255 65.16 376.111 65.112 375.967 65.016C375.919 64.824 375.871 64.44 375.871 63.768V59.592H371.023ZM339.823 76.92V82.2H357.631V76.92H353.503V79.272H343.711V76.92H339.823ZM385.663 65.928V71.448H429.199V65.928H385.663ZM401.695 77.688V83.16H420.079V77.688H401.695ZM417.967 77.688L417.919 78.6C417.247 90.456 416.335 95.928 414.895 97.176C414.271 97.704 413.599 97.752 412.543 97.752C411.151 97.752 407.743 97.752 404.431 97.464C405.535 99.048 406.399 101.448 406.495 103.128C409.711 103.224 412.927 103.272 414.751 103.128C416.959 102.888 418.495 102.408 419.935 100.872C421.855 98.76 422.863 93.336 423.727 80.184C423.871 79.416 423.919 77.688 423.919 77.688H417.967ZM399.535 69.192C399.055 80.136 398.767 92.328 384.799 98.808C386.335 100.008 388.063 102.12 388.927 103.656C403.999 96.072 405.295 82.056 406.015 69.192H399.535ZM404.191 58.008V68.088H410.143V58.008H404.191ZM465.679 61.416C467.887 63 470.575 65.4 471.823 67.032L475.855 63.576C474.511 61.992 471.679 59.736 469.519 58.248L465.679 61.416ZM433.903 66.408V72.024H477.103V66.408H433.903ZM435.679 77.544V83.112H456.463V77.544H435.679ZM442.975 80.712V96.984H448.735V80.712H442.975ZM433.855 96.168L435.487 101.976C441.727 100.68 450.223 98.904 458.143 97.176L457.711 92.04C449.071 93.672 439.663 95.304 433.855 96.168ZM457.471 58.44C457.519 80.664 460.543 103.368 470.959 103.368C475.519 103.368 477.487 101.112 478.351 91.944C476.719 91.368 474.607 89.976 473.311 88.632C473.023 94.68 472.495 97.32 471.439 97.32C466.879 97.32 463.231 78.168 463.663 58.44H457.471Z" fill="url(#paint0_linear_18_639)"/>
<defs>
<linearGradient id="paint0_linear_18_639" x1="-0.54541" y1="111" x2="479.455" y2="111" gradientUnits="userSpaceOnUse">
<stop stop-color="#339F29"/>
<stop offset="1" stop-color="#37FF21"/>
</linearGradient>
</defs>
</svg>
