<svg width="80" height="80" viewBox="0 0 80 80" fill="none" xmlns="http://www.w3.org/2000/svg">
<path d="M22.4908 23.1816C22.4908 21.2378 20.9036 19.6564 18.953 19.6564C18.8876 19.6564 18.8228 19.6586 18.7584 19.6625L18.748 19.6628C18.8926 16.4333 19.7469 12.593 22.7264 10.8801C23.6944 10.3242 24.8209 10.042 26.075 10.042C29.5839 10.042 34.0615 12.2437 38.6833 16.2412C38.7142 16.2681 38.7452 16.2953 38.7762 16.3226L38.8179 16.3593L38.848 16.3856C36.1883 18.8092 33.5415 21.7562 31.045 25.1075C26.8728 25.5987 22.9547 26.4344 19.4719 27.5806C19.4115 27.2823 19.3537 26.9851 19.3006 26.6903L19.3051 26.6895C19.4081 26.6794 19.5094 26.6641 19.6095 26.6451L19.6239 26.6427C19.6299 26.6417 19.6359 26.6407 19.6419 26.6395C19.7387 26.6205 19.8336 26.5969 19.9275 26.57L19.9411 26.5662C19.9496 26.5638 19.9581 26.5614 19.9665 26.5587C20.0583 26.5314 20.1483 26.5003 20.2367 26.4658L20.2532 26.4593C20.2614 26.4561 20.2697 26.4529 20.278 26.4495C20.3655 26.4142 20.4511 26.3756 20.5348 26.3336L20.5739 26.3136C20.6575 26.2703 20.7394 26.2244 20.819 26.1748L20.8522 26.1536C20.9326 26.1023 21.0111 26.0483 21.087 25.9909L21.1114 25.9719C21.1894 25.9119 21.265 25.8492 21.3375 25.7833C21.3412 25.7798 21.3448 25.7762 21.3484 25.7728C21.4228 25.7045 21.4944 25.6333 21.5626 25.5589L21.5672 25.5542C21.6345 25.4806 21.6983 25.4036 21.7592 25.3245L21.7665 25.3154L21.771 25.3098L21.7755 25.3041C21.8334 25.2276 21.8878 25.1486 21.9395 25.0675L21.9473 25.0556C21.9515 25.0491 21.9558 25.0427 21.9598 25.0361C22.0095 24.9564 22.0559 24.8744 22.0992 24.7906C22.1058 24.778 22.1125 24.7651 22.1189 24.7522C22.1609 24.6687 22.1995 24.5833 22.2347 24.4962L22.2512 24.4545C22.2853 24.3667 22.3164 24.2773 22.3436 24.1864C22.3466 24.1766 22.3494 24.1667 22.3521 24.1568L22.3555 24.145C22.3819 24.0522 22.4051 23.9583 22.4239 23.8628C22.4253 23.8561 22.4264 23.8494 22.4276 23.8427L22.4305 23.8266C22.4487 23.728 22.4636 23.6283 22.4736 23.5272L22.4748 23.5116L22.4755 23.5034C22.485 23.3973 22.4908 23.29 22.4908 23.1816Z" fill="#44D62C"/>
<path d="M48.6658 25.08C52.6961 25.5414 56.5025 26.3208 59.8959 27.3816C60.7028 23.122 60.7581 19.3119 59.9608 16.3358C59.3241 13.9595 58.1778 12.2814 56.5533 11.3478C55.5931 10.7962 54.4758 10.5167 53.2317 10.5167C49.8297 10.5167 45.5094 12.6034 41.0345 16.3998C43.6411 18.837 46.2272 21.7676 48.6658 25.08Z" fill="#44D62C"/>
<path d="M33.0276 24.9014C35.2973 24.6969 37.6305 24.5912 40.0006 24.5912C42.2692 24.5912 44.5111 24.6908 46.6986 24.8817C44.5476 22.0653 42.2742 19.5353 39.9348 17.3641C37.548 19.5237 35.225 22.0617 33.0276 24.9014Z" fill="#44D62C"/>
<path fill-rule="evenodd" clip-rule="evenodd" d="M40.0006 53.8259C42.7955 53.8259 45.5362 53.6778 48.1759 53.3905C49.5456 51.4714 50.8572 49.4362 52.094 47.3044C53.4684 44.9348 54.6881 42.5417 55.7467 40.1711C54.6681 37.7444 53.4212 35.2933 52.0139 32.8669C50.7094 30.6181 49.3225 28.4764 47.8722 26.4639C45.3208 26.1953 42.6805 26.0556 40.0005 26.0556C37.209 26.0556 34.4714 26.2033 31.8347 26.4898C30.3092 28.5816 28.8523 30.8175 27.4869 33.1714C26.0939 35.5731 24.8512 38.0192 23.7747 40.4531C24.7903 42.6819 25.942 44.9144 27.2162 47.1106C28.4792 49.2881 29.82 51.365 31.2203 53.3219C34.0455 53.6539 36.9919 53.8259 40.0006 53.8259ZM40 39C42.7614 39 45 36.7614 45 34C45 31.2386 42.7614 29 40 29C37.2386 29 35 31.2386 35 34C35 36.7614 37.2386 39 40 39ZM37 40C34.2386 40 32 42.2386 32 45V49H48V45C48 42.2386 45.7614 40 43 40H37Z" fill="#44D62C"/>
<path d="M53.2806 32.132C52.1817 30.2377 51.0239 28.4219 49.8239 26.6973C53.327 27.1658 56.6305 27.8822 59.5973 28.8205C58.9211 31.8466 57.8873 35.0681 56.5267 38.3592C55.5609 36.2822 54.4781 34.1969 53.2806 32.132Z" fill="#44D62C"/>
<path d="M56.5234 41.9855C55.5797 44.0048 54.525 46.0317 53.3606 48.0389C52.33 49.8158 51.247 51.5228 50.1258 53.1495C53.4701 52.6892 56.6248 51.9994 59.4873 51.0986C58.8131 48.1972 57.8144 45.1223 56.5234 41.9855Z" fill="#44D62C"/>
<path d="M19.7851 29.018C22.8356 28.002 26.2403 27.2323 29.8684 26.7327C28.5998 28.5361 27.3773 30.4425 26.2205 32.4366C25.025 34.4978 23.9417 36.5739 22.9776 38.6397C21.5903 35.3578 20.5101 32.108 19.7851 29.018Z" fill="#44D62C"/>
<path d="M25.9498 47.8453C27.0025 49.6598 28.1094 51.4023 29.2553 53.0616C26.0012 52.5825 22.9348 51.8848 20.1537 50.9847C20.8212 48.188 21.782 45.2459 23.0034 42.2628C23.8962 44.1348 24.8811 46.0031 25.9498 47.8453Z" fill="#44D62C"/>
<path d="M70.1473 34.4102C70.1383 34.4167 70.129 34.4227 70.1197 34.4287C70.1125 34.4334 70.1052 34.4381 70.0981 34.443C70.0509 34.4761 70.0031 34.5081 69.9542 34.5391L69.9402 34.548L69.9329 34.5527L69.9174 34.5628L69.9034 34.5714C69.8358 34.6127 69.7664 34.6509 69.6961 34.6875C69.682 34.6948 69.668 34.7019 69.6539 34.7089C69.4983 34.7872 69.3362 34.8547 69.1684 34.9095L69.1657 34.9105L69.1605 34.9122C69.0751 34.94 68.9886 34.9645 68.9005 34.9859L68.8891 34.9886C68.7195 35.0291 68.5456 35.0573 68.3676 35.0723C68.3514 35.0737 68.3353 35.075 68.3192 35.0761C68.235 35.0822 68.1501 35.0863 68.0644 35.0863C66.113 35.0863 64.5255 33.505 64.5255 31.5613C64.5255 31.4977 64.5273 31.4344 64.5306 31.3717C64.5314 31.359 64.5323 31.3464 64.5334 31.3338L64.5345 31.3211L64.5369 31.2914L64.5382 31.2731C64.5404 31.2441 64.5425 31.2152 64.5456 31.1864L64.5485 31.1613C64.551 31.1406 64.5539 31.1199 64.5567 31.0991L64.5584 31.0864C64.562 31.0589 64.5658 31.0312 64.57 31.0039C64.5757 30.9684 64.5824 30.9332 64.5891 30.898C64.594 30.873 64.5987 30.8477 64.6042 30.8228L64.6084 30.8012L64.6112 30.7869L64.6141 30.7739C63.4842 30.2339 62.2678 29.7366 60.98 29.2825C60.1975 32.7411 58.9711 36.4302 57.343 40.1739C58.8975 43.7661 60.0833 47.3055 60.8656 50.6408C61.7862 50.3181 62.6734 49.9733 63.5219 49.605C69.5983 46.9672 72.9448 43.5348 72.9448 39.9403C72.9447 38.0308 72.0041 36.1727 70.1473 34.4102Z" fill="#44D62C"/>
<path d="M30.4173 54.6973C26.6231 54.2161 23.0486 53.4489 19.8342 52.4195C19.372 54.6628 19.1084 56.7975 19.0656 58.7631C19.078 58.7636 19.09 58.7647 19.1022 58.7652C19.1208 58.766 19.1395 58.7671 19.1581 58.7682L19.1856 58.7698L19.1982 58.7707C19.2254 58.7726 19.2529 58.7745 19.2798 58.777C19.3078 58.7797 19.3355 58.7827 19.3634 58.7859C19.3942 58.7894 19.4248 58.7934 19.4551 58.7977C19.4831 58.8016 19.5106 58.8059 19.5383 58.8106C19.5683 58.8156 19.598 58.8206 19.6278 58.8266C19.6556 58.832 19.6831 58.8377 19.7105 58.8436C19.7397 58.85 19.7686 58.8567 19.7975 58.8637C19.825 58.8705 19.8522 58.8775 19.8792 58.8848C19.9076 58.8927 19.9358 58.9006 19.9639 58.9089C19.9911 58.917 20.0181 58.9253 20.045 58.9342C20.0725 58.9431 20.0998 58.9523 20.127 58.9619C20.1537 58.9714 20.1803 58.9811 20.2069 58.9912C20.2336 59.0012 20.2603 59.0119 20.2867 59.0227C20.313 59.0333 20.3394 59.0442 20.3653 59.0556C20.3912 59.0669 20.417 59.0784 20.4425 59.0905L20.4492 59.0936C20.4729 59.1047 20.4964 59.1158 20.5195 59.1273C20.5447 59.1397 20.5697 59.1525 20.5945 59.1656C20.6197 59.1789 20.6447 59.1922 20.6695 59.2061C20.694 59.2197 20.718 59.2336 20.7422 59.2478C20.7669 59.2622 20.7912 59.2769 20.8156 59.2917C20.839 59.3064 20.8623 59.3212 20.8855 59.3366C20.9094 59.3522 20.9333 59.3678 20.9567 59.3841C20.9795 59.3998 21.0022 59.4158 21.0244 59.4322C21.0475 59.4486 21.0703 59.4655 21.093 59.4825C21.1151 59.4992 21.1367 59.5166 21.1584 59.5337C21.1806 59.5514 21.2028 59.5692 21.2245 59.5875C21.2456 59.6051 21.2664 59.6233 21.2872 59.6416C21.3084 59.6602 21.3298 59.6791 21.3508 59.6983C21.3655 59.7117 21.3798 59.7255 21.3941 59.7392L21.4106 59.755L21.4184 59.7625C21.4363 59.7798 21.4541 59.7971 21.4715 59.8148C21.4908 59.8344 21.5097 59.8544 21.5286 59.8744C21.5481 59.8952 21.5676 59.9159 21.5869 59.9369C21.5968 59.948 21.6067 59.9593 21.6164 59.9707L21.6409 59.9991L21.6554 60.0159C21.6692 60.0319 21.6828 60.0478 21.6962 60.0641C21.7137 60.0858 21.7308 60.1075 21.7478 60.1295C21.7651 60.1519 21.7825 60.1739 21.7994 60.1966C21.814 60.2162 21.828 60.2362 21.842 60.2563L21.8481 60.265L21.8576 60.2784C21.8707 60.2968 21.8838 60.3153 21.8964 60.3341C21.9083 60.3516 21.9197 60.3696 21.9311 60.3876L21.9531 60.4223C21.9644 60.4401 21.9758 60.4579 21.9867 60.4759C22.0015 60.5005 22.0153 60.5253 22.0295 60.5502L22.0376 60.5643C22.0486 60.5834 22.0599 60.6033 22.0706 60.6227C22.081 60.6418 22.0908 60.6614 22.1005 60.6808L22.1097 60.6989C22.1225 60.7236 22.1353 60.7483 22.1473 60.7736C22.157 60.7938 22.1661 60.8142 22.1753 60.8347L22.1833 60.8525C22.1945 60.8778 22.2062 60.9028 22.217 60.9283C22.2284 60.9555 22.2389 60.9831 22.2495 61.0105L22.2583 61.0328C22.2653 61.0507 22.2724 61.0687 22.279 61.0869C22.2894 61.115 22.2986 61.1436 22.3081 61.172L22.3163 61.1963C22.3223 61.2139 22.3282 61.2314 22.3339 61.2491C22.341 61.2723 22.3475 61.2956 22.3539 61.319L22.3587 61.3364L22.3657 61.361C22.3696 61.3746 22.3736 61.3882 22.3773 61.4019L22.3808 61.415L22.3881 61.4455L22.3962 61.4812L22.4017 61.5056L22.408 61.5326C22.412 61.5495 22.416 61.5665 22.4195 61.5836C22.4243 61.6073 22.4284 61.6312 22.4325 61.655L22.4369 61.6805L22.4469 61.7363L22.45 61.7553C22.454 61.7817 22.4573 61.8085 22.4605 61.8353L22.4634 61.86L22.4669 61.8867C22.4688 61.901 22.4707 61.9154 22.4722 61.9298C22.4759 61.9657 22.4783 62.0019 22.4807 62.0382L22.4814 62.0489L22.482 62.0576L22.4834 62.0751C22.4843 62.0856 22.4852 62.0962 22.4858 62.1069C22.4887 62.1664 22.4903 62.2261 22.4903 62.2862C22.4903 62.372 22.4861 62.4569 22.4801 62.5411L22.4761 62.5934C22.4689 62.6772 22.459 62.76 22.4461 62.842L22.4452 62.8471L22.4446 62.8504L22.4426 62.862C22.4292 62.9434 22.4126 63.0237 22.3936 63.1033L22.3881 63.1272C22.3672 63.2119 22.3431 63.2952 22.3164 63.3773L22.3119 63.3905C22.2558 63.5597 22.1872 63.7231 22.107 63.8798L22.1039 63.8858C22.0223 64.0448 21.929 64.1969 21.825 64.3409L21.8244 64.3419C21.6681 64.5578 21.4884 64.7555 21.2884 64.9311L21.2762 64.9417C21.1473 65.0537 21.0108 65.1564 20.8665 65.2492C20.8578 65.2548 20.8492 65.2605 20.8403 65.2659C20.7687 65.3111 20.6958 65.3541 20.6211 65.3942L20.6164 65.3967C20.5433 65.4356 20.4683 65.4717 20.3922 65.5056C20.3831 65.5097 20.3744 65.5139 20.3651 65.5178C20.2881 65.5514 20.21 65.5822 20.1303 65.6103L20.1258 65.612L20.1234 65.613L20.1205 65.6141C20.7928 67.2241 21.7687 68.4039 23.0284 69.1273C23.9887 69.6792 25.1062 69.9589 26.3501 69.9589C29.7767 69.9589 34.1351 67.8412 38.6444 63.9922C35.8342 61.4277 33.0387 58.2831 30.4173 54.6973Z" fill="#44D62C"/>
<path d="M40.0006 55.2903C42.3837 55.2903 44.7295 55.1833 47.0111 54.9766C44.7092 58.0195 42.2625 60.7325 39.7439 63.0242C37.1986 60.7197 34.7259 57.9881 32.399 54.9214C34.8656 55.1648 37.4114 55.2903 40.0006 55.2903Z" fill="#44D62C"/>
<path d="M48.9761 54.772C46.3858 58.3239 43.6226 61.4412 40.8433 63.9892C45.3598 67.8262 49.7215 69.9359 53.1555 69.9361C54.4094 69.9361 55.5361 69.6541 56.5042 69.0978C58.142 68.1566 59.2981 66.4648 59.9398 64.0694C60.7684 60.9773 60.682 56.9905 59.7951 52.5361C56.505 53.5605 52.8501 54.3147 48.9761 54.772Z" fill="#44D62C"/>
<path d="M18.6993 25.2255L18.6883 25.2238L18.6719 25.2214C17.6608 25.0844 16.8783 24.2231 16.8781 23.1817C16.8781 22.2686 17.4795 21.4933 18.3092 21.2236C18.3265 21.218 18.3439 21.2125 18.3612 21.2073C18.4059 21.1941 18.4512 21.1828 18.497 21.1725L18.5166 21.1681C18.5297 21.165 18.5427 21.162 18.5559 21.1595C18.6022 21.1506 18.6494 21.1439 18.6969 21.1381L18.7186 21.1352C18.7301 21.1336 18.7417 21.1319 18.7534 21.1308C18.819 21.1245 18.8855 21.1208 18.9528 21.1208C20.0962 21.1208 21.0264 22.0453 21.0264 23.1817C21.0264 24.318 20.0961 25.2425 18.9528 25.2425C18.8845 25.2425 18.8172 25.2389 18.7505 25.2323C18.7334 25.2307 18.7163 25.2281 18.6993 25.2255Z" fill="#44D62C"/>
<path d="M22.1653 40.4426C20.5114 36.7226 19.2328 33.0183 18.3967 29.5062C17.7383 29.7509 17.0978 30.0073 16.4786 30.2761C10.402 32.9136 7.0553 36.3458 7.0553 39.9403C7.0553 43.5351 10.402 46.9673 16.4786 49.605C17.2061 49.9208 17.9628 50.2192 18.7439 50.5016C19.5181 47.2775 20.6701 43.8853 22.1653 40.4426Z" fill="#44D62C"/>
<path d="M20.3017 63.8486C20.2762 63.8703 20.2498 63.8911 20.2234 63.9117C20.1981 63.9312 20.1726 63.9505 20.1461 63.9694C20.1194 63.988 20.092 64.0059 20.0647 64.0234C20.0369 64.0409 20.0087 64.0581 19.9801 64.0744C19.9522 64.0905 19.9237 64.1056 19.8948 64.1203C19.8651 64.1355 19.8353 64.1497 19.805 64.1634C19.775 64.1769 19.7448 64.1898 19.7142 64.2017C19.6839 64.2137 19.6533 64.2248 19.6222 64.2355C19.5898 64.2464 19.557 64.2569 19.5237 64.2664C19.4939 64.2748 19.4634 64.2823 19.433 64.2897C19.3972 64.298 19.3612 64.3059 19.3248 64.3126C19.2964 64.3176 19.2675 64.3219 19.2384 64.3258C19.199 64.3311 19.1592 64.3359 19.1189 64.3392C19.064 64.3437 19.0089 64.3476 18.9528 64.3476C17.8089 64.3476 16.8781 63.423 16.8781 62.2864C16.8781 61.2995 17.5805 60.4733 18.5147 60.273C18.559 60.2634 18.6044 60.2569 18.6497 60.2503C18.6591 60.2489 18.6684 60.2473 18.6778 60.2458C18.6953 60.2428 18.7127 60.2399 18.7306 60.238C18.804 60.23 18.8784 60.2256 18.953 60.2256C20.0964 60.2256 21.0265 61.1501 21.0265 62.2862C21.0265 62.3555 21.0228 62.4236 21.0161 62.4914C21.0143 62.5089 21.0115 62.526 21.0087 62.5432C21.0079 62.5481 21.0071 62.5531 21.0063 62.558C21.0054 62.5638 21.0045 62.5695 21.0037 62.5753L20.9995 62.6054C20.9955 62.6338 20.9916 62.6622 20.9859 62.69C20.9806 62.7163 20.9738 62.742 20.967 62.7677L20.9606 62.792L20.9539 62.8191C20.9488 62.8401 20.9437 62.8612 20.9373 62.8817C20.9289 62.9094 20.9189 62.9365 20.9089 62.9636L20.8995 62.9892L20.8907 63.0137C20.8845 63.0313 20.8782 63.049 20.8711 63.0661C20.8584 63.097 20.8441 63.1267 20.8297 63.1566L20.8222 63.1722L20.8119 63.1939C20.8043 63.2103 20.7966 63.2267 20.7881 63.2426C20.772 63.2729 20.7543 63.3021 20.7367 63.3315L20.7297 63.3431L20.7193 63.3605C20.7092 63.3772 20.6993 63.3939 20.6886 63.4103C20.668 63.4417 20.6455 63.4722 20.623 63.5025L20.6167 63.511C20.6027 63.5302 20.5887 63.5495 20.5737 63.5681C20.5511 63.5962 20.527 63.6236 20.5028 63.6508L20.4938 63.6608C20.4777 63.6788 20.4614 63.697 20.4445 63.7145C20.4203 63.7395 20.395 63.7636 20.3694 63.7873C20.3472 63.8081 20.3248 63.8287 20.3017 63.8486Z" fill="#44D62C"/>
<path d="M68.0644 33.6222C68.1373 33.6222 68.2097 33.6181 68.2816 33.6108C68.2922 33.6097 68.3023 33.6072 68.313 33.6059C68.3741 33.5986 68.4345 33.5897 68.4945 33.577C68.5075 33.5744 68.5198 33.5701 68.5328 33.5672C68.5887 33.5542 68.6447 33.54 68.6992 33.5223C68.7075 33.5197 68.7157 33.5167 68.7238 33.5136C68.7268 33.5125 68.7298 33.5114 68.7328 33.5102C68.7393 33.5078 68.7458 33.5053 68.7523 33.503C68.8001 33.4862 68.8476 33.4687 68.894 33.4486C68.9176 33.4383 68.9406 33.4262 68.9639 33.4151C69.0022 33.3967 69.0403 33.3781 69.0776 33.3573C69.1044 33.3423 69.1304 33.326 69.1566 33.3097L69.1606 33.3072L69.1624 33.3061C69.1916 33.2879 69.2213 33.2694 69.2497 33.2497C69.2801 33.2284 69.3098 33.2059 69.3389 33.1833C69.3631 33.1645 69.387 33.1456 69.4101 33.1258C69.4406 33.0998 69.4703 33.0731 69.4989 33.0456C69.5197 33.0259 69.5398 33.0058 69.5598 32.985C69.9169 32.6147 70.1376 32.1136 70.1376 31.5614C70.1376 30.425 69.2075 29.5003 68.064 29.5003C67.2165 29.5003 66.4873 30.0081 66.1656 30.7331C66.1511 30.7658 66.1386 30.7989 66.126 30.832L66.1228 30.8406L66.1135 30.865C66.1049 30.8875 66.0963 30.91 66.0887 30.933C66.078 30.9667 66.0697 31.0011 66.0605 31.0353L66.0534 31.0608C66.0463 31.0863 66.0392 31.1118 66.0337 31.1378C66.0281 31.1645 66.0241 31.1916 66.0202 31.2186L66.0156 31.2497C66.0139 31.2614 66.0119 31.2731 66.0099 31.2848C66.0064 31.3053 66.0029 31.3259 66.0006 31.3469C65.9933 31.4176 65.9894 31.4892 65.9894 31.5616C65.9897 32.6976 66.9203 33.6222 68.0644 33.6222Z" fill="#44D62C"/>
</svg>
