<svg width="16" height="16" viewBox="0 0 16 16" fill="none" xmlns="http://www.w3.org/2000/svg">
<path fill-rule="evenodd" clip-rule="evenodd" d="M2 16H14C15.104 16 16 15.104 16 14V2C16 0.896 15.104 0 14 0H2C0.896 0 0 0.896 0 2V14C0 15.104 0.896 16 2 16ZM11.98 6.228C11.98 8.936 9.916 12.064 6.144 12.064C4.988 12.064 3.908 11.724 3.004 11.148C3.164 11.168 3.328 11.176 3.492 11.176C4.452 11.176 5.336 10.848 6.04 10.296C5.144 10.28 4.384 9.688 4.124 8.872C4.248 8.896 4.376 8.908 4.508 8.908C4.696 8.908 4.876 8.884 5.048 8.836C4.112 8.648 3.404 7.816 3.404 6.824V6.796C3.68 6.948 3.996 7.04 4.332 7.052C3.784 6.684 3.42 6.056 3.42 5.344C3.42 4.968 3.52 4.616 3.696 4.312C4.708 5.552 6.22 6.372 7.924 6.456C7.892 6.304 7.872 6.148 7.872 5.988C7.872 4.856 8.792 3.936 9.924 3.936C10.512 3.936 11.044 4.184 11.42 4.584C11.888 4.492 12.328 4.324 12.724 4.088C12.568 4.568 12.244 4.972 11.82 5.224C12.236 5.172 12.632 5.064 13 4.9C12.724 5.312 12.376 5.676 11.976 5.964C11.98 6.05198 11.98 6.13996 11.98 6.22794V6.228Z" fill="#53565A"/>
</svg>
