<svg width="40" height="40" viewBox="0 0 40 40" fill="none" xmlns="http://www.w3.org/2000/svg">
<path d="M28.3333 33.3333H36.6666V30C36.6666 27.2385 34.428 25 31.6666 25C30.0739 25 28.6552 25.7446 27.7395 26.9048M28.3333 33.3333H11.6666M28.3333 33.3333V30C28.3333 28.9062 28.1225 27.8617 27.7395 26.9048M11.6666 33.3333H3.33325V30C3.33325 27.2385 5.57183 25 8.33325 25C9.92593 25 11.3447 25.7446 12.2603 26.9048M11.6666 33.3333V30C11.6666 28.9062 11.8773 27.8617 12.2603 26.9048M12.2603 26.9048C13.4891 23.835 16.4913 21.6666 19.9999 21.6666C23.5086 21.6666 26.5107 23.835 27.7395 26.9048M24.9999 11.6666C24.9999 14.428 22.7613 16.6666 19.9999 16.6666C17.2385 16.6666 14.9999 14.428 14.9999 11.6666C14.9999 8.9052 17.2385 6.66663 19.9999 6.66663C22.7613 6.66663 24.9999 8.9052 24.9999 11.6666ZM34.9999 16.6666C34.9999 18.5076 33.5075 20 31.6666 20C29.8256 20 28.3333 18.5076 28.3333 16.6666C28.3333 14.8257 29.8256 13.3333 31.6666 13.3333C33.5075 13.3333 34.9999 14.8257 34.9999 16.6666ZM11.6666 16.6666C11.6666 18.5076 10.1742 20 8.33325 20C6.4923 20 4.99992 18.5076 4.99992 16.6666C4.99992 14.8257 6.4923 13.3333 8.33325 13.3333C10.1742 13.3333 11.6666 14.8257 11.6666 16.6666Z" stroke="#44D62C" stroke-width="2" stroke-linecap="round" stroke-linejoin="round"/>
</svg>
