<svg width="24" height="24" viewBox="0 0 24 24" fill="none" xmlns="http://www.w3.org/2000/svg">
<path d="M19.2568 1.7557C18.2636 0.748166 16.6559 0.748037 15.6625 1.7557L14.4644 2.97102C13.6835 3.76324 13.5184 4.94673 13.9684 5.90484L10.8275 9.09089C10.3475 9.57781 10.0831 10.2252 10.0831 10.9139V17.8438H7.54155C6.14014 17.8438 5 19.0003 5 20.4219V23H16.8606V20.4219C16.8606 19.0003 15.7204 17.8438 14.319 17.8438H11.7775V10.9139C11.7775 10.6843 11.8656 10.4686 12.0256 10.3062L15.1664 7.12017C16.1112 7.57671 17.2771 7.40987 18.0586 6.61705L19.2567 5.40172C20.2477 4.39651 20.2477 2.76091 19.2568 1.7557ZM15.1663 20.4219V21.2812H6.69441V20.4219C6.69441 19.948 7.07446 19.5625 7.54159 19.5625H14.3191C14.7862 19.5625 15.1663 19.948 15.1663 20.4219ZM18.0587 4.18639L16.8606 5.40172C16.5303 5.73675 15.9929 5.73679 15.6625 5.40172C15.3322 5.06665 15.3322 4.52147 15.6625 4.18639L16.8606 2.97107C17.1917 2.63522 17.7275 2.63518 18.0587 2.97107C18.389 3.30609 18.389 3.85132 18.0587 4.18639Z" fill="#44D62C"/>
</svg>