<?xml version="1.0" encoding="UTF-8" standalone="no"?>
<svg width="122px" height="48px" viewBox="0 0 122 48" version="1.1" xmlns="http://www.w3.org/2000/svg" xmlns:xlink="http://www.w3.org/1999/xlink" xmlns:sketch="http://www.bohemiancoding.com/sketch/ns">
    <title>Slice 1</title>
    <description>Created with Sketch (http://www.bohemiancoding.com/sketch)</description>
    <defs></defs>
    <g id="Page-1" stroke="none" stroke-width="1" fill="none" fill-rule="evenodd" sketch:type="MSPage">
        <g id="logo" sketch:type="MSLayerGroup" transform="translate(0.000000, 6.000000)">
            <g id="Group" sketch:type="MSShapeGroup">
                <path d="M2.90654945,11.116 L8.53262637,11.116 C9.46572527,11.116 10.3854176,11.2426667 11.3004176,11.496 C12.2154176,11.7493333 13.0365714,12.1513333 13.7638791,12.6993333 C14.4938681,13.2446667 15.0824176,13.9526667 15.5308681,14.8226667 C15.9793187,15.6953333 16.2038791,16.7393333 16.2038791,17.9566667 C16.2038791,19.3886667 15.9545165,20.694 15.4490879,21.8646667 C14.9463407,23.038 14.2458462,24.038 13.3455934,24.8693333 C12.4466813,25.704 11.3848791,26.346 10.1608571,26.8026667 C8.93683516,27.2573333 7.60489011,27.4833333 6.16368132,27.4833333 L0,27.4833333 L2.90654945,11.116 L2.90654945,11.116 Z M3.27992308,24.9853333 L6.27763736,24.9853333 C7.4239011,24.9853333 8.43207692,24.8033333 9.30015385,24.432 C10.1682308,24.066 10.8941978,23.5673333 11.4753736,22.9446667 C12.0572198,22.3193333 12.4929341,21.6146667 12.7878791,20.8213333 C13.0814835,20.0306667 13.2282857,19.202 13.2282857,18.3426667 C13.2282857,17.6953333 13.1203626,17.0813333 12.9045165,16.4946667 C12.685989,15.9106667 12.3561868,15.404 11.9157802,14.9713333 C11.4753736,14.542 10.9143077,14.2 10.239956,13.944 C9.56694505,13.6906667 8.76254945,13.564 7.83481319,13.564 L5.3002967,13.564 L3.27992308,24.9853333 L3.27992308,24.9853333 Z" id="Shape" fill="#8CC341"></path>
                <path d="M19.4288352,27.4833333 L22.3327033,11.1153333 L32.702033,11.1153333 L32.2616264,13.6106667 L24.6822088,13.6106667 L23.9374725,17.8406667 L31.1663077,17.8406667 L30.7259011,20.248 L23.5191868,20.248 L22.6826154,24.9413333 L30.9129231,24.9413333 L30.4698352,27.4833333 L19.4288352,27.4833333 L19.4288352,27.4833333 Z" id="Shape" fill="#8CC341"></path>
                <path d="M66.8285165,24.9166667 C66.5047473,25.3353333 66.1253407,25.7233333 65.692978,26.0846667 C65.2552527,26.448 64.7679231,26.7646667 64.2283077,27.032 C63.6826593,27.302 63.0874066,27.514 62.4365165,27.668 C61.7856264,27.822 61.0737363,27.8993333 60.2988352,27.8993333 C59.1994945,27.8993333 58.200033,27.7286667 57.2997802,27.3926667 C56.3995275,27.0506667 55.627978,26.5746667 54.9864725,25.9573333 C54.342956,25.34 53.8428901,24.6026667 53.4856044,23.7373333 C53.1296593,22.8726667 52.9513516,21.92 52.9513516,20.8706667 C52.9513516,19.4526667 53.198033,18.1273333 53.6947473,16.8933333 C54.1901209,15.662 54.8758681,14.5853333 55.7506484,13.668 C56.6281099,12.7506667 57.6563956,12.0266667 58.8334945,11.4953333 C60.0132747,10.964 61.2788571,10.6966667 62.647,10.6966667 C63.250967,10.6966667 63.8348242,10.76 64.3999121,10.8813333 C64.9676813,11.0053333 65.4938901,11.176 65.9812198,11.3906667 C66.4712308,11.608 66.908956,11.87 67.2964066,12.178 C67.6838571,12.4866667 68.0029341,12.8253333 68.2489451,13.194 L65.9919451,14.8826667 C65.8699451,14.698 65.7097363,14.5 65.5046154,14.2933333 C65.3048571,14.084 65.0561648,13.8966667 64.7598791,13.7286667 C64.4662747,13.558 64.1391538,13.4173333 63.7738242,13.31 C63.4084945,13.2 63.0009341,13.1473333 62.5524835,13.1473333 C61.5778242,13.1473333 60.6802527,13.354 59.8664725,13.7726667 C59.0553736,14.1886667 58.3575604,14.742 57.7757143,15.4386667 C57.1938681,16.13 56.7393846,16.918 56.4156154,17.7933333 C56.0884945,18.6746667 55.9282857,19.5753333 55.9282857,20.498 C55.9282857,21.1786667 56.0321868,21.8146667 56.239989,22.4066667 C56.4518132,23.0013333 56.7534615,23.5166667 57.1476154,23.9573333 C57.5437802,24.398 58.0337912,24.748 58.6236813,25.0093333 C59.2135714,25.2713333 59.8892637,25.4006667 60.6480769,25.4006667 C61.4678901,25.4006667 62.2488242,25.2326667 62.9935604,24.894 C63.7382967,24.552 64.4059451,24.0233333 64.9958352,23.2993333 L66.8285165,24.9166667 L66.8285165,24.9166667 Z" id="Shape" fill="#727376"></path>
                <path d="M80.3839231,10.6973333 C81.561022,10.6973333 82.6295275,10.8653333 83.5793846,11.196 C84.5346044,11.5266667 85.3517363,11.9973333 86.0327912,12.606 C86.7171978,13.2146667 87.2427363,13.958 87.6140989,14.8366667 C87.9854615,15.7153333 88.1711429,16.7013333 88.1711429,17.7946667 C88.1711429,19.1826667 87.9358571,20.494 87.4646154,21.7273333 C86.9913626,22.9613333 86.3371209,24.03 85.4985385,24.9413333 C84.6592857,25.85 83.6678681,26.5693333 82.5216044,27.1006667 C81.3753407,27.6346667 80.1238352,27.8993333 78.7583736,27.8993333 C77.5484286,27.8993333 76.4544505,27.7366667 75.4764396,27.4146667 C74.5017802,27.0926667 73.6678901,26.6213333 72.9787912,26.0046667 C72.2923736,25.388 71.7574505,24.6413333 71.3867582,23.7626667 C71.0160659,22.8813333 70.8303846,21.8953333 70.8303846,20.802 C70.8303846,19.4166667 71.0737143,18.1053333 71.5617143,16.872 C72.049044,15.638 72.7193736,14.5666667 73.572033,13.6553333 C74.4246923,12.7493333 75.4328681,12.0273333 76.5958901,11.496 C77.7582418,10.964 79.0184615,10.6973333 80.3839231,10.6973333 L80.3839231,10.6973333 Z M78.7583736,25.4013333 C79.794033,25.4013333 80.7130549,25.1973333 81.5134286,24.7786667 C82.3084396,24.3626667 82.9841319,23.8066667 83.5324615,23.1153333 C84.0834725,22.4213333 84.5017582,21.6333333 84.7893297,20.7546667 C85.0742198,19.876 85.2216923,18.976 85.2216923,18.05 C85.2216923,17.386 85.1110879,16.7553333 84.8945714,16.1553333 C84.6787253,15.552 84.3603187,15.034 83.942033,14.594 C83.5237473,14.1533333 83.0055824,13.8033333 82.3855275,13.542 C81.7648022,13.2806667 81.0509011,13.148 80.2478462,13.148 C79.2510659,13.148 78.3561758,13.3546667 77.5618352,13.7733333 C76.7614615,14.1893333 76.0830879,14.7426667 75.5233626,15.4393333 C74.9696703,16.1306667 74.5373077,16.9186667 74.2356593,17.794 C73.934011,18.6753333 73.7784945,19.576 73.7784945,20.4986667 C73.7784945,21.1793333 73.8890989,21.8153333 74.1082967,22.4073333 C74.3241429,23.002 74.6398681,23.5173333 75.0608352,23.958 C75.4764396,24.3986667 75.9992967,24.7486667 76.620022,25.01 C77.2380659,25.272 77.9492857,25.4013333 78.7583736,25.4013333 L78.7583736,25.4013333 Z" id="Shape" fill="#727376"></path>
                <path d="M104.446077,27.4833333 L101.214418,27.4833333 L98.0987253,20.4986667 L95.9134505,20.4986667 L94.7035055,27.4833333 L91.8928132,27.4833333 L94.798022,11.1153333 L99.6827143,11.1153333 C101.493945,11.1153333 102.889571,11.4873333 103.878308,12.2366667 C104.861681,12.9826667 105.354374,14.0186667 105.354374,15.346 C105.354374,16.654 104.96089,17.7146667 104.179956,18.5246667 C103.396341,19.334 102.346604,19.8853333 101.028736,20.1773333 L104.446077,27.4833333 L104.446077,27.4833333 Z M98.4727692,18.166 C99.7276264,18.166 100.696253,17.9653333 101.377978,17.5626667 C102.059033,17.166 102.39956,16.5213333 102.39956,15.646 C102.39956,14.842 102.11467,14.288 101.543549,13.9826667 C100.965055,13.674 100.200209,13.5173333 99.2396264,13.5173333 L97.1683077,13.5173333 L96.3317363,18.166 L98.4727692,18.166 L98.4727692,18.166 Z" id="Shape" fill="#727376"></path>
                <path d="M108.724121,27.4833333 L111.62933,11.1153333 L122,11.1153333 L121.556912,13.6106667 L113.974813,13.6106667 L113.232758,17.8406667 L120.463604,17.8406667 L120.023198,20.248 L112.817824,20.248 L111.979242,24.9413333 L120.209549,24.9413333 L119.769143,27.4833333 L108.724121,27.4833333 L108.724121,27.4833333 Z" id="Shape" fill="#727376"></path>
                <path d="M39.351033,11.116 L36.3298571,11.116 L38.678022,25.4973333 L40.7359341,21.7326667 L39.351033,11.116 Z" id="Shape" fill="#8CC341"></path>
                <path d="M55.0072527,0 L39.0017912,27.4833333 L41.654956,27.4833333 L58.2382418,0 L55.0072527,0 Z" id="Shape" fill="#8CC341"></path>
            </g>
        </g>
    </g>
</svg>