<?xml version="1.0" encoding="UTF-8" standalone="no"?>
<svg width="280px" height="48px" viewBox="0 0 280 48" version="1.1" xmlns="http://www.w3.org/2000/svg" xmlns:xlink="http://www.w3.org/1999/xlink" xmlns:sketch="http://www.bohemiancoding.com/sketch/ns">
    <title>Slice 1</title>
    <description>Created with Sketch (http://www.bohemiancoding.com/sketch)</description>
    <defs></defs>
    <g id="Page-1" stroke="none" stroke-width="1" fill="none" fill-rule="evenodd" sketch:type="MSPage">
        <g id="logo" sketch:type="MSLayerGroup" transform="translate(0.000000, 1.000000)">
            <g id="Group" sketch:type="MSShapeGroup">
                <g id="Shape">
                    <path d="M4.761,16.367 L13.087,16.367 C14.468,16.367 15.829,16.555 17.183,16.932 C18.538,17.309 19.753,17.908 20.829,18.723 C21.909,19.535 22.78,20.588 23.444,21.883 C24.108,23.182 24.44,24.736 24.44,26.547 C24.44,28.678 24.071,30.62 23.323,32.362 C22.579,34.108 21.542,35.596 20.21,36.833 C18.88,38.075 17.308,39.03 15.497,39.711 C13.685,40.387 11.714,40.724 9.581,40.724 L0.46,40.724 L4.761,16.367 L4.761,16.367 Z M5.314,37.007 L9.751,37.007 C11.448,37.007 12.94,36.737 14.224,36.184 C15.509,35.639 16.583,34.897 17.443,33.97 C18.304,33.039 18.949,31.991 19.386,30.81 C19.82,29.634 20.038,28.4 20.038,27.122 C20.038,26.158 19.878,25.244 19.558,24.371 C19.234,23.502 18.747,22.748 18.095,22.104 C17.443,21.466 16.613,20.956 15.615,20.576 C14.619,20.199 13.428,20.01 12.055,20.01 L8.303,20.01 L5.314,37.007 L5.314,37.007 Z" fill="#8CC341"></path>
                    <path d="M29.214,40.725 L33.512,16.368 L48.859,16.368 L48.207,20.081 L36.989,20.081 L35.887,26.376 L46.586,26.376 L45.934,29.958 L35.268,29.958 L34.03,36.942 L46.211,36.942 L45.555,40.725 L29.214,40.725 L29.214,40.725 Z" fill="#8CC341"></path>
                    <path d="M99.365,36.904 C98.885,37.527 98.324,38.104 97.684,38.642 C97.037,39.183 96.315,39.654 95.516,40.051 C94.709,40.453 93.827,40.769 92.865,40.998 C91.902,41.227 90.848,41.343 89.701,41.343 C88.074,41.343 86.594,41.088 85.262,40.589 C83.929,40.08 82.787,39.371 81.839,38.453 C80.886,37.535 80.146,36.437 79.618,35.15 C79.092,33.863 78.827,32.446 78.827,30.884 C78.827,28.773 79.192,26.802 79.927,24.966 C80.66,23.134 81.675,21.531 82.97,20.167 C84.269,18.801 85.791,17.724 87.533,16.933 C89.279,16.143 91.152,15.745 93.177,15.745 C94.07,15.745 94.935,15.84 95.771,16.02 C96.611,16.204 97.39,16.459 98.111,16.778 C98.837,17.102 99.484,17.491 100.058,17.95 C100.632,18.409 101.103,18.913 101.468,19.462 L98.128,21.975 C97.948,21.7 97.71,21.406 97.407,21.098 C97.112,20.787 96.743,20.508 96.305,20.258 C95.87,20.004 95.387,19.795 94.846,19.635 C94.305,19.471 93.702,19.393 93.038,19.393 C91.595,19.393 90.268,19.701 89.062,20.324 C87.861,20.943 86.829,21.767 85.968,22.803 C85.107,23.832 84.434,25.004 83.955,26.308 C83.471,27.619 83.234,28.959 83.234,30.333 C83.234,31.346 83.388,32.292 83.695,33.173 C84.009,34.059 84.455,34.825 85.038,35.48 C85.624,36.136 86.349,36.656 87.222,37.046 C88.095,37.435 89.095,37.627 90.218,37.627 C91.431,37.627 92.587,37.378 93.689,36.873 C94.792,36.365 95.779,35.578 96.652,34.5 L99.365,36.904 L99.365,36.904 Z" fill="#727376"></path>
                    <path d="M119.427,15.744 C121.169,15.744 122.751,15.994 124.156,16.486 C125.57,16.977 126.779,17.679 127.787,18.585 C128.8,19.491 129.578,20.596 130.127,21.904 C130.676,23.212 130.951,24.679 130.951,26.306 C130.951,28.372 130.602,30.322 129.906,32.159 C129.205,33.995 128.238,35.585 126.996,36.941 C125.754,38.294 124.287,39.363 122.59,40.154 C120.893,40.949 119.041,41.343 117.02,41.343 C115.229,41.343 113.61,41.101 112.163,40.621 C110.72,40.141 109.487,39.441 108.466,38.522 C107.45,37.604 106.659,36.493 106.109,35.186 C105.56,33.875 105.285,32.407 105.285,30.78 C105.285,28.719 105.646,26.767 106.367,24.932 C107.088,23.096 108.08,21.501 109.343,20.144 C110.605,18.796 112.097,17.722 113.819,16.931 C115.542,16.142 117.406,15.744 119.427,15.744 L119.427,15.744 Z M117.021,37.626 C118.554,37.626 119.914,37.323 121.099,36.7 C122.275,36.081 123.275,35.253 124.087,34.225 C124.902,33.191 125.521,32.02 125.948,30.712 C126.37,29.404 126.588,28.064 126.588,26.687 C126.588,25.699 126.424,24.76 126.104,23.867 C125.784,22.969 125.313,22.199 124.694,21.543 C124.075,20.887 123.309,20.367 122.391,19.977 C121.473,19.588 120.416,19.391 119.227,19.391 C117.751,19.391 116.428,19.699 115.251,20.322 C114.066,20.941 113.063,21.765 112.234,22.801 C111.415,23.83 110.775,25.002 110.328,26.306 C109.881,27.617 109.652,28.957 109.652,30.331 C109.652,31.344 109.816,32.29 110.14,33.171 C110.46,34.057 110.927,34.823 111.55,35.478 C112.165,36.134 112.939,36.654 113.857,37.044 C114.771,37.433 115.824,37.626 117.021,37.626 L117.021,37.626 Z" fill="#727376"></path>
                    <path d="M155.039,40.725 L150.256,40.725 L145.645,30.331 L142.411,30.331 L140.62,40.725 L136.46,40.725 L140.759,16.368 L147.989,16.368 C150.669,16.368 152.735,16.921 154.198,18.035 C155.653,19.146 156.383,20.686 156.383,22.662 C156.383,24.609 155.801,26.187 154.645,27.392 C153.485,28.597 151.932,29.416 149.981,29.851 L155.039,40.725 L155.039,40.725 Z M146.198,26.859 C148.055,26.859 149.489,26.56 150.497,25.961 C151.505,25.371 152.009,24.411 152.009,23.109 C152.009,21.912 151.587,21.088 150.743,20.633 C149.886,20.173 148.755,19.94 147.333,19.94 L144.267,19.94 L143.029,26.858 L146.198,26.858 L146.198,26.859 Z" fill="#727376"></path>
                    <path d="M161.371,40.725 L165.67,16.368 L181.018,16.368 L180.362,20.081 L169.14,20.081 L168.042,26.376 L178.743,26.376 L178.091,29.958 L167.427,29.958 L166.185,36.942 L178.366,36.942 L177.714,40.725 L161.371,40.725 L161.371,40.725 Z" fill="#727376"></path>
                    <path d="M58.699,16.367 L54.227,16.367 L57.703,37.769 L60.748,32.166 L58.699,16.367 Z" fill="#8CC341"></path>
                    <path d="M81.87,-0.175 L58.182,40.725 L62.109,40.725 L86.652,-0.175 L81.87,-0.175 Z" fill="#8CC341"></path>
                </g>
                <path d="M201.535,22.226 L201.535,21.015 L202.278,21.015 L202.278,22.226 L205.788,22.226 L205.788,22.9 L202.278,22.9 L202.278,24.179 L207.551,24.179 C207.482,23.194 207.43,22.139 207.413,21.015 L208.226,21.015 C208.243,22.157 208.278,23.211 208.347,24.179 L212.34,24.179 L212.34,24.854 L208.399,24.854 C208.537,26.998 208.779,28.83 209.125,30.334 C209.16,30.525 209.194,30.697 209.229,30.852 C209.955,29.539 210.439,28.138 210.715,26.686 L211.459,26.824 C211.113,28.691 210.456,30.402 209.505,31.959 C209.781,32.961 210.092,33.861 210.439,34.656 C210.889,35.503 211.2,35.936 211.39,35.936 C211.459,35.936 211.546,35.763 211.649,35.417 C211.753,34.933 211.856,34.19 211.925,33.17 L212.6,33.498 C212.462,34.847 212.289,35.729 212.064,36.161 C211.891,36.506 211.684,36.679 211.459,36.679 C211.009,36.679 210.56,36.282 210.127,35.503 C209.695,34.777 209.298,33.878 208.952,32.772 C207.897,34.241 206.636,35.555 205.183,36.748 L204.578,36.194 C206.324,34.777 207.673,33.342 208.642,31.872 C208.642,31.855 208.659,31.837 208.677,31.803 C208.573,31.458 208.486,31.112 208.417,30.732 C208.037,29.141 207.76,27.187 207.604,24.854 L196.868,24.854 L196.868,24.179 L201.536,24.179 L201.536,22.9 L197.957,22.9 L197.957,22.226 L201.535,22.226 L201.535,22.226 Z M206.065,25.735 L206.065,29.781 L204.094,29.781 L204.094,30.939 L206.531,30.939 L206.531,31.544 L204.094,31.544 L204.094,32.891 L207.067,32.891 L207.067,33.496 L196.868,33.496 L196.868,32.891 L199.841,32.891 L199.841,31.544 L197.542,31.544 L197.542,30.939 L199.841,30.939 L199.841,29.781 L198.095,29.781 L198.095,25.735 L206.065,25.735 L206.065,25.735 Z M200.93,34.241 C200.065,35.019 198.959,35.728 197.611,36.402 L196.936,35.866 C198.354,35.226 199.46,34.569 200.255,33.843 L200.93,34.241 L200.93,34.241 Z M201.673,27.361 L201.673,26.341 L198.838,26.341 L198.838,27.361 L201.673,27.361 L201.673,27.361 Z M201.673,29.175 L201.673,27.965 L198.838,27.965 L198.838,29.175 L201.673,29.175 L201.673,29.175 Z M203.35,29.781 L200.584,29.781 L200.584,30.939 L203.35,30.939 L203.35,29.781 L203.35,29.781 Z M203.35,32.892 L203.35,31.545 L200.584,31.545 L200.584,32.892 L203.35,32.892 L203.35,32.892 Z M202.416,27.361 L205.321,27.361 L205.321,26.341 L202.416,26.341 L202.416,27.361 L202.416,27.361 Z M202.416,29.175 L205.321,29.175 L205.321,27.965 L202.416,27.965 L202.416,29.175 L202.416,29.175 Z M205.252,35.261 L204.699,35.797 C204.145,35.279 203.471,34.794 202.676,34.311 L203.212,33.844 C203.903,34.241 204.577,34.707 205.252,35.261 L205.252,35.261 Z M211.596,23.228 L211.061,23.851 C210.438,23.021 209.781,22.33 209.09,21.759 L209.574,21.206 C210.299,21.793 210.974,22.468 211.596,23.228 L211.596,23.228 Z" id="Shape" fill="#727376"></path>
                <path d="M225.986,24.041 C226.021,23.143 226.055,22.139 226.055,21.068 L226.937,21.068 C226.937,22.139 226.902,23.143 226.868,24.041 L232.746,24.041 L232.746,24.854 L226.833,24.854 C226.747,26.271 226.608,27.465 226.435,28.432 L234.094,28.432 L234.094,29.245 L227.715,29.245 C228.148,30.732 228.96,32.063 230.17,33.204 C231.346,34.38 232.797,35.348 234.561,36.143 L233.886,36.938 C232.053,36.074 230.533,34.967 229.288,33.62 C228.044,32.34 227.197,30.871 226.764,29.245 L226.262,29.245 C226.193,29.521 226.107,29.763 226.038,29.989 C225.502,31.511 224.671,32.807 223.565,33.913 C222.389,35.071 220.903,36.022 219.105,36.818 L218.69,36.074 C220.383,35.313 221.785,34.414 222.89,33.308 C223.927,32.271 224.705,31.009 225.225,29.556 C225.26,29.452 225.276,29.349 225.311,29.245 L219.105,29.245 L219.105,28.432 L225.52,28.432 C225.709,27.465 225.848,26.271 225.951,24.854 L220.384,24.854 L220.384,24.041 L225.986,24.041 L225.986,24.041 Z" id="Shape" fill="#727376"></path>
                <path d="M248.147,28.57 L248.147,29.245 L246.54,29.245 L246.54,34.587 C246.54,35.089 246.626,35.365 246.816,35.434 C246.902,35.572 248.787,35.659 252.469,35.659 C253.938,35.659 254.855,35.555 255.218,35.383 C255.407,35.21 255.582,34.415 255.718,32.962 L256.462,33.36 C256.238,34.967 256.013,35.815 255.806,35.918 C255.737,36.194 254.613,36.333 252.47,36.333 C249.012,36.333 247.128,36.281 246.783,36.194 C246.419,36.125 246.161,36.021 246.021,35.883 C245.866,35.728 245.797,35.399 245.797,34.916 L245.797,29.245 L244.241,29.245 C244.172,31.838 243.93,33.584 243.515,34.466 C243.064,35.503 242.339,36.333 241.337,36.938 L240.852,36.333 C241.768,35.763 242.426,35.001 242.841,34.034 C243.221,33.239 243.446,31.63 243.497,29.245 L241.475,29.245 L241.475,28.57 L248.147,28.57 L248.147,28.57 Z M249.461,23.038 L255.858,23.038 L255.858,25.735 L255.114,25.735 L255.114,23.712 L242.337,23.712 L242.337,25.804 L241.593,25.804 L241.593,23.038 L248.63,23.038 C248.354,22.45 247.99,21.88 247.541,21.344 L248.146,20.877 C248.752,21.534 249.183,22.243 249.461,23.038 L249.461,23.038 Z M247.68,25.735 L247.68,26.409 L242.822,26.409 L242.822,25.735 L247.68,25.735 L247.68,25.735 Z M251.465,24.317 L251.465,26.341 L255.372,26.341 L255.372,27.015 L251.465,27.015 L251.465,28.571 L254.561,28.571 C254.163,29.816 253.436,31.009 252.365,32.116 C253.109,32.755 253.8,33.395 254.44,34.035 L253.887,34.588 C253.229,33.897 252.556,33.24 251.847,32.617 C250.758,33.568 249.494,34.363 248.078,34.986 L247.749,34.312 C249.08,33.759 250.256,33.032 251.293,32.15 C250.533,31.528 249.755,30.958 248.96,30.404 L249.444,29.92 C250.273,30.49 251.069,31.078 251.813,31.666 C252.66,30.819 253.248,30.007 253.577,29.246 L248.77,29.246 L248.77,28.571 L250.724,28.571 L250.724,24.318 L251.465,24.318 L251.465,24.317 Z" id="Shape" fill="#727376"></path>
                <path d="M277.785,22.019 L277.785,22.693 L270.834,22.693 L270.834,25.13 L275.83,25.13 C275.086,24.646 274.343,24.196 273.601,23.782 L274.016,23.228 C275.641,24.058 277.111,25.026 278.46,26.133 L277.993,26.756 C277.578,26.427 277.18,26.116 276.782,25.805 L276.782,35.262 C276.782,36.161 276.367,36.61 275.555,36.61 C274.968,36.61 274.293,36.541 273.533,36.403 L273.464,35.59 C274.277,35.764 274.968,35.867 275.555,35.867 C275.866,35.867 276.039,35.607 276.039,35.123 L276.039,25.805 L270.835,25.805 L270.835,36.403 L270.091,36.403 L270.091,25.805 L265.165,25.805 L265.165,36.887 L264.421,36.887 L264.421,25.77 C263.937,26.029 263.452,26.271 262.934,26.479 L262.537,25.874 C264.403,25.079 265.873,24.179 266.91,23.177 L267.601,23.574 C266.979,24.145 266.305,24.664 265.544,25.13 L270.09,25.13 L270.09,22.693 L263.21,22.693 L263.21,22.019 L277.785,22.019 L277.785,22.019 Z M269.555,30.939 C269.157,31.492 268.726,32.01 268.241,32.495 C268.761,32.927 269.261,33.377 269.763,33.843 L269.279,34.31 C268.812,33.843 268.31,33.376 267.792,32.926 C267.205,33.48 266.581,33.981 265.907,34.448 L265.441,34.033 C266.132,33.566 266.772,33.065 267.343,32.546 C266.807,32.131 266.236,31.699 265.63,31.267 L266.115,30.87 C266.668,31.267 267.239,31.683 267.792,32.115 C268.276,31.649 268.69,31.164 269.072,30.663 L269.555,30.939 L269.555,30.939 Z M269.555,26.617 C269.157,27.17 268.726,27.672 268.259,28.138 C268.777,28.588 269.296,29.037 269.814,29.521 L269.348,29.988 C268.881,29.504 268.379,29.037 267.826,28.553 C267.255,29.106 266.633,29.608 265.977,30.057 L265.492,29.659 C266.185,29.193 266.825,28.708 267.377,28.19 C266.824,27.758 266.253,27.326 265.63,26.876 L266.115,26.479 C266.684,26.894 267.255,27.326 267.826,27.775 C268.293,27.308 268.708,26.824 269.071,26.34 L269.555,26.617 L269.555,26.617 Z M275.434,30.939 C275.018,31.492 274.569,32.028 274.067,32.53 C274.587,32.979 275.071,33.446 275.554,33.912 L275.087,34.379 C274.638,33.895 274.136,33.428 273.618,32.944 C273.013,33.514 272.356,34.033 271.647,34.517 L271.181,34.102 C271.907,33.618 272.563,33.116 273.186,32.563 C272.632,32.114 272.061,31.647 271.439,31.197 L271.923,30.8 C272.512,31.215 273.081,31.664 273.635,32.147 C274.119,31.663 274.551,31.18 274.948,30.661 L275.434,30.939 L275.434,30.939 Z M275.434,26.617 C275.018,27.153 274.587,27.654 274.12,28.121 C274.622,28.57 275.122,29.037 275.624,29.521 L275.158,29.988 C274.691,29.504 274.189,29.02 273.671,28.535 C273.066,29.089 272.409,29.59 271.717,30.057 L271.233,29.659 C271.96,29.193 272.633,28.692 273.222,28.155 C272.686,27.706 272.115,27.273 271.509,26.824 L271.976,26.409 C272.547,26.824 273.116,27.273 273.687,27.74 C274.154,27.29 274.569,26.824 274.949,26.34 L275.434,26.617 L275.434,26.617 Z" id="Shape" fill="#727376"></path>
            </g>
        </g>
    </g>
</svg>